SplineFontDB: 3.0
FontName: ElaineSans-Thin
FullName: Elaine Sans Thin
FamilyName: Elaine Sans Thin
Weight: Thin
Copyright: Copyright (c) 2015 by Wei Huang. All rights reserved.
Version: 1.030;PS 001.030;hotconv 1.0.70;makeotf.lib2.5.58329
ItalicAngle: 0
UnderlinePosition: -250
UnderlineWidth: 50
Ascent: 760
Descent: 240
InvalidEm: 0
sfntRevision: 0x000107ae
LayerCount: 2
Layer: 0 1 "Back" 1
Layer: 1 1 "Fore" 0
XUID: [1021 288 1899785369 16295]
StyleMap: 0x0040
FSType: 4
OS2Version: 3
OS2_WeightWidthSlopeOnly: 0
OS2_UseTypoMetrics: 0
CreationTime: 1436215487
ModificationTime: 1543785160
PfmFamily: 81
TTFWeight: 100
TTFWidth: 5
LineGap: 0
VLineGap: 0
Panose: 0 0 2 0 0 0 0 0 0 0
OS2TypoAscent: 760
OS2TypoAOffset: 0
OS2TypoDescent: -240
OS2TypoDOffset: 0
OS2TypoLinegap: 173
OS2WinAscent: 930
OS2WinAOffset: 0
OS2WinDescent: 243
OS2WinDOffset: 0
HheadAscent: 930
HheadAOffset: 0
HheadDescent: -243
HheadDOffset: 0
OS2SubXSize: 650
OS2SubYSize: 600
OS2SubXOff: 0
OS2SubYOff: 75
OS2SupXSize: 650
OS2SupYSize: 600
OS2SupXOff: 0
OS2SupYOff: 350
OS2StrikeYSize: 50
OS2StrikeYPos: 300
OS2CapHeight: 660
OS2XHeight: 500
OS2Vendor: 'UKWN'
OS2CodePages: 20000093.00000000
OS2UnicodeRanges: 00000007.00000001.00000000.00000000
Lookup: 1 0 0 "'aalt' Access All Alternates lookup 0" { "'aalt' Access All Alternates lookup 0 subtable"  } ['aalt' ('DFLT' <'dflt' > 'grek' <'dflt' > 'latn' <'CAT ' 'MOL ' 'NLD ' 'ROM ' 'TRK ' 'dflt' > ) ]
Lookup: 3 0 0 "'aalt' Access All Alternates lookup 1" { "'aalt' Access All Alternates lookup 1 subtable"  } ['aalt' ('DFLT' <'dflt' > 'grek' <'dflt' > 'latn' <'CAT ' 'MOL ' 'NLD ' 'ROM ' 'TRK ' 'dflt' > ) ]
Lookup: 1 0 0 "'locl' Localized Forms in Latin lookup 2" { "'locl' Localized Forms in Latin lookup 2 subtable"  } ['locl' ('latn' <'TRK ' > ) ]
Lookup: 1 0 0 "'locl' Localized Forms in Latin lookup 3" { "'locl' Localized Forms in Latin lookup 3 subtable"  } ['locl' ('latn' <'TAT ' > ) ]

StartChar: .notdef
Encoding: 65536 -1 0
Width: 500
Flags: W
LayerCount: 2
Fore
SplineSet
50 0 m 1,0,-1
 50 660 l 1,1,-1
 450 660 l 1,2,-1
 450 0 l 1,3,-1
 50 0 l 1,0,-1
130 80 m 1,4,-1
 370 80 l 1,5,-1
 370 580 l 1,6,-1
 130 580 l 1,7,-1
 130 80 l 1,4,-1
EndSplineSet
EndChar

StartChar: exclam
Encoding: 33 33 4
Width: 202
GlyphClass: 2
Flags: W
LayerCount: 2
Fore
SplineSet
116 660 m 1,0,-1
 116 318 l 1,1,-1
 114 178 l 1,2,-1
 88 178 l 1,3,-1
 85 318 l 1,4,-1
 85 660 l 1,5,-1
 116 660 l 1,0,-1
101 57 m 128,-1,7
 115 57 115 57 123.5 48 c 128,-1,8
 132 39 132 39 132 25 c 128,-1,9
 132 11 132 11 123.5 2.5 c 128,-1,10
 115 -6 115 -6 101 -6 c 128,-1,11
 87 -6 87 -6 78 2.5 c 128,-1,12
 69 11 69 11 69 25 c 128,-1,13
 69 39 69 39 78 48 c 128,-1,6
 87 57 87 57 101 57 c 128,-1,7
EndSplineSet
Substitution2: "'smcp' Lowercase to Small Capitals lookup 12 subtable" exclam.sc
Substitution2: "'c2sc' Capitals to Small Capitals lookup 11 subtable" exclam.sc
Substitution2: "'aalt' Access All Alternates lookup 0 subtable" exclam.sc
EndChar

StartChar: quotedbl
Encoding: 34 34 5
Width: 276
GlyphClass: 2
Flags: W
LayerCount: 2
Fore
SplineSet
102 682 m 1,0,-1
 96 504 l 1,1,-1
 70 504 l 1,2,-1
 70 682 l 1,3,-1
 102 682 l 1,0,-1
211 682 m 1,4,-1
 205 504 l 1,5,-1
 178 504 l 1,6,-1
 178 682 l 1,7,-1
 211 682 l 1,4,-1
EndSplineSet
Substitution2: "'smcp' Lowercase to Small Capitals lookup 12 subtable" quotedbl.sc
Substitution2: "'c2sc' Capitals to Small Capitals lookup 11 subtable" quotedbl.sc
Substitution2: "'aalt' Access All Alternates lookup 0 subtable" quotedbl.sc
EndChar

StartChar: numbersign
Encoding: 35 35 6
Width: 604
GlyphClass: 2
Flags: W
LayerCount: 2
Fore
SplineSet
569 437 m 1,0,-1
 435 437 l 1,1,-1
 404 232 l 1,2,-1
 535 232 l 1,3,-1
 535 207 l 1,4,-1
 400 207 l 1,5,-1
 369 0 l 1,6,-1
 341 0 l 1,7,-1
 373 207 l 1,8,-1
 193 207 l 1,9,-1
 161 0 l 1,10,-1
 134 0 l 1,11,-1
 165 207 l 1,12,-1
 35 207 l 1,13,-1
 35 232 l 1,14,-1
 169 232 l 1,15,-1
 200 437 l 1,16,-1
 69 437 l 1,17,-1
 69 462 l 1,18,-1
 203 462 l 1,19,-1
 233 660 l 1,20,-1
 261 660 l 1,21,-1
 231 462 l 1,22,-1
 411 462 l 1,23,-1
 441 660 l 1,24,-1
 469 660 l 1,25,-1
 439 462 l 1,26,-1
 569 462 l 1,27,-1
 569 437 l 1,0,-1
376 232 m 1,28,-1
 407 437 l 1,29,-1
 228 437 l 1,30,-1
 196 232 l 1,31,-1
 376 232 l 1,28,-1
EndSplineSet
Substitution2: "'tnum' Tabular Numbers lookup 26 subtable" numbersign.tf
Substitution2: "'aalt' Access All Alternates lookup 0 subtable" numbersign.tf
EndChar

StartChar: dollar
Encoding: 36 36 7
Width: 604
GlyphClass: 2
Flags: W
LayerCount: 2
Fore
SplineSet
538 169 m 0,0,1
 538 94 538 94 480 47.5 c 128,-1,2
 422 1 422 1 326 0 c 1,3,-1
 326 -100 l 1,4,-1
 300 -100 l 1,5,-1
 300 1 l 1,6,7
 215 6 215 6 158 50 c 128,-1,8
 101 94 101 94 82 171 c 1,9,-1
 110 186 l 1,10,11
 123 116 123 116 174.5 74 c 128,-1,12
 226 32 226 32 300 26 c 1,13,-1
 300 316 l 1,14,15
 262 324 262 324 239 330.5 c 128,-1,16
 216 337 216 337 185.5 350 c 128,-1,17
 155 363 155 363 138 379 c 128,-1,18
 121 395 121 395 109 422 c 128,-1,19
 97 449 97 449 97 483 c 0,20,21
 97 555 97 555 152.5 606 c 128,-1,22
 208 657 208 657 300 660 c 1,23,-1
 300 760 l 1,24,-1
 326 760 l 1,25,-1
 326 660 l 1,26,27
 484 654 484 654 531 514 c 1,28,-1
 506 495 l 1,29,30
 468 628 468 628 326 634 c 1,31,-1
 326 338 l 1,32,33
 367 329 367 329 389.5 323.5 c 128,-1,34
 412 318 412 318 445 304.5 c 128,-1,35
 478 291 478 291 495 275 c 128,-1,36
 512 259 512 259 525 232 c 128,-1,37
 538 205 538 205 538 169 c 0,0,1
127 484 m 0,38,39
 127 450 127 450 140 425 c 128,-1,40
 153 400 153 400 180 384.5 c 128,-1,41
 207 369 207 369 233.5 360.5 c 128,-1,42
 260 352 260 352 300 344 c 1,43,-1
 300 634 l 1,44,45
 220 631 220 631 173.5 589.5 c 128,-1,46
 127 548 127 548 127 484 c 0,38,39
326 25 m 1,47,48
 407 27 407 27 458 64 c 128,-1,49
 509 101 509 101 509 168 c 0,50,51
 509 203 509 203 495 228 c 128,-1,52
 481 253 481 253 452 268.5 c 128,-1,53
 423 284 423 284 396 292.5 c 128,-1,54
 369 301 369 301 326 310 c 1,55,-1
 326 25 l 1,47,48
EndSplineSet
Substitution2: "'tnum' Tabular Numbers lookup 26 subtable" dollar.tf
Substitution2: "'aalt' Access All Alternates lookup 0 subtable" dollar.tf
EndChar

StartChar: percent
Encoding: 37 37 8
Width: 777
GlyphClass: 2
Flags: W
LayerCount: 2
Fore
SplineSet
183 662 m 0,0,1
 252 662 252 662 288.5 613 c 128,-1,2
 325 564 325 564 325 491 c 0,3,4
 325 419 325 419 288.5 370.5 c 128,-1,5
 252 322 252 322 183 322 c 0,6,7
 113 322 113 322 76 370.5 c 128,-1,8
 39 419 39 419 39 491 c 0,9,10
 39 564 39 564 76 613 c 128,-1,11
 113 662 113 662 183 662 c 0,0,1
152 0 m 1,12,-1
 593 660 l 1,13,-1
 624 660 l 1,14,-1
 183 0 l 1,15,-1
 152 0 l 1,12,-1
183 637 m 0,16,17
 126 637 126 637 96.5 595.5 c 128,-1,18
 67 554 67 554 67 491 c 128,-1,19
 67 428 67 428 96.5 387.5 c 128,-1,20
 126 347 126 347 183 347 c 0,21,22
 239 347 239 347 268 387.5 c 128,-1,23
 297 428 297 428 297 491 c 128,-1,24
 297 554 297 554 268 595.5 c 128,-1,25
 239 637 239 637 183 637 c 0,16,17
595 338 m 128,-1,27
 665 338 665 338 701.5 289 c 128,-1,28
 738 240 738 240 738 167 c 0,29,30
 738 95 738 95 701.5 46.5 c 128,-1,31
 665 -2 665 -2 595 -2 c 0,32,33
 526 -2 526 -2 488.5 46.5 c 128,-1,34
 451 95 451 95 451 167 c 0,35,36
 451 240 451 240 488 289 c 128,-1,26
 525 338 525 338 595 338 c 128,-1,27
595 313 m 0,37,38
 538 313 538 313 508.5 271.5 c 128,-1,39
 479 230 479 230 479 167 c 128,-1,40
 479 104 479 104 508.5 63.5 c 128,-1,41
 538 23 538 23 595 23 c 128,-1,42
 652 23 652 23 681 63.5 c 128,-1,43
 710 104 710 104 710 167 c 128,-1,44
 710 230 710 230 680.5 271.5 c 128,-1,45
 651 313 651 313 595 313 c 0,37,38
EndSplineSet
EndChar

StartChar: ampersand
Encoding: 38 38 9
Width: 583
GlyphClass: 2
Flags: W
LayerCount: 2
Fore
SplineSet
454 101 m 1,0,1
 499 50 499 50 528.5 31.5 c 128,-1,2
 558 13 558 13 590 13 c 1,3,-1
 584 -10 l 1,4,5
 548 -10 548 -10 516 9.5 c 128,-1,6
 484 29 484 29 439 81 c 1,7,8
 365 -10 365 -10 239 -10 c 0,9,10
 155 -10 155 -10 100.5 32 c 128,-1,11
 46 74 46 74 46 144 c 0,12,13
 46 213 46 213 88 259.5 c 128,-1,14
 130 306 130 306 219 357 c 1,15,16
 168 424 168 424 150.5 458.5 c 128,-1,17
 133 493 133 493 133 531 c 0,18,19
 133 591 133 591 172 629 c 128,-1,20
 211 667 211 667 276 667 c 0,21,22
 338 667 338 667 376.5 634.5 c 128,-1,23
 415 602 415 602 415 545 c 0,24,25
 415 489 415 489 382 445 c 128,-1,26
 349 401 349 401 259 350 c 1,27,28
 283 317 283 317 329 258 c 0,29,30
 405 159 405 159 437 122 c 1,31,32
 497 214 497 214 495 364 c 1,33,-1
 521 362 l 1,34,35
 523 202 523 202 454 101 c 1,0,1
276 641 m 0,36,37
 224 641 224 641 193 610.5 c 128,-1,38
 162 580 162 580 162 531 c 0,39,40
 162 497 162 497 176.5 468 c 128,-1,41
 191 439 191 439 243 371 c 1,42,43
 326 417 326 417 356.5 456.5 c 128,-1,44
 387 496 387 496 387 545 c 0,45,46
 387 589 387 589 357 615 c 128,-1,47
 327 641 327 641 276 641 c 0,36,37
236 15 m 0,48,49
 354 15 354 15 421 100 c 1,50,51
 371 160 371 160 310 240 c 0,52,53
 296 258 296 258 271 290 c 128,-1,54
 246 322 246 322 235 337 c 1,55,56
 150 288 150 288 112.5 247 c 128,-1,57
 75 206 75 206 75 145 c 0,58,59
 75 86 75 86 121 50.5 c 128,-1,60
 167 15 167 15 236 15 c 0,48,49
EndSplineSet
Substitution2: "'smcp' Lowercase to Small Capitals lookup 12 subtable" ampersand.sc
Substitution2: "'c2sc' Capitals to Small Capitals lookup 11 subtable" ampersand.sc
Substitution2: "'aalt' Access All Alternates lookup 0 subtable" ampersand.sc
EndChar

StartChar: quotesingle
Encoding: 39 39 10
Width: 168
GlyphClass: 2
Flags: W
LayerCount: 2
Fore
SplineSet
102 682 m 1,0,-1
 96 504 l 1,1,-1
 70 504 l 1,2,-1
 70 682 l 1,3,-1
 102 682 l 1,0,-1
EndSplineSet
Substitution2: "'smcp' Lowercase to Small Capitals lookup 12 subtable" quotesingle.sc
Substitution2: "'c2sc' Capitals to Small Capitals lookup 11 subtable" quotesingle.sc
Substitution2: "'aalt' Access All Alternates lookup 0 subtable" quotesingle.sc
EndChar

StartChar: parenleft
Encoding: 40 40 11
Width: 274
GlyphClass: 2
Flags: W
LayerCount: 2
Fore
SplineSet
245 742 m 1,0,-1
 261 725 l 1,1,2
 169 646 169 646 126.5 539 c 128,-1,3
 84 432 84 432 84 284 c 128,-1,4
 84 136 84 136 126.5 29 c 128,-1,5
 169 -78 169 -78 261 -156 c 1,6,-1
 245 -174 l 1,7,8
 55 -13 55 -13 55 284 c 128,-1,9
 55 581 55 581 245 742 c 1,0,-1
EndSplineSet
Substitution2: "'case' Case-Sensitive Forms lookup 29 subtable" parenleft.case
Substitution2: "'sups' Superscript lookup 15 subtable" uni207D
Substitution2: "'subs' Subscript lookup 14 subtable" uni208D
Substitution2: "'sinf' Scientific Inferiors lookup 13 subtable" uni208D
AlternateSubs2: "'aalt' Access All Alternates lookup 1 subtable" uni208D uni207D parenleft.case
EndChar

StartChar: parenright
Encoding: 41 41 12
Width: 274
GlyphClass: 2
Flags: W
LayerCount: 2
Fore
SplineSet
30 742 m 1,0,1
 219 581 219 581 219 284 c 128,-1,2
 219 -13 219 -13 30 -174 c 1,3,-1
 13 -156 l 1,4,5
 106 -78 106 -78 148 29 c 128,-1,6
 190 136 190 136 190 284 c 128,-1,7
 190 432 190 432 148 539.5 c 128,-1,8
 106 647 106 647 13 725 c 1,9,-1
 30 742 l 1,0,1
EndSplineSet
Substitution2: "'case' Case-Sensitive Forms lookup 29 subtable" parenright.case
Substitution2: "'sups' Superscript lookup 15 subtable" uni207E
Substitution2: "'subs' Subscript lookup 14 subtable" uni208E
Substitution2: "'sinf' Scientific Inferiors lookup 13 subtable" uni208E
AlternateSubs2: "'aalt' Access All Alternates lookup 1 subtable" uni208E uni207E parenright.case
EndChar

StartChar: asterisk
Encoding: 42 42 13
Width: 524
GlyphClass: 2
Flags: W
LayerCount: 2
Fore
SplineSet
277 504 m 1,0,-1
 325 445 l 1,1,-1
 402 338 l 1,2,-1
 381 323 l 1,3,-1
 303 428 l 1,4,-1
 262 493 l 1,5,-1
 220 428 l 1,6,-1
 143 323 l 1,7,-1
 121 338 l 1,8,-1
 198 445 l 1,9,-1
 246 504 l 1,10,-1
 172 524 l 1,11,-1
 48 565 l 1,12,-1
 56 590 l 1,13,-1
 180 550 l 1,14,-1
 252 522 l 1,15,-1
 248 599 l 1,16,-1
 248 730 l 1,17,-1
 275 730 l 1,18,-1
 275 599 l 1,19,-1
 271 523 l 1,20,-1
 343 550 l 1,21,-1
 468 590 l 1,22,-1
 476 565 l 1,23,-1
 351 524 l 1,24,-1
 277 504 l 1,0,-1
EndSplineSet
EndChar

StartChar: plus
Encoding: 43 43 14
Width: 604
GlyphClass: 2
Flags: W
LayerCount: 2
Fore
SplineSet
536 330 m 1,0,-1
 536 302 l 1,1,-1
 317 302 l 1,2,-1
 317 77 l 1,3,-1
 288 77 l 1,4,-1
 288 302 l 1,5,-1
 68 302 l 1,6,-1
 68 330 l 1,7,-1
 288 330 l 1,8,-1
 288 549 l 1,9,-1
 317 549 l 1,10,-1
 317 330 l 1,11,-1
 536 330 l 1,0,-1
EndSplineSet
Substitution2: "'sups' Superscript lookup 15 subtable" uni207A
Substitution2: "'subs' Subscript lookup 14 subtable" uni208A
Substitution2: "'sinf' Scientific Inferiors lookup 13 subtable" uni208A
AlternateSubs2: "'aalt' Access All Alternates lookup 1 subtable" uni208A uni207A
EndChar

StartChar: comma
Encoding: 44 44 15
Width: 302
GlyphClass: 2
Flags: W
LayerCount: 2
Fore
SplineSet
154 57 m 0,0,1
 174 57 174 57 185 41 c 128,-1,2
 196 25 196 25 196 0 c 0,3,4
 196 -35 196 -35 178 -66.5 c 128,-1,5
 160 -98 160 -98 126 -116 c 1,6,-1
 107 -100 l 1,7,8
 139 -87 139 -87 159 -55 c 128,-1,9
 179 -23 179 -23 172 4 c 1,10,-1
 169 5 l 1,11,12
 164 -6 164 -6 150 -6 c 0,13,14
 138 -6 138 -6 129.5 2.5 c 128,-1,15
 121 11 121 11 121 25 c 0,16,17
 121 38 121 38 130.5 47.5 c 128,-1,18
 140 57 140 57 154 57 c 0,0,1
EndSplineSet
Substitution2: "'tnum' Tabular Numbers lookup 26 subtable" comma.tf
Substitution2: "'sups' Superscript lookup 15 subtable" commasuperior
Substitution2: "'subs' Subscript lookup 14 subtable" commainferior
Substitution2: "'sinf' Scientific Inferiors lookup 13 subtable" commainferior
AlternateSubs2: "'aalt' Access All Alternates lookup 1 subtable" commainferior commasuperior comma.tf
EndChar

StartChar: hyphen
Encoding: 45 45 16
Width: 437
GlyphClass: 2
Flags: W
LayerCount: 2
Fore
SplineSet
365 283 m 1,0,-1
 365 253 l 1,1,-1
 73 253 l 1,2,-1
 73 283 l 1,3,-1
 365 283 l 1,0,-1
EndSplineSet
Substitution2: "'case' Case-Sensitive Forms lookup 29 subtable" hyphen.case
Substitution2: "'sups' Superscript lookup 15 subtable" hyphensuperior
Substitution2: "'subs' Subscript lookup 14 subtable" hypheninferior
Substitution2: "'sinf' Scientific Inferiors lookup 13 subtable" hypheninferior
AlternateSubs2: "'aalt' Access All Alternates lookup 1 subtable" hypheninferior hyphensuperior hyphen.case
EndChar

StartChar: period
Encoding: 46 46 17
Width: 302
GlyphClass: 2
Flags: W
LayerCount: 2
Fore
SplineSet
151 57 m 128,-1,1
 165 57 165 57 173.5 48 c 128,-1,2
 182 39 182 39 182 25 c 128,-1,3
 182 11 182 11 173.5 2.5 c 128,-1,4
 165 -6 165 -6 151 -6 c 128,-1,5
 137 -6 137 -6 128.5 2.5 c 128,-1,6
 120 11 120 11 120 25 c 128,-1,7
 120 39 120 39 128.5 48 c 128,-1,0
 137 57 137 57 151 57 c 128,-1,1
EndSplineSet
Substitution2: "'tnum' Tabular Numbers lookup 26 subtable" period.tf
Substitution2: "'sups' Superscript lookup 15 subtable" periodsuperior
Substitution2: "'subs' Subscript lookup 14 subtable" periodinferior
Substitution2: "'sinf' Scientific Inferiors lookup 13 subtable" periodinferior
AlternateSubs2: "'aalt' Access All Alternates lookup 1 subtable" periodinferior periodsuperior period.tf
EndChar

StartChar: slash
Encoding: 47 47 18
Width: 368
GlyphClass: 2
Flags: W
LayerCount: 2
Fore
SplineSet
334 730 m 1,0,-1
 63 -70 l 1,1,-1
 33 -70 l 1,2,-1
 304 730 l 1,3,-1
 334 730 l 1,0,-1
EndSplineSet
Substitution2: "'frac' Diagonal Fractions lookup 18 subtable" fraction
Substitution2: "'aalt' Access All Alternates lookup 0 subtable" fraction
EndChar

StartChar: zero
Encoding: 48 48 19
Width: 604
GlyphClass: 2
Flags: W
LayerCount: 2
Fore
SplineSet
302 -10 m 128,-1,1
 187 -10 187 -10 126 78 c 128,-1,2
 65 166 65 166 65 330 c 128,-1,3
 65 494 65 494 126 582 c 128,-1,4
 187 670 187 670 302 670 c 128,-1,5
 417 670 417 670 478 582 c 128,-1,6
 539 494 539 494 539 330 c 128,-1,7
 539 166 539 166 478 78 c 128,-1,0
 417 -10 417 -10 302 -10 c 128,-1,1
302 17 m 128,-1,9
 402 17 402 17 455.5 97.5 c 128,-1,10
 509 178 509 178 509 330 c 128,-1,11
 509 482 509 482 455.5 562.5 c 128,-1,12
 402 643 402 643 302 643 c 128,-1,13
 202 643 202 643 148.5 562.5 c 128,-1,14
 95 482 95 482 95 330 c 128,-1,15
 95 178 95 178 148.5 97.5 c 128,-1,8
 202 17 202 17 302 17 c 128,-1,9
EndSplineSet
Substitution2: "'zero' Slashed Zero lookup 28 subtable" zero.zero
Substitution2: "'onum' Oldstyle Figures lookup 27 subtable" zero.osf
Substitution2: "'tnum' Tabular Numbers lookup 26 subtable" zero.tf
Substitution2: "'frac' Diagonal Fractions lookup 19 subtable" zero.numr
Substitution2: "'dnom' Denominators lookup 17 subtable" zero.dnom
Substitution2: "'numr' Numerators lookup 16 subtable" zero.numr
Substitution2: "'sups' Superscript lookup 15 subtable" uni2070
Substitution2: "'subs' Subscript lookup 14 subtable" uni2080
Substitution2: "'sinf' Scientific Inferiors lookup 13 subtable" uni2080
Substitution2: "'smcp' Lowercase to Small Capitals lookup 12 subtable" zero.sc
Substitution2: "'c2sc' Capitals to Small Capitals lookup 11 subtable" zero.sc
AlternateSubs2: "'aalt' Access All Alternates lookup 1 subtable" zero.sc uni2080 uni2070 zero.numr zero.dnom zero.tf zero.osf zero.zero
EndChar

StartChar: one
Encoding: 49 49 20
Width: 604
GlyphClass: 2
Flags: W
LayerCount: 2
Fore
SplineSet
353 27 m 1,0,-1
 543 27 l 1,1,-1
 543 0 l 1,2,-1
 110 0 l 1,3,-1
 110 27 l 1,4,-1
 323 27 l 1,5,-1
 323 550 l 1,6,-1
 323 617 l 1,7,8
 288 574 288 574 226.5 537 c 128,-1,9
 165 500 165 500 109 481 c 1,10,-1
 101 509 l 1,11,12
 161 529 161 529 231 572 c 128,-1,13
 301 615 301 615 325 660 c 1,14,-1
 353 660 l 1,15,-1
 353 27 l 1,0,-1
EndSplineSet
Substitution2: "'onum' Oldstyle Figures lookup 27 subtable" one.osf
Substitution2: "'tnum' Tabular Numbers lookup 26 subtable" one.tf
Substitution2: "'nalt' Alternate Annotation Forms lookup 23 subtable" uni2780
Substitution2: "'frac' Diagonal Fractions lookup 19 subtable" one.numr
Substitution2: "'dnom' Denominators lookup 17 subtable" one.dnom
Substitution2: "'numr' Numerators lookup 16 subtable" one.numr
Substitution2: "'sups' Superscript lookup 15 subtable" uni00B9
Substitution2: "'subs' Subscript lookup 14 subtable" uni2081
Substitution2: "'sinf' Scientific Inferiors lookup 13 subtable" uni2081
Substitution2: "'smcp' Lowercase to Small Capitals lookup 12 subtable" one.sc
Substitution2: "'c2sc' Capitals to Small Capitals lookup 11 subtable" one.sc
AlternateSubs2: "'aalt' Access All Alternates lookup 1 subtable" one.sc uni2081 uni00B9 one.numr one.dnom uni2780 one.tf one.osf
EndChar

StartChar: two
Encoding: 50 50 21
Width: 604
GlyphClass: 2
Flags: W
LayerCount: 2
Fore
SplineSet
98 0 m 1,0,-1
 98 25 l 1,1,2
 174 87 174 87 212 118.5 c 128,-1,3
 250 150 250 150 303.5 197.5 c 128,-1,4
 357 245 357 245 382 273.5 c 128,-1,5
 407 302 407 302 434 339 c 128,-1,6
 461 376 461 376 471 407.5 c 128,-1,7
 481 439 481 439 481 472 c 0,8,9
 481 551 481 551 433.5 597 c 128,-1,10
 386 643 386 643 304 643 c 0,11,12
 221 643 221 643 170.5 591.5 c 128,-1,13
 120 540 120 540 115 452 c 1,14,-1
 88 466 l 1,15,16
 94 559 94 559 151.5 614.5 c 128,-1,17
 209 670 209 670 305 670 c 0,18,19
 400 670 400 670 455.5 617 c 128,-1,20
 511 564 511 564 511 472 c 0,21,22
 511 375 511 375 429 282.5 c 128,-1,23
 347 190 347 190 144 28 c 1,24,-1
 144 27 l 1,25,-1
 187 27 l 1,26,-1
 537 27 l 1,27,-1
 537 0 l 1,28,-1
 98 0 l 1,0,-1
EndSplineSet
Substitution2: "'onum' Oldstyle Figures lookup 27 subtable" two.osf
Substitution2: "'tnum' Tabular Numbers lookup 26 subtable" two.tf
Substitution2: "'nalt' Alternate Annotation Forms lookup 23 subtable" uni2781
Substitution2: "'frac' Diagonal Fractions lookup 19 subtable" two.numr
Substitution2: "'dnom' Denominators lookup 17 subtable" two.dnom
Substitution2: "'numr' Numerators lookup 16 subtable" two.numr
Substitution2: "'sups' Superscript lookup 15 subtable" uni00B2
Substitution2: "'subs' Subscript lookup 14 subtable" uni2082
Substitution2: "'sinf' Scientific Inferiors lookup 13 subtable" uni2082
Substitution2: "'smcp' Lowercase to Small Capitals lookup 12 subtable" two.sc
Substitution2: "'c2sc' Capitals to Small Capitals lookup 11 subtable" two.sc
AlternateSubs2: "'aalt' Access All Alternates lookup 1 subtable" two.sc uni2082 uni00B2 two.numr two.dnom uni2781 two.tf two.osf
EndChar

StartChar: three
Encoding: 51 51 22
Width: 604
GlyphClass: 2
Flags: W
LayerCount: 2
Fore
SplineSet
300 670 m 0,0,1
 391 670 391 670 442 623.5 c 128,-1,2
 493 577 493 577 493 498 c 0,3,4
 493 433 493 433 458.5 387 c 128,-1,5
 424 341 424 341 366 333 c 1,6,-1
 366 332 l 1,7,8
 428 329 428 329 468.5 282 c 128,-1,9
 509 235 509 235 509 173 c 0,10,11
 509 91 509 91 450 40.5 c 128,-1,12
 391 -10 391 -10 301 -10 c 0,13,14
 213 -10 213 -10 155.5 30.5 c 128,-1,15
 98 71 98 71 78 143 c 1,16,-1
 106 159 l 1,17,18
 121 92 121 92 171 54.5 c 128,-1,19
 221 17 221 17 303 17 c 0,20,21
 380 17 380 17 429.5 60.5 c 128,-1,22
 479 104 479 104 479 177 c 0,23,24
 478 239 478 239 434.5 279 c 128,-1,25
 391 319 391 319 313 319 c 2,26,-1
 269 319 l 1,27,-1
 269 347 l 1,28,-1
 313 347 l 2,29,30
 384 347 384 347 423 388 c 128,-1,31
 462 429 462 429 462 494 c 0,32,33
 462 564 462 564 419.5 603.5 c 128,-1,34
 377 643 377 643 300 643 c 0,35,36
 237 643 237 643 193 610 c 128,-1,37
 149 577 149 577 132 519 c 1,38,-1
 103 534 l 1,39,40
 126 597 126 597 178 633.5 c 128,-1,41
 230 670 230 670 300 670 c 0,0,1
EndSplineSet
Substitution2: "'onum' Oldstyle Figures lookup 27 subtable" three.osf
Substitution2: "'tnum' Tabular Numbers lookup 26 subtable" three.tf
Substitution2: "'nalt' Alternate Annotation Forms lookup 23 subtable" uni2782
Substitution2: "'frac' Diagonal Fractions lookup 19 subtable" three.numr
Substitution2: "'dnom' Denominators lookup 17 subtable" three.dnom
Substitution2: "'numr' Numerators lookup 16 subtable" three.numr
Substitution2: "'sups' Superscript lookup 15 subtable" uni00B3
Substitution2: "'subs' Subscript lookup 14 subtable" uni2083
Substitution2: "'sinf' Scientific Inferiors lookup 13 subtable" uni2083
Substitution2: "'smcp' Lowercase to Small Capitals lookup 12 subtable" three.sc
Substitution2: "'c2sc' Capitals to Small Capitals lookup 11 subtable" three.sc
AlternateSubs2: "'aalt' Access All Alternates lookup 1 subtable" three.sc uni2083 uni00B3 three.numr three.dnom uni2782 three.tf three.osf
EndChar

StartChar: four
Encoding: 52 52 23
Width: 604
GlyphClass: 2
Flags: W
LayerCount: 2
Fore
SplineSet
381 0 m 1,0,-1
 381 198 l 1,1,-1
 54 198 l 1,2,-1
 54 222 l 1,3,-1
 370 660 l 1,4,-1
 411 660 l 1,5,-1
 411 224 l 1,6,-1
 556 224 l 1,7,-1
 556 198 l 1,8,-1
 411 198 l 1,9,-1
 411 0 l 1,10,-1
 381 0 l 1,0,-1
86 224 m 1,11,-1
 381 224 l 1,12,-1
 381 502 l 2,13,14
 381 589 381 589 382 633 c 1,15,-1
 381 633 l 1,16,17
 358 597 358 597 325 552 c 2,18,-1
 86 224 l 1,11,-1
EndSplineSet
Substitution2: "'onum' Oldstyle Figures lookup 27 subtable" four.osf
Substitution2: "'tnum' Tabular Numbers lookup 26 subtable" four.tf
Substitution2: "'nalt' Alternate Annotation Forms lookup 23 subtable" uni2783
Substitution2: "'frac' Diagonal Fractions lookup 19 subtable" four.numr
Substitution2: "'dnom' Denominators lookup 17 subtable" four.dnom
Substitution2: "'numr' Numerators lookup 16 subtable" four.numr
Substitution2: "'sups' Superscript lookup 15 subtable" uni2074
Substitution2: "'subs' Subscript lookup 14 subtable" uni2084
Substitution2: "'sinf' Scientific Inferiors lookup 13 subtable" uni2084
Substitution2: "'smcp' Lowercase to Small Capitals lookup 12 subtable" four.sc
Substitution2: "'c2sc' Capitals to Small Capitals lookup 11 subtable" four.sc
AlternateSubs2: "'aalt' Access All Alternates lookup 1 subtable" four.sc uni2084 uni2074 four.numr four.dnom uni2783 four.tf four.osf
EndChar

StartChar: five
Encoding: 53 53 24
Width: 604
GlyphClass: 2
Flags: W
LayerCount: 2
Fore
SplineSet
322 405 m 0,0,1
 414 405 414 405 471.5 348 c 128,-1,2
 529 291 529 291 529 199 c 0,3,4
 529 106 529 106 469.5 48 c 128,-1,5
 410 -10 410 -10 315 -10 c 0,6,7
 125 -10 125 -10 89 147 c 1,8,-1
 117 161 l 1,9,10
 142 17 142 17 314 17 c 0,11,12
 396 17 396 17 447 67.5 c 128,-1,13
 498 118 498 118 498 198 c 0,14,15
 498 279 498 279 448.5 328.5 c 128,-1,16
 399 378 399 378 319 378 c 0,17,18
 195 378 195 378 135 297 c 1,19,-1
 109 297 l 1,20,-1
 141 660 l 1,21,-1
 503 660 l 1,22,-1
 503 633 l 1,23,-1
 166 633 l 1,24,-1
 140 346 l 1,25,-1
 138 329 l 1,26,-1
 139 329 l 1,27,28
 198 405 198 405 322 405 c 0,0,1
EndSplineSet
Substitution2: "'onum' Oldstyle Figures lookup 27 subtable" five.osf
Substitution2: "'tnum' Tabular Numbers lookup 26 subtable" five.tf
Substitution2: "'nalt' Alternate Annotation Forms lookup 23 subtable" uni2784
Substitution2: "'frac' Diagonal Fractions lookup 19 subtable" five.numr
Substitution2: "'dnom' Denominators lookup 17 subtable" five.dnom
Substitution2: "'numr' Numerators lookup 16 subtable" five.numr
Substitution2: "'sups' Superscript lookup 15 subtable" uni2075
Substitution2: "'subs' Subscript lookup 14 subtable" uni2085
Substitution2: "'sinf' Scientific Inferiors lookup 13 subtable" uni2085
Substitution2: "'smcp' Lowercase to Small Capitals lookup 12 subtable" five.sc
Substitution2: "'c2sc' Capitals to Small Capitals lookup 11 subtable" five.sc
AlternateSubs2: "'aalt' Access All Alternates lookup 1 subtable" five.sc uni2085 uni2075 five.numr five.dnom uni2784 five.tf five.osf
EndChar

StartChar: six
Encoding: 54 54 25
Width: 604
GlyphClass: 2
Flags: W
LayerCount: 2
Fore
SplineSet
347 670 m 0,0,1
 485 670 485 670 532 546 c 1,2,-1
 504 533 l 1,3,4
 469 643 469 643 346 643 c 0,5,6
 287 643 287 643 242 615.5 c 128,-1,7
 197 588 197 588 171 541.5 c 128,-1,8
 145 495 145 495 132 438 c 128,-1,9
 119 381 119 381 119 317 c 0,10,11
 119 287 119 287 127 217 c 1,12,-1
 130 217 l 1,13,14
 134 301 134 301 194.5 350.5 c 128,-1,15
 255 400 255 400 335 400 c 0,16,17
 433 400 433 400 490 344 c 128,-1,18
 547 288 547 288 547 195 c 0,19,20
 547 101 547 101 488.5 45.5 c 128,-1,21
 430 -10 430 -10 331 -10 c 0,22,23
 213 -10 213 -10 152 78 c 128,-1,24
 91 166 91 166 91 330 c 128,-1,25
 91 494 91 494 162 582 c 128,-1,26
 233 670 233 670 347 670 c 0,0,1
334 372 m 0,27,28
 252 372 252 372 199.5 318.5 c 128,-1,29
 147 265 147 265 147 196 c 0,30,31
 147 119 147 119 198 68.5 c 128,-1,32
 249 18 249 18 330 18 c 0,33,34
 416 18 416 18 466 66.5 c 128,-1,35
 516 115 516 115 516 196 c 0,36,37
 516 275 516 275 466.5 323.5 c 128,-1,38
 417 372 417 372 334 372 c 0,27,28
EndSplineSet
Substitution2: "'onum' Oldstyle Figures lookup 27 subtable" six.osf
Substitution2: "'tnum' Tabular Numbers lookup 26 subtable" six.tf
Substitution2: "'nalt' Alternate Annotation Forms lookup 23 subtable" uni2785
Substitution2: "'frac' Diagonal Fractions lookup 19 subtable" six.numr
Substitution2: "'dnom' Denominators lookup 17 subtable" six.dnom
Substitution2: "'numr' Numerators lookup 16 subtable" six.numr
Substitution2: "'sups' Superscript lookup 15 subtable" uni2076
Substitution2: "'subs' Subscript lookup 14 subtable" uni2086
Substitution2: "'sinf' Scientific Inferiors lookup 13 subtable" uni2086
Substitution2: "'smcp' Lowercase to Small Capitals lookup 12 subtable" six.sc
Substitution2: "'c2sc' Capitals to Small Capitals lookup 11 subtable" six.sc
AlternateSubs2: "'aalt' Access All Alternates lookup 1 subtable" six.sc uni2086 uni2076 six.numr six.dnom uni2785 six.tf six.osf
EndChar

StartChar: seven
Encoding: 55 55 26
Width: 604
GlyphClass: 2
Flags: W
LayerCount: 2
Fore
SplineSet
59 660 m 1,0,-1
 572 660 l 1,1,-1
 572 633 l 1,2,3
 304 373 304 373 287 0 c 1,4,-1
 256 0 l 1,5,6
 273 373 273 373 537 633 c 1,7,-1
 59 633 l 1,8,-1
 59 660 l 1,0,-1
EndSplineSet
Substitution2: "'onum' Oldstyle Figures lookup 27 subtable" seven.osf
Substitution2: "'tnum' Tabular Numbers lookup 26 subtable" seven.tf
Substitution2: "'nalt' Alternate Annotation Forms lookup 23 subtable" uni2786
Substitution2: "'frac' Diagonal Fractions lookup 19 subtable" seven.numr
Substitution2: "'dnom' Denominators lookup 17 subtable" seven.dnom
Substitution2: "'numr' Numerators lookup 16 subtable" seven.numr
Substitution2: "'sups' Superscript lookup 15 subtable" uni2077
Substitution2: "'subs' Subscript lookup 14 subtable" uni2087
Substitution2: "'sinf' Scientific Inferiors lookup 13 subtable" uni2087
Substitution2: "'smcp' Lowercase to Small Capitals lookup 12 subtable" seven.sc
Substitution2: "'c2sc' Capitals to Small Capitals lookup 11 subtable" seven.sc
AlternateSubs2: "'aalt' Access All Alternates lookup 1 subtable" seven.sc uni2087 uni2077 seven.numr seven.dnom uni2786 seven.tf seven.osf
EndChar

StartChar: eight
Encoding: 56 56 27
Width: 604
GlyphClass: 2
Flags: W
LayerCount: 2
Fore
SplineSet
302 670 m 128,-1,1
 391 670 391 670 444 625 c 128,-1,2
 497 580 497 580 497 505 c 0,3,4
 497 446 497 446 463 404.5 c 128,-1,5
 429 363 429 363 370 348 c 1,6,-1
 370 347 l 1,7,8
 441 332 441 332 483 284.5 c 128,-1,9
 525 237 525 237 525 171 c 0,10,11
 525 91 525 91 463 40.5 c 128,-1,12
 401 -10 401 -10 302 -10 c 128,-1,13
 203 -10 203 -10 140.5 40.5 c 128,-1,14
 78 91 78 91 78 171 c 0,15,16
 78 238 78 238 121 285.5 c 128,-1,17
 164 333 164 333 235 347 c 1,18,-1
 235 348 l 1,19,20
 175 363 175 363 141 404 c 128,-1,21
 107 445 107 445 107 505 c 0,22,23
 107 580 107 580 160 625 c 128,-1,0
 213 670 213 670 302 670 c 128,-1,1
302 642 m 128,-1,25
 227 642 227 642 182 605 c 128,-1,26
 137 568 137 568 137 504 c 128,-1,27
 137 440 137 440 182.5 400.5 c 128,-1,28
 228 361 228 361 302 361 c 128,-1,29
 376 361 376 361 421 400 c 128,-1,30
 466 439 466 439 466 504 c 0,31,32
 466 567 466 567 421.5 604.5 c 128,-1,24
 377 642 377 642 302 642 c 128,-1,25
302 17 m 0,33,34
 387 17 387 17 440.5 60.5 c 128,-1,35
 494 104 494 104 494 173 c 0,36,37
 494 244 494 244 440.5 288 c 128,-1,38
 387 332 387 332 302 332 c 0,39,40
 216 332 216 332 162.5 287.5 c 128,-1,41
 109 243 109 243 109 173 c 0,42,43
 109 104 109 104 162.5 60.5 c 128,-1,44
 216 17 216 17 302 17 c 0,33,34
EndSplineSet
Substitution2: "'onum' Oldstyle Figures lookup 27 subtable" eight.osf
Substitution2: "'tnum' Tabular Numbers lookup 26 subtable" eight.tf
Substitution2: "'nalt' Alternate Annotation Forms lookup 23 subtable" uni2787
Substitution2: "'frac' Diagonal Fractions lookup 19 subtable" eight.numr
Substitution2: "'dnom' Denominators lookup 17 subtable" eight.dnom
Substitution2: "'numr' Numerators lookup 16 subtable" eight.numr
Substitution2: "'sups' Superscript lookup 15 subtable" uni2078
Substitution2: "'subs' Subscript lookup 14 subtable" uni2088
Substitution2: "'sinf' Scientific Inferiors lookup 13 subtable" uni2088
Substitution2: "'smcp' Lowercase to Small Capitals lookup 12 subtable" eight.sc
Substitution2: "'c2sc' Capitals to Small Capitals lookup 11 subtable" eight.sc
AlternateSubs2: "'aalt' Access All Alternates lookup 1 subtable" eight.sc uni2088 uni2078 eight.numr eight.dnom uni2787 eight.tf eight.osf
EndChar

StartChar: nine
Encoding: 57 57 28
Width: 604
GlyphClass: 2
Flags: W
LayerCount: 2
Fore
SplineSet
290 670 m 0,0,1
 405 670 405 670 467.5 580.5 c 128,-1,2
 530 491 530 491 530 330 c 0,3,4
 530 165 530 165 465.5 77.5 c 128,-1,5
 401 -10 401 -10 291 -10 c 0,6,7
 208 -10 208 -10 151.5 28.5 c 128,-1,8
 95 67 95 67 78 132 c 1,9,-1
 108 148 l 1,10,11
 120 87 120 87 166.5 52 c 128,-1,12
 213 17 213 17 291 17 c 0,13,14
 349 17 349 17 391 43.5 c 128,-1,15
 433 70 433 70 456.5 117 c 128,-1,16
 480 164 480 164 491 219 c 128,-1,17
 502 274 502 274 502 339 c 0,18,19
 502 388 502 388 493 447 c 1,20,-1
 490 447 l 1,21,22
 490 361 490 361 428 310.5 c 128,-1,23
 366 260 366 260 287 260 c 0,24,25
 189 260 189 260 131 316 c 128,-1,26
 73 372 73 372 73 465 c 0,27,28
 73 559 73 559 132 614.5 c 128,-1,29
 191 670 191 670 290 670 c 0,0,1
291 642 m 0,30,31
 205 642 205 642 154.5 593.5 c 128,-1,32
 104 545 104 545 104 464 c 0,33,34
 104 384 104 384 154 336 c 128,-1,35
 204 288 204 288 288 288 c 0,36,37
 367 288 367 288 420.5 341.5 c 128,-1,38
 474 395 474 395 474 464 c 0,39,40
 474 541 474 541 423 591.5 c 128,-1,41
 372 642 372 642 291 642 c 0,30,31
EndSplineSet
Substitution2: "'onum' Oldstyle Figures lookup 27 subtable" nine.osf
Substitution2: "'tnum' Tabular Numbers lookup 26 subtable" nine.tf
Substitution2: "'nalt' Alternate Annotation Forms lookup 23 subtable" uni2788
Substitution2: "'frac' Diagonal Fractions lookup 19 subtable" nine.numr
Substitution2: "'dnom' Denominators lookup 17 subtable" nine.dnom
Substitution2: "'numr' Numerators lookup 16 subtable" nine.numr
Substitution2: "'sups' Superscript lookup 15 subtable" uni2079
Substitution2: "'subs' Subscript lookup 14 subtable" uni2089
Substitution2: "'sinf' Scientific Inferiors lookup 13 subtable" uni2089
Substitution2: "'smcp' Lowercase to Small Capitals lookup 12 subtable" nine.sc
Substitution2: "'c2sc' Capitals to Small Capitals lookup 11 subtable" nine.sc
AlternateSubs2: "'aalt' Access All Alternates lookup 1 subtable" nine.sc uni2089 uni2079 nine.numr nine.dnom uni2788 nine.tf nine.osf
EndChar

StartChar: colon
Encoding: 58 58 29
Width: 302
GlyphClass: 2
Flags: W
LayerCount: 2
Fore
SplineSet
151 502 m 128,-1,1
 165 502 165 502 173.5 493.5 c 128,-1,2
 182 485 182 485 182 471 c 128,-1,3
 182 457 182 457 173.5 448 c 128,-1,4
 165 439 165 439 151 439 c 128,-1,5
 137 439 137 439 128.5 448 c 128,-1,6
 120 457 120 457 120 471 c 128,-1,7
 120 485 120 485 128.5 493.5 c 128,-1,0
 137 502 137 502 151 502 c 128,-1,1
151 57 m 128,-1,9
 165 57 165 57 173.5 48 c 128,-1,10
 182 39 182 39 182 25 c 128,-1,11
 182 11 182 11 173.5 2.5 c 128,-1,12
 165 -6 165 -6 151 -6 c 128,-1,13
 137 -6 137 -6 128.5 2.5 c 128,-1,14
 120 11 120 11 120 25 c 128,-1,15
 120 39 120 39 128.5 48 c 128,-1,8
 137 57 137 57 151 57 c 128,-1,9
EndSplineSet
Substitution2: "'tnum' Tabular Numbers lookup 26 subtable" colon.tf
Substitution2: "'sups' Superscript lookup 15 subtable" colonsuperior
Substitution2: "'subs' Subscript lookup 14 subtable" coloninferior
Substitution2: "'sinf' Scientific Inferiors lookup 13 subtable" coloninferior
AlternateSubs2: "'aalt' Access All Alternates lookup 1 subtable" coloninferior colonsuperior colon.tf
EndChar

StartChar: semicolon
Encoding: 59 59 30
Width: 302
GlyphClass: 2
Flags: W
LayerCount: 2
Fore
SplineSet
157 439 m 128,-1,1
 143 439 143 439 134 448 c 128,-1,2
 125 457 125 457 125 471 c 128,-1,3
 125 485 125 485 134 493.5 c 128,-1,4
 143 502 143 502 157 502 c 0,5,6
 170 502 170 502 179 493 c 128,-1,7
 188 484 188 484 188 471 c 0,8,9
 188 457 188 457 179.5 448 c 128,-1,0
 171 439 171 439 157 439 c 128,-1,1
154 57 m 0,10,11
 174 57 174 57 185 41 c 128,-1,12
 196 25 196 25 196 0 c 0,13,14
 196 -35 196 -35 178 -66.5 c 128,-1,15
 160 -98 160 -98 126 -116 c 1,16,-1
 107 -100 l 1,17,18
 139 -87 139 -87 159 -55 c 128,-1,19
 179 -23 179 -23 172 4 c 1,20,-1
 169 5 l 1,21,22
 164 -6 164 -6 150 -6 c 0,23,24
 138 -6 138 -6 129.5 2.5 c 128,-1,25
 121 11 121 11 121 25 c 0,26,27
 121 38 121 38 130.5 47.5 c 128,-1,28
 140 57 140 57 154 57 c 0,10,11
EndSplineSet
Substitution2: "'tnum' Tabular Numbers lookup 26 subtable" semicolon.tf
Substitution2: "'aalt' Access All Alternates lookup 0 subtable" semicolon.tf
EndChar

StartChar: less
Encoding: 60 60 31
Width: 604
GlyphClass: 2
Flags: W
LayerCount: 2
Fore
SplineSet
536 548 m 1,0,-1
 536 515 l 1,1,-1
 111 300 l 1,2,-1
 536 84 l 1,3,-1
 536 51 l 1,4,-1
 87 282 l 1,5,-1
 87 317 l 1,6,-1
 536 548 l 1,0,-1
EndSplineSet
EndChar

StartChar: equal
Encoding: 61 61 32
Width: 604
GlyphClass: 2
Flags: W
LayerCount: 2
Fore
SplineSet
522 426 m 1,0,-1
 522 399 l 1,1,-1
 82 399 l 1,2,-1
 82 426 l 1,3,-1
 522 426 l 1,0,-1
522 223 m 1,4,-1
 522 196 l 1,5,-1
 82 196 l 1,6,-1
 82 223 l 1,7,-1
 522 223 l 1,4,-1
EndSplineSet
Substitution2: "'sups' Superscript lookup 15 subtable" uni207C
Substitution2: "'subs' Subscript lookup 14 subtable" uni208C
Substitution2: "'sinf' Scientific Inferiors lookup 13 subtable" uni208C
AlternateSubs2: "'aalt' Access All Alternates lookup 1 subtable" uni208C uni207C
EndChar

StartChar: greater
Encoding: 62 62 33
Width: 604
GlyphClass: 2
Flags: W
LayerCount: 2
Fore
SplineSet
68 548 m 1,0,-1
 517 317 l 1,1,-1
 517 282 l 1,2,-1
 68 51 l 1,3,-1
 68 84 l 1,4,-1
 492 300 l 1,5,-1
 68 515 l 1,6,-1
 68 548 l 1,0,-1
EndSplineSet
EndChar

StartChar: question
Encoding: 63 63 34
Width: 488
GlyphClass: 2
Flags: W
LayerCount: 2
Fore
SplineSet
249 670 m 0,0,1
 337 670 337 670 391 624.5 c 128,-1,2
 445 579 445 579 445 501 c 0,3,4
 445 417 445 417 397 365.5 c 128,-1,5
 349 314 349 314 249 288 c 1,6,-1
 249 163 l 1,7,-1
 219 163 l 1,8,-1
 219 305 l 1,9,10
 327 335 327 335 370.5 378.5 c 128,-1,11
 414 422 414 422 414 499 c 0,12,13
 414 565 414 565 368.5 604 c 128,-1,14
 323 643 323 643 247 643 c 0,15,16
 81 643 81 643 58 487 c 1,17,-1
 32 501 l 1,18,19
 61 670 61 670 249 670 c 0,0,1
234 57 m 128,-1,21
 248 57 248 57 256.5 48 c 128,-1,22
 265 39 265 39 265 25 c 0,23,24
 265 12 265 12 256.5 3 c 128,-1,25
 248 -6 248 -6 234 -6 c 128,-1,26
 220 -6 220 -6 211 2.5 c 128,-1,27
 202 11 202 11 202 25 c 128,-1,28
 202 39 202 39 211 48 c 128,-1,20
 220 57 220 57 234 57 c 128,-1,21
EndSplineSet
Substitution2: "'smcp' Lowercase to Small Capitals lookup 12 subtable" question.sc
Substitution2: "'c2sc' Capitals to Small Capitals lookup 11 subtable" question.sc
Substitution2: "'aalt' Access All Alternates lookup 0 subtable" question.sc
EndChar

StartChar: at
Encoding: 64 64 35
Width: 953
GlyphClass: 2
Flags: W
LayerCount: 2
Fore
SplineSet
483 668 m 0,0,1
 569 668 569 668 639 645 c 128,-1,2
 709 622 709 622 755.5 582.5 c 128,-1,3
 802 543 802 543 833.5 489 c 128,-1,4
 865 435 865 435 878.5 375 c 128,-1,5
 892 315 892 315 892 248 c 0,6,7
 892 127 892 127 855.5 59 c 128,-1,8
 819 -9 819 -9 754 -9 c 0,9,10
 703 -9 703 -9 679 25 c 128,-1,11
 655 59 655 59 653 128 c 1,12,13
 632 64 632 64 583 28 c 128,-1,14
 534 -8 534 -8 464 -8 c 0,15,16
 369 -8 369 -8 311 56.5 c 128,-1,17
 253 121 253 121 253 228 c 0,18,19
 253 340 253 340 315 406.5 c 128,-1,20
 377 473 377 473 477 473 c 0,21,22
 548 473 548 473 595 438 c 128,-1,23
 642 403 642 403 660 341 c 1,24,-1
 664 457 l 1,25,-1
 686 457 l 1,26,-1
 678 136 l 2,27,28
 676 14 676 14 759 14 c 0,29,30
 810 14 810 14 838 75.5 c 128,-1,31
 866 137 866 137 866 248 c 0,32,33
 866 329 866 329 844.5 398 c 128,-1,34
 823 467 823 467 779 523 c 128,-1,35
 735 579 735 579 659.5 611.5 c 128,-1,36
 584 644 584 644 483 644 c 0,37,38
 301 644 301 644 192.5 532 c 128,-1,39
 84 420 84 420 84 232 c 0,40,41
 84 46 84 46 195 -61 c 128,-1,42
 306 -168 306 -168 489 -168 c 0,43,44
 556 -168 556 -168 618 -147.5 c 128,-1,45
 680 -127 680 -127 720 -91 c 1,46,-1
 735 -112 l 1,47,48
 635 -192 635 -192 489 -192 c 0,49,50
 293 -192 293 -192 175 -78.5 c 128,-1,51
 57 35 57 35 57 232 c 0,52,53
 57 431 57 431 173 549.5 c 128,-1,54
 289 668 289 668 483 668 c 0,0,1
479 449 m 0,55,56
 389 449 389 449 335 389 c 128,-1,57
 281 329 281 329 281 229 c 0,58,59
 281 131 281 131 332 73.5 c 128,-1,60
 383 16 383 16 469 16 c 0,61,62
 550 16 550 16 601 72.5 c 128,-1,63
 652 129 652 129 654 218 c 2,64,-1
 655 252 l 2,65,66
 657 337 657 337 610 393 c 128,-1,67
 563 449 563 449 479 449 c 0,55,56
EndSplineSet
Substitution2: "'case' Case-Sensitive Forms lookup 29 subtable" at.case
Substitution2: "'aalt' Access All Alternates lookup 0 subtable" at.case
EndChar

StartChar: A
Encoding: 65 65 36
Width: 602
GlyphClass: 2
Flags: W
LayerCount: 2
Fore
SplineSet
555 0 m 1,0,-1
 464 223 l 1,1,-1
 138 223 l 1,2,-1
 47 0 l 1,3,-1
 15 0 l 1,4,-1
 284 660 l 1,5,-1
 319 660 l 1,6,-1
 587 0 l 1,7,-1
 555 0 l 1,0,-1
149 250 m 1,8,-1
 453 250 l 1,9,-1
 321 573 l 1,10,-1
 301 629 l 1,11,-1
 281 575 l 1,12,-1
 149 250 l 1,8,-1
EndSplineSet
Substitution2: "Single Substitution lookup 56 subtable" A.swsh
Substitution2: "Single Substitution lookup 55 subtable" ordfeminine
Substitution2: "'swsh' Swash lookup 32 subtable" A.swsh
Substitution2: "'c2sc' Capitals to Small Capitals lookup 11 subtable" a.sc
AlternateSubs2: "'aalt' Access All Alternates lookup 1 subtable" a.sc ordfeminine A.swsh
EndChar

StartChar: B
Encoding: 66 66 37
Width: 619
GlyphClass: 2
Flags: W
LayerCount: 2
Fore
SplineSet
101 0 m 1,0,-1
 101 660 l 1,1,-1
 334 660 l 2,2,3
 541 660 541 660 541 490 c 0,4,5
 541 361 541 361 413 334 c 1,6,-1
 413 333 l 1,7,8
 482 323 482 323 520.5 281.5 c 128,-1,9
 559 240 559 240 559 173 c 0,10,11
 559 89 559 89 501.5 44.5 c 128,-1,12
 444 0 444 0 333 0 c 2,13,-1
 101 0 l 1,0,-1
131 347 m 1,14,-1
 334 347 l 2,15,16
 510 347 510 347 510 489 c 0,17,18
 510 633 510 633 334 633 c 2,19,-1
 131 633 l 1,20,-1
 131 347 l 1,14,-1
131 27 m 1,21,-1
 338 27 l 2,22,23
 528 27 528 27 528 173 c 128,-1,24
 528 319 528 319 338 319 c 2,25,-1
 131 319 l 1,26,-1
 131 27 l 1,21,-1
EndSplineSet
Substitution2: "'c2sc' Capitals to Small Capitals lookup 11 subtable" b.sc
Substitution2: "'aalt' Access All Alternates lookup 0 subtable" b.sc
EndChar

StartChar: C
Encoding: 67 67 38
Width: 657
GlyphClass: 2
Flags: W
LayerCount: 2
Fore
SplineSet
617 166 m 1,0,1
 591 82 591 82 522 36 c 128,-1,2
 453 -10 453 -10 354 -10 c 0,3,4
 220 -10 220 -10 139.5 82 c 128,-1,5
 59 174 59 174 59 330 c 128,-1,6
 59 486 59 486 139.5 578 c 128,-1,7
 220 670 220 670 354 670 c 0,8,9
 557 670 557 670 610 500 c 1,10,-1
 581 487 l 1,11,12
 533 643 533 643 355 643 c 0,13,14
 235 643 235 643 162.5 558.5 c 128,-1,15
 90 474 90 474 90 330 c 128,-1,16
 90 186 90 186 162.5 101.5 c 128,-1,17
 235 17 235 17 354 17 c 0,18,19
 443 17 443 17 504 59 c 128,-1,20
 565 101 565 101 587 177 c 1,21,-1
 617 166 l 1,0,1
EndSplineSet
Substitution2: "'c2sc' Capitals to Small Capitals lookup 11 subtable" c.sc
Substitution2: "'aalt' Access All Alternates lookup 0 subtable" c.sc
EndChar

StartChar: D
Encoding: 68 68 39
Width: 692
GlyphClass: 2
Flags: W
LayerCount: 2
Fore
SplineSet
306 660 m 2,0,1
 466 660 466 660 549.5 577.5 c 128,-1,2
 633 495 633 495 633 338 c 0,3,4
 633 172 633 172 549.5 86 c 128,-1,5
 466 0 466 0 306 0 c 2,6,-1
 101 0 l 1,7,-1
 101 660 l 1,8,-1
 306 660 l 2,0,1
308 27 m 2,9,10
 452 27 452 27 527 106.5 c 128,-1,11
 602 186 602 186 602 338 c 0,12,13
 602 482 602 482 527 557.5 c 128,-1,14
 452 633 452 633 308 633 c 2,15,-1
 131 633 l 1,16,-1
 131 27 l 1,17,-1
 308 27 l 2,9,10
EndSplineSet
Substitution2: "'c2sc' Capitals to Small Capitals lookup 11 subtable" d.sc
Substitution2: "'aalt' Access All Alternates lookup 0 subtable" d.sc
EndChar

StartChar: E
Encoding: 69 69 40
Width: 595
GlyphClass: 2
Flags: W
AnchorPoint: "Anchor-0" 322 0 basechar 0
LayerCount: 2
Fore
SplineSet
131 27 m 1,0,-1
 560 27 l 1,1,-1
 560 0 l 1,2,-1
 101 0 l 1,3,-1
 101 660 l 1,4,-1
 544 660 l 1,5,-1
 544 633 l 1,6,-1
 131 633 l 1,7,-1
 131 350 l 1,8,-1
 460 350 l 1,9,-1
 460 323 l 1,10,-1
 131 323 l 1,11,-1
 131 27 l 1,0,-1
EndSplineSet
Substitution2: "Single Substitution lookup 57 subtable" E.swsh.001
Substitution2: "Single Substitution lookup 56 subtable" E.swsh
AlternateSubs2: "'swsh' Swash lookup 33 subtable" E.swsh E.swsh.001
Substitution2: "'c2sc' Capitals to Small Capitals lookup 11 subtable" e.sc
AlternateSubs2: "'aalt' Access All Alternates lookup 1 subtable" e.sc E.swsh E.swsh.001
EndChar

StartChar: F
Encoding: 70 70 41
Width: 566
GlyphClass: 2
Flags: W
LayerCount: 2
Fore
SplineSet
543 633 m 1,0,-1
 131 633 l 1,1,-1
 131 350 l 1,2,-1
 460 350 l 1,3,-1
 460 323 l 1,4,-1
 131 323 l 1,5,-1
 131 0 l 1,6,-1
 101 0 l 1,7,-1
 101 660 l 1,8,-1
 543 660 l 1,9,-1
 543 633 l 1,0,-1
EndSplineSet
Substitution2: "Single Substitution lookup 56 subtable" F.swsh
Substitution2: "'swsh' Swash lookup 34 subtable" F.swsh
Substitution2: "'c2sc' Capitals to Small Capitals lookup 11 subtable" f.sc
AlternateSubs2: "'aalt' Access All Alternates lookup 1 subtable" f.sc F.swsh
EndChar

StartChar: G
Encoding: 71 71 42
Width: 687
GlyphClass: 2
Flags: W
AnchorPoint: "Anchor-0" 363 0 basechar 0
LayerCount: 2
Fore
SplineSet
355 316 m 1,0,-1
 618 316 l 1,1,-1
 618 0 l 1,2,-1
 592 0 l 1,3,-1
 591 137 l 1,4,5
 567 67 567 67 506 28.5 c 128,-1,6
 445 -10 445 -10 351 -10 c 0,7,8
 218 -10 218 -10 138.5 82 c 128,-1,9
 59 174 59 174 59 330 c 128,-1,10
 59 486 59 486 140 578 c 128,-1,11
 221 670 221 670 355 670 c 0,12,13
 558 670 558 670 613 501 c 1,14,-1
 586 487 l 1,15,16
 538 643 538 643 355 643 c 0,17,18
 235 643 235 643 162.5 558.5 c 128,-1,19
 90 474 90 474 90 330 c 0,20,21
 90 185 90 185 160.5 101 c 128,-1,22
 231 17 231 17 352 17 c 0,23,24
 416 17 416 17 464.5 38.5 c 128,-1,25
 513 60 513 60 538.5 95 c 128,-1,26
 564 130 564 130 576.5 167 c 128,-1,27
 589 204 589 204 589 242 c 2,28,-1
 589 288 l 1,29,-1
 355 288 l 1,30,-1
 355 316 l 1,0,-1
EndSplineSet
Substitution2: "'ss04' Style Set 4 lookup 50 subtable" G.ss04
Substitution2: "'salt' Stylistic Alternatives lookup 42 subtable" G.ss04
Substitution2: "'c2sc' Capitals to Small Capitals lookup 11 subtable" g.sc
AlternateSubs2: "'aalt' Access All Alternates lookup 1 subtable" g.sc G.ss04
EndChar

StartChar: H
Encoding: 72 72 43
Width: 704
GlyphClass: 2
Flags: W
LayerCount: 2
Fore
SplineSet
573 660 m 1,0,-1
 603 660 l 1,1,-1
 603 0 l 1,2,-1
 573 0 l 1,3,-1
 573 323 l 1,4,-1
 131 323 l 1,5,-1
 131 0 l 1,6,-1
 101 0 l 1,7,-1
 101 660 l 1,8,-1
 131 660 l 1,9,-1
 131 350 l 1,10,-1
 573 350 l 1,11,-1
 573 660 l 1,0,-1
EndSplineSet
Substitution2: "'sups' Superscript lookup 15 subtable" Hsuperior
Substitution2: "'subs' Subscript lookup 14 subtable" Hinferior
Substitution2: "'sinf' Scientific Inferiors lookup 13 subtable" Hinferior
Substitution2: "'c2sc' Capitals to Small Capitals lookup 11 subtable" h.sc
AlternateSubs2: "'aalt' Access All Alternates lookup 1 subtable" h.sc Hinferior Hsuperior
EndChar

StartChar: I
Encoding: 73 73 44
Width: 232
GlyphClass: 2
Flags: W
LayerCount: 2
Fore
SplineSet
131 660 m 1,0,-1
 131 0 l 1,1,-1
 101 0 l 1,2,-1
 101 660 l 1,3,-1
 131 660 l 1,0,-1
EndSplineSet
Substitution2: "'c2sc' Capitals to Small Capitals lookup 11 subtable" i.sc
Substitution2: "'aalt' Access All Alternates lookup 0 subtable" i.sc
EndChar

StartChar: J
Encoding: 74 74 45
Width: 513
GlyphClass: 2
Flags: W
LayerCount: 2
Fore
SplineSet
419 660 m 1,0,-1
 419 213 l 2,1,2
 419 109 419 109 367 49.5 c 128,-1,3
 315 -10 315 -10 218 -10 c 0,4,5
 118 -10 118 -10 69.5 48 c 128,-1,6
 21 106 21 106 35 204 c 1,7,-1
 64 213 l 1,8,9
 51 118 51 118 91 67.5 c 128,-1,10
 131 17 131 17 218 17 c 0,11,12
 304 17 304 17 346.5 69.5 c 128,-1,13
 389 122 389 122 389 217 c 2,14,-1
 389 660 l 1,15,-1
 419 660 l 1,0,-1
EndSplineSet
Substitution2: "'c2sc' Capitals to Small Capitals lookup 11 subtable" j.sc
Substitution2: "'aalt' Access All Alternates lookup 0 subtable" j.sc
EndChar

StartChar: K
Encoding: 75 75 46
Width: 579
GlyphClass: 2
Flags: W
AnchorPoint: "Anchor-0" 331 0 basechar 0
LayerCount: 2
Fore
SplineSet
525 0 m 1,0,-1
 272 373 l 1,1,-1
 131 229 l 1,2,-1
 131 0 l 1,3,-1
 101 0 l 1,4,-1
 101 660 l 1,5,-1
 131 660 l 1,6,-1
 131 271 l 1,7,-1
 513 660 l 1,8,-1
 554 660 l 1,9,-1
 294 395 l 1,10,-1
 562 0 l 1,11,-1
 525 0 l 1,0,-1
EndSplineSet
Substitution2: "'c2sc' Capitals to Small Capitals lookup 11 subtable" k.sc
Substitution2: "'aalt' Access All Alternates lookup 0 subtable" k.sc
EndChar

StartChar: L
Encoding: 76 76 47
Width: 555
GlyphClass: 2
Flags: W
AnchorPoint: "Anchor-0" 338 0 basechar 0
LayerCount: 2
Fore
SplineSet
131 27 m 1,0,-1
 539 27 l 1,1,-1
 539 0 l 1,2,-1
 101 0 l 1,3,-1
 101 660 l 1,4,-1
 131 660 l 1,5,-1
 131 27 l 1,0,-1
EndSplineSet
Substitution2: "Single Substitution lookup 57 subtable" L.swsh
Substitution2: "'swsh' Swash lookup 34 subtable" L.swsh
Substitution2: "'c2sc' Capitals to Small Capitals lookup 11 subtable" l.sc
AlternateSubs2: "'aalt' Access All Alternates lookup 1 subtable" l.sc L.swsh
Position2: "Single Positioning lookup 6 subtable" dx=0 dy=0 dh=-152 dv=0
EndChar

StartChar: M
Encoding: 77 77 48
Width: 801
GlyphClass: 2
Flags: W
LayerCount: 2
Fore
SplineSet
700 660 m 1,0,-1
 700 0 l 1,1,-1
 671 0 l 1,2,-1
 671 544 l 1,3,-1
 674 627 l 1,4,-1
 673 627 l 1,5,-1
 416 0 l 1,6,-1
 385 0 l 1,7,-1
 128 627 l 1,8,-1
 127 627 l 1,9,-1
 130 544 l 1,10,-1
 130 0 l 1,11,-1
 101 0 l 1,12,-1
 101 660 l 1,13,-1
 144 660 l 1,14,-1
 380 94 l 1,15,-1
 400 35 l 1,16,-1
 401 35 l 1,17,-1
 421 93 l 1,18,-1
 657 660 l 1,19,-1
 700 660 l 1,0,-1
EndSplineSet
Substitution2: "Single Substitution lookup 56 subtable" M.swsh
AlternateSubs2: "'swsh' Swash lookup 35 subtable" M.swsh M.swsh.001
Substitution2: "'c2sc' Capitals to Small Capitals lookup 11 subtable" m.sc
AlternateSubs2: "'aalt' Access All Alternates lookup 1 subtable" m.sc M.swsh M.swsh.001
EndChar

StartChar: N
Encoding: 78 78 49
Width: 703
GlyphClass: 2
Flags: W
AnchorPoint: "Anchor-0" 358 0 basechar 0
LayerCount: 2
Fore
SplineSet
602 660 m 1,0,-1
 602 0 l 1,1,-1
 563 0 l 1,2,-1
 164 569 l 1,3,-1
 129 628 l 1,4,-1
 128 628 l 1,5,-1
 130 561 l 1,6,-1
 130 0 l 1,7,-1
 101 0 l 1,8,-1
 101 660 l 1,9,-1
 140 660 l 1,10,-1
 538 91 l 1,11,-1
 574 32 l 1,12,-1
 573 99 l 1,13,-1
 573 660 l 1,14,-1
 602 660 l 1,0,-1
EndSplineSet
Substitution2: "Single Substitution lookup 57 subtable" N.swsh
Substitution2: "'swsh' Swash lookup 36 subtable" N.swsh
Substitution2: "'c2sc' Capitals to Small Capitals lookup 11 subtable" n.sc
AlternateSubs2: "'aalt' Access All Alternates lookup 1 subtable" n.sc N.swsh
EndChar

StartChar: O
Encoding: 79 79 50
Width: 721
GlyphClass: 2
Flags: W
LayerCount: 2
Fore
SplineSet
361 670 m 128,-1,1
 500 670 500 670 581.5 578.5 c 128,-1,2
 663 487 663 487 663 330 c 128,-1,3
 663 173 663 173 581.5 81.5 c 128,-1,4
 500 -10 500 -10 361 -10 c 128,-1,5
 222 -10 222 -10 140.5 81.5 c 128,-1,6
 59 173 59 173 59 330 c 128,-1,7
 59 487 59 487 140.5 578.5 c 128,-1,0
 222 670 222 670 361 670 c 128,-1,1
361 643 m 128,-1,9
 236 643 236 643 163 559 c 128,-1,10
 90 475 90 475 90 330 c 128,-1,11
 90 185 90 185 163 101 c 128,-1,12
 236 17 236 17 361 17 c 128,-1,13
 486 17 486 17 559 101 c 128,-1,14
 632 185 632 185 632 330 c 128,-1,15
 632 475 632 475 559 559 c 128,-1,8
 486 643 486 643 361 643 c 128,-1,9
EndSplineSet
Substitution2: "Single Substitution lookup 55 subtable" ordmasculine
Substitution2: "'nalt' Alternate Annotation Forms lookup 23 subtable" indexring
Substitution2: "'sups' Superscript lookup 15 subtable" Osuperior
Substitution2: "'subs' Subscript lookup 14 subtable" Oinferior
Substitution2: "'sinf' Scientific Inferiors lookup 13 subtable" Oinferior
Substitution2: "'c2sc' Capitals to Small Capitals lookup 11 subtable" o.sc
AlternateSubs2: "'aalt' Access All Alternates lookup 1 subtable" o.sc Oinferior Osuperior ordmasculine indexring
EndChar

StartChar: P
Encoding: 80 80 51
Width: 572
GlyphClass: 2
Flags: W
LayerCount: 2
Fore
SplineSet
311 660 m 2,0,1
 416 660 416 660 476 610 c 128,-1,2
 536 560 536 560 536 472 c 128,-1,3
 536 384 536 384 476 334 c 128,-1,4
 416 284 416 284 311 284 c 2,5,-1
 131 284 l 1,6,-1
 131 0 l 1,7,-1
 101 0 l 1,8,-1
 101 660 l 1,9,-1
 311 660 l 2,0,1
309 311 m 2,10,11
 403 311 403 311 454 353 c 128,-1,12
 505 395 505 395 505 472 c 0,13,14
 505 548 505 548 453.5 590.5 c 128,-1,15
 402 633 402 633 309 633 c 2,16,-1
 131 633 l 1,17,-1
 131 311 l 1,18,-1
 309 311 l 2,10,11
EndSplineSet
Substitution2: "'c2sc' Capitals to Small Capitals lookup 11 subtable" p.sc
Substitution2: "'aalt' Access All Alternates lookup 0 subtable" p.sc
EndChar

StartChar: Q
Encoding: 81 81 52
Width: 721
GlyphClass: 2
Flags: W
LayerCount: 2
Fore
SplineSet
536 -166 m 0,0,1
 606 -166 606 -166 643 -129 c 1,2,-1
 655 -156 l 1,3,4
 613 -195 613 -195 536 -195 c 0,5,6
 458 -195 458 -195 408 -147.5 c 128,-1,7
 358 -100 358 -100 352 -10 c 1,8,9
 216 -7 216 -7 137.5 84 c 128,-1,10
 59 175 59 175 59 330 c 0,11,12
 59 487 59 487 140.5 578.5 c 128,-1,13
 222 670 222 670 361 670 c 128,-1,14
 500 670 500 670 581.5 578.5 c 128,-1,15
 663 487 663 487 663 330 c 0,16,17
 663 179 663 179 586.5 88 c 128,-1,18
 510 -3 510 -3 379 -10 c 1,19,20
 384 -88 384 -88 426 -127 c 128,-1,21
 468 -166 468 -166 536 -166 c 0,0,1
90 330 m 128,-1,23
 90 185 90 185 163 101 c 128,-1,24
 236 17 236 17 361 17 c 128,-1,25
 486 17 486 17 559 101 c 128,-1,26
 632 185 632 185 632 330 c 128,-1,27
 632 475 632 475 559 559 c 128,-1,28
 486 643 486 643 361 643 c 128,-1,29
 236 643 236 643 163 559 c 128,-1,22
 90 475 90 475 90 330 c 128,-1,23
EndSplineSet
Substitution2: "'c2sc' Capitals to Small Capitals lookup 11 subtable" q.sc
Substitution2: "'aalt' Access All Alternates lookup 0 subtable" q.sc
EndChar

StartChar: R
Encoding: 82 82 53
Width: 621
GlyphClass: 2
Flags: W
AnchorPoint: "Anchor-0" 350 0 basechar 0
LayerCount: 2
Fore
SplineSet
101 0 m 1,0,-1
 101 660 l 1,1,-1
 342 660 l 2,2,3
 440 660 440 660 497 611 c 128,-1,4
 554 562 554 562 554 477 c 0,5,6
 554 408 554 408 515 363 c 128,-1,7
 476 318 476 318 409 307 c 1,8,-1
 409 306 l 1,9,10
 534 287 534 287 537 161 c 0,11,12
 539 99 539 99 544.5 62.5 c 128,-1,13
 550 26 550 26 553 20 c 128,-1,14
 556 14 556 14 564 2 c 1,15,-1
 564 0 l 1,16,-1
 532 0 l 1,17,18
 511 37 511 37 508 157 c 0,19,20
 506 222 506 222 465.5 258 c 128,-1,21
 425 294 425 294 346 294 c 2,22,-1
 131 294 l 1,23,-1
 131 0 l 1,24,-1
 101 0 l 1,0,-1
131 322 m 1,25,-1
 342 322 l 2,26,27
 428 322 428 322 476 363 c 128,-1,28
 524 404 524 404 524 477 c 0,29,30
 524 551 524 551 476 592 c 128,-1,31
 428 633 428 633 342 633 c 2,32,-1
 131 633 l 1,33,-1
 131 322 l 1,25,-1
EndSplineSet
Substitution2: "Single Substitution lookup 57 subtable" R.swsh.001
Substitution2: "Single Substitution lookup 56 subtable" R.swsh
Substitution2: "'ss03' Style Set 3 lookup 49 subtable" R.ss03
Substitution2: "'salt' Stylistic Alternatives lookup 42 subtable" R.ss03
AlternateSubs2: "'swsh' Swash lookup 37 subtable" R.swsh R.swsh.001
Substitution2: "'c2sc' Capitals to Small Capitals lookup 11 subtable" r.sc
AlternateSubs2: "'aalt' Access All Alternates lookup 1 subtable" r.sc R.swsh R.swsh.001 R.ss03
EndChar

StartChar: S
Encoding: 83 83 54
Width: 604
GlyphClass: 2
Flags: W
AnchorPoint: "Anchor-0" 322 0 basechar 0
LayerCount: 2
Fore
SplineSet
300 670 m 0,0,1
 493 670 493 670 545 520 c 1,2,-1
 519 500 l 1,3,4
 476 643 476 643 301 643 c 0,5,6
 207 643 207 643 150.5 599.5 c 128,-1,7
 94 556 94 556 94 490 c 0,8,9
 94 429 94 429 143.5 395 c 128,-1,10
 193 361 193 361 321 339 c 128,-1,11
 449 317 449 317 502 277 c 128,-1,12
 555 237 555 237 555 164 c 0,13,14
 555 87 555 87 488 38.5 c 128,-1,15
 421 -10 421 -10 313 -10 c 0,16,17
 206 -10 206 -10 135 33 c 128,-1,18
 64 76 64 76 43 159 c 1,19,-1
 70 177 l 1,20,21
 86 98 86 98 151 57.5 c 128,-1,22
 216 17 216 17 313 17 c 0,23,24
 405 17 405 17 465 56 c 128,-1,25
 525 95 525 95 525 163 c 0,26,27
 525 222 525 222 477.5 256 c 128,-1,28
 430 290 430 290 314 309 c 0,29,30
 174 333 174 333 118.5 373.5 c 128,-1,31
 63 414 63 414 63 488 c 0,32,33
 63 564 63 564 127.5 617 c 128,-1,34
 192 670 192 670 300 670 c 0,0,1
EndSplineSet
Substitution2: "Single Substitution lookup 57 subtable" S.swsh
Substitution2: "Single Substitution lookup 56 subtable" S.swsh
Substitution2: "'swsh' Swash lookup 38 subtable" S.swsh
Substitution2: "'c2sc' Capitals to Small Capitals lookup 11 subtable" s.sc
AlternateSubs2: "'aalt' Access All Alternates lookup 1 subtable" s.sc S.swsh
EndChar

StartChar: T
Encoding: 84 84 55
Width: 557
GlyphClass: 2
Flags: W
AnchorPoint: "Anchor-0" 285 0 basechar 0
LayerCount: 2
Fore
SplineSet
542 660 m 1,0,-1
 542 633 l 1,1,-1
 294 633 l 1,2,-1
 294 0 l 1,3,-1
 264 0 l 1,4,-1
 264 633 l 1,5,-1
 16 633 l 1,6,-1
 16 660 l 1,7,-1
 542 660 l 1,0,-1
EndSplineSet
Substitution2: "Single Substitution lookup 56 subtable" T.swsh
Substitution2: "'swsh' Swash lookup 38 subtable" T.swsh
Substitution2: "'c2sc' Capitals to Small Capitals lookup 11 subtable" t.sc
AlternateSubs2: "'aalt' Access All Alternates lookup 1 subtable" t.sc T.swsh
EndChar

StartChar: U
Encoding: 85 85 56
Width: 689
GlyphClass: 2
Flags: W
LayerCount: 2
Fore
SplineSet
596 660 m 1,0,-1
 596 237 l 2,1,2
 596 118 596 118 530 54 c 128,-1,3
 464 -10 464 -10 344 -10 c 0,4,5
 225 -10 225 -10 159 54 c 128,-1,6
 93 118 93 118 93 237 c 2,7,-1
 93 660 l 1,8,-1
 123 660 l 1,9,-1
 123 242 l 2,10,11
 123 134 123 134 180.5 75.5 c 128,-1,12
 238 17 238 17 344 17 c 128,-1,13
 450 17 450 17 508 75.5 c 128,-1,14
 566 134 566 134 566 242 c 2,15,-1
 566 660 l 1,16,-1
 596 660 l 1,0,-1
EndSplineSet
Substitution2: "'c2sc' Capitals to Small Capitals lookup 11 subtable" u.sc
Substitution2: "'aalt' Access All Alternates lookup 0 subtable" u.sc
EndChar

StartChar: V
Encoding: 86 86 57
Width: 592
GlyphClass: 2
Flags: W
LayerCount: 2
Fore
SplineSet
572 660 m 1,0,-1
 315 0 l 1,1,-1
 277 0 l 1,2,-1
 19 660 l 1,3,-1
 52 660 l 1,4,-1
 266 113 l 1,5,-1
 296 30 l 1,6,-1
 326 112 l 1,7,-1
 540 660 l 1,8,-1
 572 660 l 1,0,-1
EndSplineSet
Substitution2: "'c2sc' Capitals to Small Capitals lookup 11 subtable" v.sc
Substitution2: "'aalt' Access All Alternates lookup 0 subtable" v.sc
EndChar

StartChar: W
Encoding: 87 87 58
Width: 920
GlyphClass: 2
Flags: W
LayerCount: 2
Fore
SplineSet
421 486 m 1,0,-1
 277 0 l 1,1,-1
 239 0 l 1,2,-1
 26 660 l 1,3,-1
 58 660 l 1,4,-1
 258 26 l 1,5,-1
 442 660 l 1,6,-1
 479 660 l 1,7,-1
 663 26 l 1,8,-1
 864 660 l 1,9,-1
 895 660 l 1,10,-1
 682 0 l 1,11,-1
 644 0 l 1,12,-1
 500 486 l 1,13,-1
 461 625 l 1,14,-1
 460 625 l 1,15,-1
 421 486 l 1,0,-1
EndSplineSet
Substitution2: "Single Substitution lookup 56 subtable" W.swsh
Substitution2: "'swsh' Swash lookup 38 subtable" W.swsh
Substitution2: "'c2sc' Capitals to Small Capitals lookup 11 subtable" w.sc
AlternateSubs2: "'aalt' Access All Alternates lookup 1 subtable" w.sc W.swsh
EndChar

StartChar: X
Encoding: 88 88 59
Width: 542
GlyphClass: 2
Flags: W
LayerCount: 2
Fore
SplineSet
522 0 m 1,0,-1
 486 0 l 1,1,-1
 271 315 l 1,2,-1
 52 0 l 1,3,-1
 15 0 l 1,4,-1
 253 340 l 1,5,-1
 36 660 l 1,6,-1
 72 660 l 1,7,-1
 273 366 l 1,8,-1
 478 660 l 1,9,-1
 514 660 l 1,10,-1
 290 340 l 1,11,-1
 522 0 l 1,0,-1
EndSplineSet
Substitution2: "'c2sc' Capitals to Small Capitals lookup 11 subtable" x.sc
Substitution2: "'aalt' Access All Alternates lookup 0 subtable" x.sc
EndChar

StartChar: Y
Encoding: 89 89 60
Width: 525
GlyphClass: 2
Flags: W
LayerCount: 2
Fore
SplineSet
510 660 m 1,0,-1
 278 256 l 1,1,-1
 278 0 l 1,2,-1
 248 0 l 1,3,-1
 248 256 l 1,4,-1
 15 660 l 1,5,-1
 50 660 l 1,6,-1
 179 434 l 1,7,-1
 263 288 l 1,8,-1
 475 660 l 1,9,-1
 510 660 l 1,0,-1
EndSplineSet
Substitution2: "'c2sc' Capitals to Small Capitals lookup 11 subtable" y.sc
Substitution2: "'aalt' Access All Alternates lookup 0 subtable" y.sc
EndChar

StartChar: Z
Encoding: 90 90 61
Width: 569
GlyphClass: 2
Flags: W
LayerCount: 2
Fore
SplineSet
70 27 m 1,0,-1
 538 27 l 1,1,-1
 538 0 l 1,2,-1
 35 0 l 1,3,-1
 35 26 l 1,4,-1
 485 633 l 1,5,-1
 43 633 l 1,6,-1
 43 660 l 1,7,-1
 520 660 l 1,8,-1
 520 634 l 1,9,-1
 70 27 l 1,0,-1
EndSplineSet
Substitution2: "'c2sc' Capitals to Small Capitals lookup 11 subtable" z.sc
Substitution2: "'aalt' Access All Alternates lookup 0 subtable" z.sc
EndChar

StartChar: bracketleft
Encoding: 91 91 62
Width: 286
GlyphClass: 2
Flags: W
LayerCount: 2
Fore
SplineSet
270 704 m 1,0,-1
 107 704 l 1,1,-1
 107 -142 l 1,2,-1
 270 -142 l 1,3,-1
 270 -168 l 1,4,-1
 78 -168 l 1,5,-1
 78 730 l 1,6,-1
 270 730 l 1,7,-1
 270 704 l 1,0,-1
EndSplineSet
Substitution2: "'case' Case-Sensitive Forms lookup 29 subtable" bracketleft.case
Substitution2: "'sups' Superscript lookup 15 subtable" bracketleftsuperior
Substitution2: "'subs' Subscript lookup 14 subtable" bracketleftinferior
Substitution2: "'sinf' Scientific Inferiors lookup 13 subtable" bracketleftinferior
AlternateSubs2: "'aalt' Access All Alternates lookup 1 subtable" bracketleftinferior bracketleftsuperior bracketleft.case
EndChar

StartChar: backslash
Encoding: 92 92 63
Width: 368
GlyphClass: 2
Flags: W
LayerCount: 2
Fore
SplineSet
34 730 m 1,0,-1
 64 730 l 1,1,-1
 335 -70 l 1,2,-1
 305 -70 l 1,3,-1
 34 730 l 1,0,-1
EndSplineSet
EndChar

StartChar: bracketright
Encoding: 93 93 64
Width: 286
GlyphClass: 2
Flags: W
LayerCount: 2
Fore
SplineSet
207 730 m 1,0,-1
 207 -168 l 1,1,-1
 16 -168 l 1,2,-1
 16 -142 l 1,3,-1
 179 -142 l 1,4,-1
 179 704 l 1,5,-1
 16 704 l 1,6,-1
 16 730 l 1,7,-1
 207 730 l 1,0,-1
EndSplineSet
Substitution2: "'case' Case-Sensitive Forms lookup 29 subtable" bracketright.case
Substitution2: "'sups' Superscript lookup 15 subtable" bracketrightsuperior
Substitution2: "'subs' Subscript lookup 14 subtable" bracketrightinferior
Substitution2: "'sinf' Scientific Inferiors lookup 13 subtable" bracketrightinferior
AlternateSubs2: "'aalt' Access All Alternates lookup 1 subtable" bracketrightinferior bracketrightsuperior bracketright.case
EndChar

StartChar: asciicircum
Encoding: 94 94 65
Width: 539
GlyphClass: 2
Flags: W
LayerCount: 2
Fore
SplineSet
504 355 m 1,0,-1
 472 355 l 1,1,-1
 269 703 l 1,2,-1
 67 355 l 1,3,-1
 35 355 l 1,4,-1
 254 730 l 1,5,-1
 285 730 l 1,6,-1
 504 355 l 1,0,-1
EndSplineSet
EndChar

StartChar: underscore
Encoding: 95 95 66
Width: 508
GlyphClass: 2
Flags: W
LayerCount: 2
Fore
SplineSet
508 -97 m 1,0,-1
 508 -124 l 1,1,-1
 0 -124 l 1,2,-1
 0 -97 l 1,3,-1
 508 -97 l 1,0,-1
EndSplineSet
EndChar

StartChar: grave
Encoding: 96 96 67
Width: 539
GlyphClass: 2
Flags: W
LayerCount: 2
Fore
SplineSet
180 734 m 1,0,-1
 263 583 l 1,1,-1
 237 583 l 1,2,-1
 147 734 l 1,3,-1
 180 734 l 1,0,-1
EndSplineSet
EndChar

StartChar: a
Encoding: 97 97 68
Width: 528
GlyphClass: 2
Flags: W
LayerCount: 2
Fore
SplineSet
483 16 m 0,0,1
 509 16 509 16 522 24 c 1,2,-1
 520 -1 l 1,3,4
 505 -10 505 -10 479 -10 c 0,5,6
 402 -10 402 -10 402 86 c 1,7,8
 381 40 381 40 325.5 15 c 128,-1,9
 270 -10 270 -10 207 -10 c 0,10,11
 133 -10 133 -10 90.5 22 c 128,-1,12
 48 54 48 54 48 112 c 0,13,14
 48 171 48 171 93 206 c 128,-1,15
 138 241 138 241 235 259 c 2,16,-1
 402 289 l 1,17,-1
 402 344 l 2,18,19
 402 410 402 410 363 447 c 128,-1,20
 324 484 324 484 252 484 c 0,21,22
 124 484 124 484 81 371 c 1,23,-1
 58 388 l 1,24,25
 103 510 103 510 252 510 c 0,26,27
 338 510 338 510 385 468 c 128,-1,28
 432 426 432 426 432 346 c 2,29,-1
 432 80 l 2,30,31
 432 16 432 16 483 16 c 0,0,1
212 16 m 0,32,33
 281 16 281 16 341.5 52.5 c 128,-1,34
 402 89 402 89 402 155 c 2,35,-1
 402 264 l 1,36,-1
 248 236 l 2,37,38
 158 219 158 219 118.5 189 c 128,-1,39
 79 159 79 159 79 112 c 0,40,41
 79 67 79 67 114.5 41.5 c 128,-1,42
 150 16 150 16 212 16 c 0,32,33
EndSplineSet
Substitution2: "Single Substitution lookup 55 subtable" ordfeminine
Substitution2: "'smcp' Lowercase to Small Capitals lookup 12 subtable" a.sc
AlternateSubs2: "'aalt' Access All Alternates lookup 1 subtable" a.sc ordfeminine
EndChar

StartChar: b
Encoding: 98 98 69
Width: 595
GlyphClass: 2
Flags: W
LayerCount: 2
Fore
SplineSet
312 510 m 0,0,1
 419 510 419 510 480 441 c 128,-1,2
 541 372 541 372 541 250 c 128,-1,3
 541 128 541 128 480 59 c 128,-1,4
 419 -10 419 -10 312 -10 c 0,5,6
 239 -10 239 -10 187.5 28 c 128,-1,7
 136 66 136 66 116 134 c 1,8,-1
 115 0 l 1,9,-1
 87 0 l 1,10,-1
 87 730 l 1,11,-1
 117 730 l 1,12,-1
 117 371 l 1,13,14
 138 437 138 437 189 473.5 c 128,-1,15
 240 510 240 510 312 510 c 0,0,1
308 16 m 0,16,17
 404 16 404 16 457.5 78 c 128,-1,18
 511 140 511 140 511 250 c 128,-1,19
 511 360 511 360 457.5 422 c 128,-1,20
 404 484 404 484 308 484 c 0,21,22
 221 484 221 484 169 422 c 128,-1,23
 117 360 117 360 117 254 c 2,24,-1
 117 246 l 2,25,26
 117 140 117 140 169 78 c 128,-1,27
 221 16 221 16 308 16 c 0,16,17
EndSplineSet
Substitution2: "'smcp' Lowercase to Small Capitals lookup 12 subtable" b.sc
Substitution2: "'aalt' Access All Alternates lookup 0 subtable" b.sc
EndChar

StartChar: c
Encoding: 99 99 70
Width: 533
GlyphClass: 2
Flags: W
LayerCount: 2
Fore
SplineSet
286 510 m 0,0,1
 361 510 361 510 413 474.5 c 128,-1,2
 465 439 465 439 485 374 c 1,3,-1
 458 361 l 1,4,5
 441 420 441 420 396.5 452 c 128,-1,6
 352 484 352 484 286 484 c 0,7,8
 190 484 190 484 136.5 422 c 128,-1,9
 83 360 83 360 83 250 c 128,-1,10
 83 140 83 140 135.5 78 c 128,-1,11
 188 16 188 16 283 16 c 0,12,13
 352 16 352 16 402 51.5 c 128,-1,14
 452 87 452 87 462 147 c 1,15,-1
 489 137 l 1,16,17
 474 70 474 70 417.5 30 c 128,-1,18
 361 -10 361 -10 284 -10 c 0,19,20
 174 -10 174 -10 113.5 59 c 128,-1,21
 53 128 53 128 53 250 c 128,-1,22
 53 372 53 372 115 441 c 128,-1,23
 177 510 177 510 286 510 c 0,0,1
EndSplineSet
Substitution2: "'smcp' Lowercase to Small Capitals lookup 12 subtable" c.sc
Substitution2: "'aalt' Access All Alternates lookup 0 subtable" c.sc
EndChar

StartChar: d
Encoding: 100 100 71
Width: 595
GlyphClass: 2
Flags: W
LayerCount: 2
Fore
SplineSet
478 730 m 1,0,-1
 508 730 l 1,1,-1
 508 0 l 1,2,-1
 480 0 l 1,3,-1
 479 133 l 1,4,5
 459 66 459 66 407.5 28 c 128,-1,6
 356 -10 356 -10 282 -10 c 0,7,8
 175 -10 175 -10 114.5 59 c 128,-1,9
 54 128 54 128 54 250 c 128,-1,10
 54 372 54 372 114.5 441 c 128,-1,11
 175 510 175 510 282 510 c 0,12,13
 354 510 354 510 405.5 473.5 c 128,-1,14
 457 437 457 437 478 371 c 1,15,-1
 478 730 l 1,0,-1
287 16 m 0,16,17
 374 16 374 16 426 78 c 128,-1,18
 478 140 478 140 478 246 c 2,19,-1
 478 254 l 2,20,21
 478 360 478 360 426 422 c 128,-1,22
 374 484 374 484 287 484 c 0,23,24
 191 484 191 484 137.5 422 c 128,-1,25
 84 360 84 360 84 250 c 128,-1,26
 84 140 84 140 137.5 78 c 128,-1,27
 191 16 191 16 287 16 c 0,16,17
EndSplineSet
Substitution2: "'smcp' Lowercase to Small Capitals lookup 12 subtable" d.sc
Substitution2: "'aalt' Access All Alternates lookup 0 subtable" d.sc
EndChar

StartChar: e
Encoding: 101 101 72
Width: 544
GlyphClass: 2
Flags: W
AnchorPoint: "Anchor-0" 288 0 basechar 0
LayerCount: 2
Fore
SplineSet
494 253 m 0,0,1
 494 249 494 249 493.5 243 c 128,-1,2
 493 237 493 237 493 235 c 2,3,-1
 83 235 l 1,4,5
 87 132 87 132 140 74 c 128,-1,6
 193 16 193 16 285 16 c 0,7,8
 346 16 346 16 393.5 43.5 c 128,-1,9
 441 71 441 71 464 120 c 1,10,-1
 489 107 l 1,11,12
 462 52 462 52 409 21 c 128,-1,13
 356 -10 356 -10 285 -10 c 0,14,15
 176 -10 176 -10 114.5 59 c 128,-1,16
 53 128 53 128 53 250 c 128,-1,17
 53 372 53 372 113 441 c 128,-1,18
 173 510 173 510 280 510 c 0,19,20
 380 510 380 510 437 441 c 128,-1,21
 494 372 494 372 494 253 c 0,0,1
280 484 m 0,22,23
 190 484 190 484 138 425.5 c 128,-1,24
 86 367 86 367 83 262 c 1,25,-1
 466 262 l 1,26,27
 463 367 463 367 415 425.5 c 128,-1,28
 367 484 367 484 280 484 c 0,22,23
EndSplineSet
Substitution2: "'smcp' Lowercase to Small Capitals lookup 12 subtable" e.sc
Substitution2: "'aalt' Access All Alternates lookup 0 subtable" e.sc
EndChar

StartChar: f
Encoding: 102 102 73
Width: 336
GlyphClass: 2
Flags: W
LayerCount: 2
Fore
SplineSet
146 581 m 2,0,-1
 146 500 l 1,1,-1
 328 500 l 1,2,-1
 328 474 l 1,3,-1
 146 474 l 1,4,-1
 146 0 l 1,5,-1
 116 0 l 1,6,-1
 116 474 l 1,7,-1
 16 474 l 1,8,-1
 16 500 l 1,9,-1
 116 500 l 1,10,-1
 116 583 l 2,11,12
 116 654 116 654 153 694.5 c 128,-1,13
 190 735 190 735 256 735 c 0,14,15
 306 735 306 735 335 706 c 1,16,-1
 325 682 l 1,17,18
 300 708 300 708 258 708 c 0,19,20
 205 708 205 708 175.5 674.5 c 128,-1,21
 146 641 146 641 146 581 c 2,0,-1
EndSplineSet
Substitution2: "'smcp' Lowercase to Small Capitals lookup 12 subtable" f.sc
Substitution2: "'aalt' Access All Alternates lookup 0 subtable" f.sc
EndChar

StartChar: g
Encoding: 103 103 74
Width: 595
GlyphClass: 2
Flags: W
LayerCount: 2
Fore
SplineSet
481 499 m 1,0,-1
 508 499 l 1,1,-1
 508 15 l 2,2,3
 508 -95 508 -95 447 -155 c 128,-1,4
 386 -215 386 -215 274 -215 c 0,5,6
 191 -215 191 -215 136.5 -182 c 128,-1,7
 82 -149 82 -149 69 -90 c 1,8,-1
 99 -78 l 1,9,10
 108 -131 108 -131 154.5 -160 c 128,-1,11
 201 -189 201 -189 276 -189 c 0,12,13
 370 -189 370 -189 424 -135.5 c 128,-1,14
 478 -82 478 -82 478 10 c 2,15,-1
 478 127 l 1,16,17
 457 63 457 63 405.5 27.5 c 128,-1,18
 354 -8 354 -8 282 -8 c 0,19,20
 175 -8 175 -8 114 61 c 128,-1,21
 53 130 53 130 53 251 c 128,-1,22
 53 372 53 372 114 441 c 128,-1,23
 175 510 175 510 282 510 c 0,24,25
 354 510 354 510 405.5 474 c 128,-1,26
 457 438 457 438 479 373 c 1,27,-1
 481 499 l 1,0,-1
287 18 m 0,28,29
 374 18 374 18 426 79.5 c 128,-1,30
 478 141 478 141 478 247 c 2,31,-1
 478 259 l 2,32,33
 477 363 477 363 425 423.5 c 128,-1,34
 373 484 373 484 287 484 c 0,35,36
 192 484 192 484 138 422 c 128,-1,37
 84 360 84 360 84 251 c 128,-1,38
 84 142 84 142 138 80 c 128,-1,39
 192 18 192 18 287 18 c 0,28,29
EndSplineSet
Substitution2: "'ss01' Style Set 1 lookup 47 subtable" g.ss01
Substitution2: "'salt' Stylistic Alternatives lookup 42 subtable" g.ss01
Substitution2: "'smcp' Lowercase to Small Capitals lookup 12 subtable" g.sc
AlternateSubs2: "'aalt' Access All Alternates lookup 1 subtable" g.sc g.ss01
EndChar

StartChar: h
Encoding: 104 104 75
Width: 584
GlyphClass: 2
Flags: W
LayerCount: 2
Fore
SplineSet
315 511 m 0,0,1
 401 511 401 511 452 463 c 128,-1,2
 503 415 503 415 503 328 c 2,3,-1
 503 1 l 1,4,-1
 473 1 l 1,5,-1
 473 320 l 2,6,7
 473 400 473 400 429.5 442.5 c 128,-1,8
 386 485 386 485 311 485 c 0,9,10
 230 485 230 485 173.5 430 c 128,-1,11
 117 375 117 375 117 294 c 2,12,-1
 117 0 l 1,13,-1
 87 0 l 1,14,-1
 87 730 l 1,15,-1
 117 730 l 1,16,-1
 117 383 l 1,17,18
 138 442 138 442 191 476.5 c 128,-1,19
 244 511 244 511 315 511 c 0,0,1
EndSplineSet
Substitution2: "'smcp' Lowercase to Small Capitals lookup 12 subtable" h.sc
Substitution2: "'aalt' Access All Alternates lookup 0 subtable" h.sc
EndChar

StartChar: i
Encoding: 105 105 76
Width: 204
GlyphClass: 2
Flags: W
LayerCount: 2
Fore
SplineSet
102 598 m 128,-1,1
 88 598 88 598 79.5 606.5 c 128,-1,2
 71 615 71 615 71 628 c 128,-1,3
 71 641 71 641 79.5 649.5 c 128,-1,4
 88 658 88 658 102 658 c 128,-1,5
 116 658 116 658 124 650 c 128,-1,6
 132 642 132 642 132 628 c 128,-1,7
 132 614 132 614 124 606 c 128,-1,0
 116 598 116 598 102 598 c 128,-1,1
117 500 m 1,8,-1
 117 0 l 1,9,-1
 87 0 l 1,10,-1
 87 500 l 1,11,-1
 117 500 l 1,8,-1
EndSplineSet
Substitution2: "'smcp' Lowercase to Small Capitals lookup 12 subtable" i.sc
Substitution2: "'locl' Localized Forms in Latin lookup 6 subtable" i.loclTRK
Substitution2: "'locl' Localized Forms in Latin lookup 5 subtable" i.loclTRK
Substitution2: "'locl' Localized Forms in Latin lookup 4 subtable" i.loclTRK
Substitution2: "'locl' Localized Forms in Latin lookup 3 subtable" i.loclTRK
Substitution2: "'locl' Localized Forms in Latin lookup 2 subtable" i.loclTRK
Substitution2: "'aalt' Access All Alternates lookup 0 subtable" i.sc
EndChar

StartChar: j
Encoding: 106 106 77
Width: 204
GlyphClass: 2
Flags: W
LayerCount: 2
Fore
SplineSet
102 658 m 128,-1,1
 115 658 115 658 123.5 649.5 c 128,-1,2
 132 641 132 641 132 628 c 128,-1,3
 132 615 132 615 123.5 606.5 c 128,-1,4
 115 598 115 598 102 598 c 128,-1,5
 89 598 89 598 80 606.5 c 128,-1,6
 71 615 71 615 71 628 c 128,-1,7
 71 641 71 641 80 649.5 c 128,-1,0
 89 658 89 658 102 658 c 128,-1,1
117 500 m 1,8,-1
 117 -61 l 2,9,10
 117 -133 117 -133 78.5 -174 c 128,-1,11
 40 -215 40 -215 -20 -215 c 0,12,13
 -68 -215 -68 -215 -97 -191 c 1,14,-1
 -89 -163 l 1,15,16
 -63 -187 -63 -187 -20 -187 c 0,17,18
 29 -187 29 -187 58 -153 c 128,-1,19
 87 -119 87 -119 87 -59 c 2,20,-1
 87 500 l 1,21,-1
 117 500 l 1,8,-1
EndSplineSet
Substitution2: "'smcp' Lowercase to Small Capitals lookup 12 subtable" j.sc
Substitution2: "'aalt' Access All Alternates lookup 0 subtable" j.sc
EndChar

StartChar: k
Encoding: 107 107 78
Width: 501
GlyphClass: 2
Flags: W
AnchorPoint: "Anchor-0" 311 0 basechar 0
LayerCount: 2
Fore
SplineSet
449 0 m 1,0,-1
 243 277 l 1,1,-1
 117 157 l 1,2,-1
 117 0 l 1,3,-1
 87 0 l 1,4,-1
 87 730 l 1,5,-1
 117 730 l 1,6,-1
 117 196 l 1,7,-1
 439 500 l 1,8,-1
 480 500 l 1,9,-1
 265 298 l 1,10,-1
 486 0 l 1,11,-1
 449 0 l 1,0,-1
EndSplineSet
Substitution2: "'smcp' Lowercase to Small Capitals lookup 12 subtable" k.sc
Substitution2: "'aalt' Access All Alternates lookup 0 subtable" k.sc
EndChar

StartChar: l
Encoding: 108 108 79
Width: 252
GlyphClass: 2
Flags: W
AnchorPoint: "Anchor-0" 187 0 basechar 0
LayerCount: 2
Fore
SplineSet
113 730 m 1,0,-1
 113 113 l 2,1,2
 113 62 113 62 129.5 40 c 128,-1,3
 146 18 146 18 182 18 c 0,4,5
 214 18 214 18 243 30 c 1,6,-1
 240 2 l 1,7,8
 214 -10 214 -10 179 -10 c 0,9,10
 83 -10 83 -10 83 111 c 2,11,-1
 83 730 l 1,12,-1
 113 730 l 1,0,-1
EndSplineSet
Substitution2: "'ss02' Style Set 2 lookup 48 subtable" l.ss02
Substitution2: "'salt' Stylistic Alternatives lookup 42 subtable" l.ss02
Substitution2: "'smcp' Lowercase to Small Capitals lookup 12 subtable" l.sc
AlternateSubs2: "'aalt' Access All Alternates lookup 1 subtable" l.sc l.ss02
Position2: "Single Positioning lookup 6 subtable" dx=0 dy=0 dh=-40 dv=0
EndChar

StartChar: m
Encoding: 109 109 80
Width: 965
GlyphClass: 2
Flags: W
LayerCount: 2
Fore
SplineSet
697 512 m 0,0,1
 782 512 782 512 833 464 c 128,-1,2
 884 416 884 416 884 329 c 2,3,-1
 884 2 l 1,4,-1
 854 2 l 1,5,-1
 854 325 l 2,6,7
 854 402 854 402 810.5 443.5 c 128,-1,8
 767 485 767 485 693 485 c 0,9,10
 612 485 612 485 556 430 c 128,-1,11
 500 375 500 375 500 297 c 2,12,-1
 500 0 l 1,13,-1
 470 0 l 1,14,-1
 470 324 l 2,15,16
 470 400 470 400 427 442 c 128,-1,17
 384 484 384 484 309 484 c 0,18,19
 229 484 229 484 173 429 c 128,-1,20
 117 374 117 374 117 294 c 2,21,-1
 117 0 l 1,22,-1
 87 0 l 1,23,-1
 87 500 l 1,24,-1
 115 500 l 1,25,-1
 116 383 l 1,26,27
 138 441 138 441 191 475.5 c 128,-1,28
 244 510 244 510 313 510 c 0,29,30
 385 510 385 510 433.5 475.5 c 128,-1,31
 482 441 482 441 495 377 c 1,32,33
 514 437 514 437 569.5 474.5 c 128,-1,34
 625 512 625 512 697 512 c 0,0,1
EndSplineSet
Substitution2: "'smcp' Lowercase to Small Capitals lookup 12 subtable" m.sc
Substitution2: "'aalt' Access All Alternates lookup 0 subtable" m.sc
EndChar

StartChar: n
Encoding: 110 110 81
Width: 584
GlyphClass: 2
Flags: W
AnchorPoint: "Anchor-0" 327 0 basechar 0
LayerCount: 2
Fore
SplineSet
315 510 m 0,0,1
 401 510 401 510 452 462 c 128,-1,2
 503 414 503 414 503 327 c 2,3,-1
 503 0 l 1,4,-1
 473 0 l 1,5,-1
 473 319 l 2,6,7
 473 399 473 399 429.5 441.5 c 128,-1,8
 386 484 386 484 311 484 c 0,9,10
 229 484 229 484 173 429.5 c 128,-1,11
 117 375 117 375 117 293 c 2,12,-1
 117 0 l 1,13,-1
 87 0 l 1,14,-1
 87 500 l 1,15,-1
 115 500 l 1,16,-1
 116 382 l 1,17,18
 137 441 137 441 190.5 475.5 c 128,-1,19
 244 510 244 510 315 510 c 0,0,1
EndSplineSet
Substitution2: "Single Substitution lookup 57 subtable" n.swsh
Substitution2: "'swsh' Swash lookup 38 subtable" n.swsh
Substitution2: "'smcp' Lowercase to Small Capitals lookup 12 subtable" n.sc
AlternateSubs2: "'aalt' Access All Alternates lookup 1 subtable" n.sc n.swsh
EndChar

StartChar: o
Encoding: 111 111 82
Width: 578
GlyphClass: 2
Flags: W
LayerCount: 2
Fore
SplineSet
289 510 m 128,-1,1
 399 510 399 510 461.5 440.5 c 128,-1,2
 524 371 524 371 524 250 c 128,-1,3
 524 129 524 129 461.5 59.5 c 128,-1,4
 399 -10 399 -10 289 -10 c 128,-1,5
 179 -10 179 -10 116 59.5 c 128,-1,6
 53 129 53 129 53 250 c 128,-1,7
 53 371 53 371 116 440.5 c 128,-1,0
 179 510 179 510 289 510 c 128,-1,1
289 484 m 128,-1,9
 193 484 193 484 138 421.5 c 128,-1,10
 83 359 83 359 83 250 c 128,-1,11
 83 141 83 141 138 78.5 c 128,-1,12
 193 16 193 16 289 16 c 128,-1,13
 385 16 385 16 439.5 78 c 128,-1,14
 494 140 494 140 494 250 c 128,-1,15
 494 360 494 360 439.5 422 c 128,-1,8
 385 484 385 484 289 484 c 128,-1,9
EndSplineSet
Substitution2: "Single Substitution lookup 55 subtable" ordmasculine
Substitution2: "'smcp' Lowercase to Small Capitals lookup 12 subtable" o.sc
AlternateSubs2: "'aalt' Access All Alternates lookup 1 subtable" o.sc ordmasculine
EndChar

StartChar: p
Encoding: 112 112 83
Width: 595
GlyphClass: 2
Flags: W
LayerCount: 2
Fore
SplineSet
312 510 m 0,0,1
 419 510 419 510 480 441 c 128,-1,2
 541 372 541 372 541 250 c 128,-1,3
 541 128 541 128 480 59 c 128,-1,4
 419 -10 419 -10 312 -10 c 0,5,6
 240 -10 240 -10 189 26.5 c 128,-1,7
 138 63 138 63 117 129 c 1,8,-1
 117 -210 l 1,9,-1
 87 -210 l 1,10,-1
 87 500 l 1,11,-1
 115 500 l 1,12,-1
 116 366 l 1,13,14
 136 434 136 434 187.5 472 c 128,-1,15
 239 510 239 510 312 510 c 0,0,1
308 16 m 0,16,17
 404 16 404 16 457.5 78 c 128,-1,18
 511 140 511 140 511 250 c 128,-1,19
 511 360 511 360 457.5 422 c 128,-1,20
 404 484 404 484 308 484 c 0,21,22
 221 484 221 484 169 422 c 128,-1,23
 117 360 117 360 117 254 c 2,24,-1
 117 246 l 2,25,26
 117 140 117 140 169 78 c 128,-1,27
 221 16 221 16 308 16 c 0,16,17
EndSplineSet
Substitution2: "'smcp' Lowercase to Small Capitals lookup 12 subtable" p.sc
Substitution2: "'aalt' Access All Alternates lookup 0 subtable" p.sc
EndChar

StartChar: q
Encoding: 113 113 84
Width: 596
GlyphClass: 2
Flags: W
LayerCount: 2
Fore
SplineSet
481 500 m 1,0,-1
 509 500 l 1,1,-1
 509 -210 l 1,2,-1
 479 -210 l 1,3,-1
 479 129 l 1,4,5
 458 63 458 63 406.5 26.5 c 128,-1,6
 355 -10 355 -10 283 -10 c 0,7,8
 176 -10 176 -10 115.5 59 c 128,-1,9
 55 128 55 128 55 250 c 128,-1,10
 55 372 55 372 115.5 441 c 128,-1,11
 176 510 176 510 283 510 c 0,12,13
 357 510 357 510 408.5 472 c 128,-1,14
 460 434 460 434 480 366 c 1,15,-1
 481 500 l 1,0,-1
479 246 m 2,16,-1
 479 254 l 2,17,18
 479 360 479 360 427 422 c 128,-1,19
 375 484 375 484 288 484 c 0,20,21
 192 484 192 484 138.5 422 c 128,-1,22
 85 360 85 360 85 250 c 128,-1,23
 85 140 85 140 138.5 78 c 128,-1,24
 192 16 192 16 288 16 c 0,25,26
 375 16 375 16 427 78 c 128,-1,27
 479 140 479 140 479 246 c 2,16,-1
EndSplineSet
Substitution2: "'smcp' Lowercase to Small Capitals lookup 12 subtable" q.sc
Substitution2: "'aalt' Access All Alternates lookup 0 subtable" q.sc
EndChar

StartChar: r
Encoding: 114 114 85
Width: 357
GlyphClass: 2
Flags: W
AnchorPoint: "Anchor-0" 108 0 basechar 0
LayerCount: 2
Fore
SplineSet
279 510 m 0,0,1
 323 510 323 510 347 489 c 1,2,-1
 336 463 l 1,3,4
 314 483 314 483 272 483 c 0,5,6
 208 483 208 483 162.5 424.5 c 128,-1,7
 117 366 117 366 117 286 c 2,8,-1
 117 0 l 1,9,-1
 87 0 l 1,10,-1
 87 500 l 1,11,-1
 113 500 l 1,12,-1
 116 383 l 1,13,14
 135 440 135 440 178 475 c 128,-1,15
 221 510 221 510 279 510 c 0,0,1
EndSplineSet
Substitution2: "Single Substitution lookup 57 subtable" r.swsh
Substitution2: "'swsh' Swash lookup 38 subtable" r.swsh
Substitution2: "'smcp' Lowercase to Small Capitals lookup 12 subtable" r.sc
AlternateSubs2: "'aalt' Access All Alternates lookup 1 subtable" r.sc r.swsh
EndChar

StartChar: s
Encoding: 115 115 86
Width: 490
GlyphClass: 2
Flags: W
AnchorPoint: "Anchor-0" 258 0 basechar 0
LayerCount: 2
Fore
SplineSet
245 -10 m 0,0,1
 167 -10 167 -10 112 20.5 c 128,-1,2
 57 51 57 51 39 109 c 1,3,-1
 65 125 l 1,4,5
 79 72 79 72 127.5 44 c 128,-1,6
 176 16 176 16 249 16 c 0,7,8
 324 16 324 16 367.5 46 c 128,-1,9
 411 76 411 76 411 126 c 0,10,11
 411 168 411 168 375 193.5 c 128,-1,12
 339 219 339 219 249 234 c 0,13,14
 145 252 145 252 103 283 c 128,-1,15
 61 314 61 314 61 371 c 0,16,17
 61 430 61 430 113.5 470 c 128,-1,18
 166 510 166 510 248 510 c 0,19,20
 406 510 406 510 436 386 c 1,21,-1
 410 371 l 1,22,23
 384 484 384 484 248 484 c 0,24,25
 180 484 180 484 135.5 452.5 c 128,-1,26
 91 421 91 421 91 376 c 0,27,28
 91 329 91 329 128 302.5 c 128,-1,29
 165 276 165 276 258 261 c 0,30,31
 359 244 359 244 400 213 c 128,-1,32
 441 182 441 182 441 127 c 0,33,34
 441 64 441 64 388 27 c 128,-1,35
 335 -10 335 -10 245 -10 c 0,0,1
EndSplineSet
Substitution2: "'hist' Historical Forms lookup 44 subtable" longs
Substitution2: "'smcp' Lowercase to Small Capitals lookup 12 subtable" s.sc
AlternateSubs2: "'aalt' Access All Alternates lookup 1 subtable" s.sc longs
EndChar

StartChar: t
Encoding: 116 116 87
Width: 349
GlyphClass: 2
Flags: W
AnchorPoint: "Anchor-0" 228 0 basechar 0
LayerCount: 2
Fore
SplineSet
330 54 m 1,0,-1
 343 30 l 1,1,2
 303 -10 303 -10 240 -10 c 0,3,4
 116 -10 116 -10 115 126 c 2,5,-1
 115 474 l 1,6,-1
 15 474 l 1,7,-1
 15 500 l 1,8,-1
 115 500 l 1,9,-1
 115 628 l 1,10,-1
 145 637 l 1,11,-1
 145 500 l 1,12,-1
 337 500 l 1,13,-1
 337 474 l 1,14,-1
 145 474 l 1,15,-1
 145 129 l 2,16,17
 145 17 145 17 243 17 c 0,18,19
 296 17 296 17 330 54 c 1,0,-1
EndSplineSet
Substitution2: "Single Substitution lookup 57 subtable" t.swsh
Substitution2: "'swsh' Swash lookup 38 subtable" t.swsh
Substitution2: "'smcp' Lowercase to Small Capitals lookup 12 subtable" t.sc
AlternateSubs2: "'aalt' Access All Alternates lookup 1 subtable" t.sc t.swsh
EndChar

StartChar: u
Encoding: 117 117 88
Width: 576
GlyphClass: 2
Flags: W
LayerCount: 2
Fore
SplineSet
459 500 m 1,0,-1
 489 500 l 1,1,-1
 489 0 l 1,2,-1
 461 0 l 1,3,-1
 460 117 l 1,4,5
 439 59 439 59 385 24.5 c 128,-1,6
 331 -10 331 -10 258 -10 c 0,7,8
 175 -10 175 -10 128 36 c 128,-1,9
 81 82 81 82 81 168 c 2,10,-1
 81 500 l 1,11,-1
 111 500 l 1,12,-1
 111 174 l 2,13,14
 111 97 111 97 150.5 56.5 c 128,-1,15
 190 16 190 16 263 16 c 0,16,17
 354 16 354 16 406.5 74 c 128,-1,18
 459 132 459 132 459 203 c 2,19,-1
 459 500 l 1,0,-1
EndSplineSet
Substitution2: "'smcp' Lowercase to Small Capitals lookup 12 subtable" u.sc
Substitution2: "'aalt' Access All Alternates lookup 0 subtable" u.sc
EndChar

StartChar: v
Encoding: 118 118 89
Width: 490
GlyphClass: 2
Flags: W
LayerCount: 2
Fore
SplineSet
437 500 m 1,0,-1
 470 500 l 1,1,-1
 260 0 l 1,2,-1
 229 0 l 1,3,-1
 20 500 l 1,4,-1
 54 500 l 1,5,-1
 245 33 l 1,6,-1
 437 500 l 1,0,-1
EndSplineSet
Substitution2: "'smcp' Lowercase to Small Capitals lookup 12 subtable" v.sc
Substitution2: "'aalt' Access All Alternates lookup 0 subtable" v.sc
EndChar

StartChar: w
Encoding: 119 119 90
Width: 796
GlyphClass: 2
Flags: W
LayerCount: 2
Fore
SplineSet
732 500 m 1,0,-1
 765 500 l 1,1,-1
 597 0 l 1,2,-1
 567 0 l 1,3,-1
 397 461 l 1,4,-1
 229 0 l 1,5,-1
 199 0 l 1,6,-1
 31 500 l 1,7,-1
 64 500 l 1,8,-1
 214 37 l 1,9,-1
 383 500 l 1,10,-1
 413 500 l 1,11,-1
 582 37 l 1,12,-1
 732 500 l 1,0,-1
EndSplineSet
Substitution2: "'smcp' Lowercase to Small Capitals lookup 12 subtable" w.sc
Substitution2: "'aalt' Access All Alternates lookup 0 subtable" w.sc
EndChar

StartChar: x
Encoding: 120 120 91
Width: 485
GlyphClass: 2
Flags: W
LayerCount: 2
Fore
SplineSet
470 0 m 1,0,-1
 430 0 l 1,1,-1
 241 235 l 1,2,-1
 59 0 l 1,3,-1
 21 0 l 1,4,-1
 223 258 l 1,5,-1
 29 500 l 1,6,-1
 70 500 l 1,7,-1
 243 284 l 1,8,-1
 409 500 l 1,9,-1
 447 500 l 1,10,-1
 262 261 l 1,11,-1
 470 0 l 1,0,-1
EndSplineSet
Substitution2: "'smcp' Lowercase to Small Capitals lookup 12 subtable" x.sc
Substitution2: "'aalt' Access All Alternates lookup 0 subtable" x.sc
EndChar

StartChar: y
Encoding: 121 121 92
Width: 493
GlyphClass: 2
Flags: W
LayerCount: 2
Fore
SplineSet
472 500 m 1,0,-1
 226 -97 l 2,1,2
 199 -163 199 -163 167 -189 c 128,-1,3
 135 -215 135 -215 85 -215 c 0,4,5
 25 -215 25 -215 0 -181 c 1,6,-1
 13 -156 l 1,7,8
 35 -189 35 -189 86 -189 c 0,9,10
 124 -189 124 -189 150.5 -167.5 c 128,-1,11
 177 -146 177 -146 199 -91 c 2,12,-1
 236 -1 l 1,13,-1
 182 126 l 1,14,-1
 24 500 l 1,15,-1
 58 500 l 1,16,-1
 230 85 l 1,17,-1
 251 33 l 1,18,-1
 272 88 l 1,19,-1
 439 500 l 1,20,-1
 472 500 l 1,0,-1
EndSplineSet
Substitution2: "Single Substitution lookup 57 subtable" y.swsh
Substitution2: "'swsh' Swash lookup 38 subtable" y.swsh
Substitution2: "'smcp' Lowercase to Small Capitals lookup 12 subtable" y.sc
AlternateSubs2: "'aalt' Access All Alternates lookup 1 subtable" y.sc y.swsh
EndChar

StartChar: z
Encoding: 122 122 93
Width: 486
GlyphClass: 2
Flags: W
LayerCount: 2
Fore
SplineSet
43 0 m 1,0,-1
 43 24 l 1,1,-1
 359 422 l 1,2,-1
 404 474 l 1,3,-1
 37 474 l 1,4,-1
 37 500 l 1,5,-1
 438 500 l 1,6,-1
 438 476 l 1,7,-1
 137 94 l 1,8,-1
 79 26 l 1,9,-1
 452 26 l 1,10,-1
 452 0 l 1,11,-1
 43 0 l 1,0,-1
EndSplineSet
Substitution2: "'smcp' Lowercase to Small Capitals lookup 12 subtable" z.sc
Substitution2: "'aalt' Access All Alternates lookup 0 subtable" z.sc
EndChar

StartChar: braceleft
Encoding: 123 123 94
Width: 279
GlyphClass: 2
Flags: W
LayerCount: 2
Fore
SplineSet
155 -61 m 2,0,1
 155 -103 155 -103 181 -126 c 128,-1,2
 207 -149 207 -149 255 -149 c 1,3,-1
 252 -174 l 1,4,5
 191 -174 191 -174 158.5 -144 c 128,-1,6
 126 -114 126 -114 126 -60 c 2,7,-1
 126 176 l 2,8,9
 126 223 126 223 96.5 247.5 c 128,-1,10
 67 272 67 272 12 272 c 1,11,-1
 12 297 l 1,12,13
 67 297 67 297 96.5 321.5 c 128,-1,14
 126 346 126 346 126 393 c 2,15,-1
 126 628 l 2,16,17
 126 682 126 682 158.5 712 c 128,-1,18
 191 742 191 742 252 742 c 1,19,-1
 255 717 l 1,20,21
 206 717 206 717 180.5 694 c 128,-1,22
 155 671 155 671 155 629 c 2,23,-1
 155 392 l 2,24,25
 155 307 155 307 69 285 c 1,26,27
 155 262 155 262 155 177 c 2,28,-1
 155 -61 l 2,0,1
EndSplineSet
Substitution2: "'case' Case-Sensitive Forms lookup 29 subtable" braceleft.case
Substitution2: "'aalt' Access All Alternates lookup 0 subtable" braceleft.case
EndChar

StartChar: bar
Encoding: 124 124 95
Width: 184
GlyphClass: 2
Flags: W
LayerCount: 2
Fore
SplineSet
105 730 m 1,0,-1
 105 -168 l 1,1,-1
 78 -168 l 1,2,-1
 78 730 l 1,3,-1
 105 730 l 1,0,-1
EndSplineSet
Substitution2: "'case' Case-Sensitive Forms lookup 29 subtable" bar.case
Substitution2: "'aalt' Access All Alternates lookup 0 subtable" bar.case
EndChar

StartChar: braceright
Encoding: 125 125 96
Width: 279
GlyphClass: 2
Flags: W
LayerCount: 2
Fore
SplineSet
153 393 m 2,0,1
 153 347 153 347 182.5 322 c 128,-1,2
 212 297 212 297 267 297 c 1,3,-1
 267 272 l 1,4,5
 212 272 212 272 182.5 247 c 128,-1,6
 153 222 153 222 153 176 c 2,7,-1
 153 -60 l 2,8,9
 153 -115 153 -115 121 -144.5 c 128,-1,10
 89 -174 89 -174 27 -174 c 1,11,-1
 25 -149 l 1,12,13
 73 -149 73 -149 98.5 -126 c 128,-1,14
 124 -103 124 -103 124 -61 c 2,15,-1
 124 177 l 2,16,17
 124 262 124 262 211 285 c 1,18,19
 124 307 124 307 124 392 c 2,20,-1
 124 629 l 2,21,22
 124 671 124 671 98.5 694 c 128,-1,23
 73 717 73 717 25 717 c 1,24,-1
 27 742 l 1,25,26
 89 742 89 742 121 712.5 c 128,-1,27
 153 683 153 683 153 628 c 2,28,-1
 153 393 l 2,0,1
EndSplineSet
Substitution2: "'case' Case-Sensitive Forms lookup 29 subtable" braceright.case
Substitution2: "'aalt' Access All Alternates lookup 0 subtable" braceright.case
EndChar

StartChar: asciitilde
Encoding: 126 126 97
Width: 492
GlyphClass: 2
Flags: W
LayerCount: 2
Fore
SplineSet
449 393 m 1,0,1
 437 287 437 287 347 287 c 0,2,3
 300 287 300 287 242 324 c 128,-1,4
 184 361 184 361 147 361 c 0,5,6
 86 361 86 361 72 282 c 1,7,-1
 43 282 l 1,8,9
 56 388 56 388 146 388 c 0,10,11
 192 388 192 388 250.5 351 c 128,-1,12
 309 314 309 314 345 314 c 0,13,14
 406 314 406 314 420 393 c 1,15,-1
 449 393 l 1,0,1
EndSplineSet
EndChar

StartChar: exclamdown
Encoding: 161 161 99
Width: 194
GlyphClass: 2
Flags: W
LayerCount: 2
Fore
SplineSet
97 443 m 128,-1,1
 83 443 83 443 74 452 c 128,-1,2
 65 461 65 461 65 475 c 128,-1,3
 65 489 65 489 74 497.5 c 128,-1,4
 83 506 83 506 97 506 c 128,-1,5
 111 506 111 506 119.5 497.5 c 128,-1,6
 128 489 128 489 128 475 c 128,-1,7
 128 461 128 461 119.5 452 c 128,-1,0
 111 443 111 443 97 443 c 128,-1,1
81 -160 m 1,8,-1
 81 182 l 1,9,-1
 84 322 l 1,10,-1
 110 322 l 1,11,-1
 112 182 l 1,12,-1
 112 -160 l 1,13,-1
 81 -160 l 1,8,-1
EndSplineSet
Substitution2: "'case' Case-Sensitive Forms lookup 29 subtable" exclamdown.case
Substitution2: "'smcp' Lowercase to Small Capitals lookup 12 subtable" exclamdown.sc
Substitution2: "'c2sc' Capitals to Small Capitals lookup 11 subtable" exclamdown.sc
AlternateSubs2: "'aalt' Access All Alternates lookup 1 subtable" exclamdown.sc exclamdown.case
EndChar

StartChar: cent
Encoding: 162 162 100
Width: 604
GlyphClass: 2
Flags: W
LayerCount: 2
Fore
SplineSet
524 137 m 1,0,1
 508 72 508 72 454 32 c 128,-1,2
 400 -8 400 -8 325 -10 c 1,3,-1
 325 -100 l 1,4,-1
 299 -100 l 1,5,-1
 299 -9 l 1,6,7
 199 -3 199 -3 143.5 65 c 128,-1,8
 88 133 88 133 88 250 c 0,9,10
 88 366 88 366 143.5 434 c 128,-1,11
 199 502 199 502 299 509 c 1,12,-1
 299 600 l 1,13,-1
 325 600 l 1,14,-1
 325 510 l 1,15,16
 398 509 398 509 449 473.5 c 128,-1,17
 500 438 500 438 519 374 c 1,18,-1
 492 361 l 1,19,20
 475 419 475 419 432 451.5 c 128,-1,21
 389 484 389 484 325 485 c 1,22,-1
 325 15 l 1,23,24
 390 17 390 17 438 52.5 c 128,-1,25
 486 88 486 88 497 147 c 1,26,-1
 524 137 l 1,0,1
117 250 m 0,27,28
 117 145 117 145 164.5 83.5 c 128,-1,29
 212 22 212 22 299 16 c 1,30,-1
 299 484 l 1,31,32
 213 477 213 477 165 415.5 c 128,-1,33
 117 354 117 354 117 250 c 0,27,28
EndSplineSet
Substitution2: "'tnum' Tabular Numbers lookup 26 subtable" cent.tf
Substitution2: "'aalt' Access All Alternates lookup 0 subtable" cent.tf
EndChar

StartChar: sterling
Encoding: 163 163 101
Width: 604
GlyphClass: 2
Flags: W
LayerCount: 2
Fore
SplineSet
527 123 m 1,0,-1
 553 123 l 1,1,2
 553 56 553 56 520 23 c 128,-1,3
 487 -10 487 -10 429 -10 c 0,4,5
 398 -10 398 -10 369 2 c 128,-1,6
 340 14 340 14 326.5 24 c 128,-1,7
 313 34 313 34 286 57 c 1,8,9
 242 -10 242 -10 165 -10 c 0,10,11
 123 -10 123 -10 99 9 c 128,-1,12
 75 28 75 28 75 60 c 0,13,14
 75 93 75 93 100.5 113.5 c 128,-1,15
 126 134 126 134 172 134 c 0,16,17
 228 134 228 134 279 94 c 1,18,19
 291 122 291 122 291 158 c 0,20,21
 291 224 291 224 244 298 c 1,22,-1
 114 298 l 1,23,-1
 114 323 l 1,24,-1
 227 323 l 1,25,26
 170 407 170 407 170 483 c 0,27,28
 170 567 170 567 221.5 618.5 c 128,-1,29
 273 670 273 670 356 670 c 0,30,31
 426 670 426 670 470.5 631 c 128,-1,32
 515 592 515 592 525 523 c 1,33,-1
 498 510 l 1,34,35
 490 571 490 571 452 607 c 128,-1,36
 414 643 414 643 355 643 c 0,37,38
 283 643 283 643 240.5 600 c 128,-1,39
 198 557 198 557 198 486 c 0,40,41
 198 447 198 447 210.5 413.5 c 128,-1,42
 223 380 223 380 256 328 c 0,43,44
 258 324 258 324 259 323 c 2,45,-1
 472 323 l 1,46,-1
 472 298 l 1,47,-1
 275 298 l 1,48,49
 317 224 317 224 316 159 c 0,50,51
 316 114 316 114 298 78 c 1,52,53
 323 56 323 56 335 46.5 c 128,-1,54
 347 37 347 37 373 26 c 128,-1,55
 399 15 399 15 426 15 c 0,56,57
 525 15 525 15 527 123 c 1,0,-1
168 13 m 0,58,59
 232 13 232 13 268 72 c 1,60,61
 219 110 219 110 173 110 c 0,62,63
 139 110 139 110 121 96.5 c 128,-1,64
 103 83 103 83 103 60 c 0,65,66
 103 38 103 38 120 25.5 c 128,-1,67
 137 13 137 13 168 13 c 0,58,59
EndSplineSet
Substitution2: "'tnum' Tabular Numbers lookup 26 subtable" sterling.tf
Substitution2: "'aalt' Access All Alternates lookup 0 subtable" sterling.tf
EndChar

StartChar: currency
Encoding: 164 164 102
Width: 604
GlyphClass: 2
Flags: W
LayerCount: 2
Fore
SplineSet
485 332 m 0,0,1
 485 255 485 255 445 206 c 1,2,-1
 546 105 l 1,3,-1
 526 86 l 1,4,-1
 426 185 l 1,5,6
 377 141 377 141 302 141 c 128,-1,7
 227 141 227 141 177 185 c 1,8,-1
 78 86 l 1,9,-1
 58 106 l 1,10,-1
 158 206 l 1,11,12
 118 257 118 257 118 332 c 0,13,14
 118 405 118 405 157 455 c 1,15,-1
 58 553 l 1,16,-1
 78 574 l 1,17,-1
 176 476 l 1,18,19
 226 521 226 521 302 521 c 128,-1,20
 378 521 378 521 428 476 c 1,21,-1
 526 574 l 1,22,-1
 546 554 l 1,23,-1
 447 455 l 1,24,25
 485 406 485 406 485 332 c 0,0,1
302 168 m 128,-1,27
 372 168 372 168 413.5 212.5 c 128,-1,28
 455 257 455 257 455 332 c 0,29,30
 455 406 455 406 413.5 450 c 128,-1,31
 372 494 372 494 302 494 c 128,-1,32
 232 494 232 494 190 449.5 c 128,-1,33
 148 405 148 405 148 332 c 0,34,35
 148 257 148 257 190 212.5 c 128,-1,26
 232 168 232 168 302 168 c 128,-1,27
EndSplineSet
Substitution2: "'tnum' Tabular Numbers lookup 26 subtable" currency.tf
Substitution2: "'aalt' Access All Alternates lookup 0 subtable" currency.tf
EndChar

StartChar: yen
Encoding: 165 165 103
Width: 604
GlyphClass: 2
Flags: W
LayerCount: 2
Fore
SplineSet
325 275 m 1,0,-1
 345 276 l 1,1,-1
 520 276 l 1,2,-1
 520 252 l 1,3,-1
 316 252 l 1,4,-1
 316 150 l 1,5,-1
 520 150 l 1,6,-1
 520 127 l 1,7,-1
 316 127 l 1,8,-1
 316 0 l 1,9,-1
 288 0 l 1,10,-1
 288 127 l 1,11,-1
 85 127 l 1,12,-1
 85 150 l 1,13,-1
 288 150 l 1,14,-1
 288 252 l 1,15,-1
 85 252 l 1,16,-1
 85 276 l 1,17,-1
 260 276 l 1,18,-1
 279 275 l 1,19,-1
 54 660 l 1,20,-1
 89 660 l 1,21,-1
 280 323 l 1,22,-1
 301 283 l 1,23,-1
 303 283 l 1,24,-1
 324 323 l 1,25,-1
 515 660 l 1,26,-1
 550 660 l 1,27,-1
 325 275 l 1,0,-1
EndSplineSet
Substitution2: "'tnum' Tabular Numbers lookup 26 subtable" yen.tf
Substitution2: "'aalt' Access All Alternates lookup 0 subtable" yen.tf
EndChar

StartChar: brokenbar
Encoding: 166 166 104
Width: 197
GlyphClass: 2
Flags: W
LayerCount: 2
Fore
SplineSet
112 730 m 1,0,-1
 112 365 l 1,1,-1
 85 365 l 1,2,-1
 85 730 l 1,3,-1
 112 730 l 1,0,-1
112 197 m 1,4,-1
 112 -168 l 1,5,-1
 85 -168 l 1,6,-1
 85 197 l 1,7,-1
 112 197 l 1,4,-1
EndSplineSet
EndChar

StartChar: section
Encoding: 167 167 105
Width: 550
GlyphClass: 2
Flags: W
LayerCount: 2
Fore
SplineSet
518 267 m 0,0,1
 518 221 518 221 485.5 188.5 c 128,-1,2
 453 156 453 156 401 141 c 1,3,4
 465 106 465 106 465 31 c 0,5,6
 465 -29 465 -29 415 -69.5 c 128,-1,7
 365 -110 365 -110 278 -110 c 0,8,9
 135 -110 135 -110 95 -22 c 1,10,-1
 118 -4 l 1,11,12
 148 -84 148 -84 278 -84 c 0,13,14
 352 -84 352 -84 393.5 -52.5 c 128,-1,15
 435 -21 435 -21 435 29 c 0,16,17
 435 82 435 82 393.5 110.5 c 128,-1,18
 352 139 352 139 246 155 c 0,19,20
 135 171 135 171 90 202.5 c 128,-1,21
 45 234 45 234 45 293 c 0,22,23
 45 339 45 339 77.5 371 c 128,-1,24
 110 403 110 403 162 419 c 1,25,26
 98 454 98 454 98 529 c 0,27,28
 98 589 98 589 148 629.5 c 128,-1,29
 198 670 198 670 286 670 c 0,30,31
 429 670 429 670 468 582 c 1,32,-1
 446 564 l 1,33,34
 414 644 414 644 286 644 c 0,35,36
 211 644 211 644 169.5 612.5 c 128,-1,37
 128 581 128 581 128 531 c 0,38,39
 128 478 128 478 169.5 449.5 c 128,-1,40
 211 421 211 421 317 405 c 0,41,42
 428 389 428 389 473 357.5 c 128,-1,43
 518 326 518 326 518 267 c 0,0,1
368 156 m 1,44,45
 419 168 419 168 453.5 195.5 c 128,-1,46
 488 223 488 223 488 266 c 0,47,48
 488 313 488 313 449 338 c 128,-1,49
 410 363 410 363 310 378 c 0,50,51
 242 387 242 387 194 404 c 1,52,53
 143 391 143 391 109 364 c 128,-1,54
 75 337 75 337 75 294 c 0,55,56
 75 248 75 248 114 223 c 128,-1,57
 153 198 153 198 253 182 c 0,58,59
 327 171 327 171 368 156 c 1,44,45
EndSplineSet
EndChar

StartChar: dieresis
Encoding: 168 168 106
Width: 539
GlyphClass: 2
Flags: W
LayerCount: 2
Fore
SplineSet
177 654 m 128,-1,1
 190 654 190 654 198.5 646 c 128,-1,2
 207 638 207 638 207 624 c 0,3,4
 207 611 207 611 198.5 603 c 128,-1,5
 190 595 190 595 177 595 c 128,-1,6
 164 595 164 595 155.5 603 c 128,-1,7
 147 611 147 611 147 624 c 128,-1,8
 147 637 147 637 155.5 645.5 c 128,-1,0
 164 654 164 654 177 654 c 128,-1,1
363 654 m 128,-1,10
 376 654 376 654 384.5 646 c 128,-1,11
 393 638 393 638 393 624 c 0,12,13
 393 611 393 611 384.5 603 c 128,-1,14
 376 595 376 595 363 595 c 128,-1,15
 350 595 350 595 342 603 c 128,-1,16
 334 611 334 611 334 624 c 128,-1,17
 334 637 334 637 342 645.5 c 128,-1,9
 350 654 350 654 363 654 c 128,-1,10
EndSplineSet
EndChar

StartChar: copyright
Encoding: 169 169 107
Width: 801
GlyphClass: 2
Flags: W
LayerCount: 2
Fore
SplineSet
401 670 m 128,-1,1
 555 670 555 670 649 576.5 c 128,-1,2
 743 483 743 483 743 330 c 128,-1,3
 743 177 743 177 649 83.5 c 128,-1,4
 555 -10 555 -10 401 -10 c 128,-1,5
 247 -10 247 -10 153 83.5 c 128,-1,6
 59 177 59 177 59 330 c 128,-1,7
 59 483 59 483 153 576.5 c 128,-1,0
 247 670 247 670 401 670 c 128,-1,1
401 645 m 0,8,9
 259 645 259 645 173 558.5 c 128,-1,10
 87 472 87 472 87 330 c 128,-1,11
 87 188 87 188 173 101.5 c 128,-1,12
 259 15 259 15 401 15 c 0,13,14
 542 15 542 15 628.5 101.5 c 128,-1,15
 715 188 715 188 715 330 c 128,-1,16
 715 472 715 472 628.5 558.5 c 128,-1,17
 542 645 542 645 401 645 c 0,8,9
412 513 m 0,18,19
 527 513 527 513 562 414 c 1,20,-1
 538 402 l 1,21,22
 511 489 511 489 411 489 c 0,23,24
 339 489 339 489 298 446.5 c 128,-1,25
 257 404 257 404 257 328 c 128,-1,26
 257 252 257 252 298 209.5 c 128,-1,27
 339 167 339 167 411 167 c 0,28,29
 461 167 461 167 496.5 192.5 c 128,-1,30
 532 218 532 218 543 261 c 1,31,-1
 567 252 l 1,32,33
 552 202 552 202 510.5 172.5 c 128,-1,34
 469 143 469 143 412 143 c 0,35,36
 326 143 326 143 278 192 c 128,-1,37
 230 241 230 241 230 328 c 128,-1,38
 230 415 230 415 278 464 c 128,-1,39
 326 513 326 513 412 513 c 0,18,19
EndSplineSet
EndChar

StartChar: ordfeminine
Encoding: 170 170 108
Width: 359
GlyphClass: 2
Flags: W
LayerCount: 2
Fore
SplineSet
325 348 m 0,0,1
 341 348 341 348 351 353 c 1,2,-1
 350 333 l 1,3,4
 336 326 336 326 320 326 c 0,5,6
 268 326 268 326 268 388 c 1,7,8
 254 359 254 359 217 342.5 c 128,-1,9
 180 326 180 326 138 326 c 0,10,11
 88 326 88 326 59.5 347.5 c 128,-1,12
 31 369 31 369 31 408 c 0,13,14
 31 484 31 484 157 506 c 2,15,-1
 266 525 l 1,16,-1
 266 554 l 2,17,18
 266 595 266 595 240.5 618.5 c 128,-1,19
 215 642 215 642 169 642 c 0,20,21
 84 642 84 642 58 573 c 1,22,-1
 37 583 l 1,23,24
 62 665 62 665 169 665 c 0,25,26
 228 665 228 665 261 637 c 128,-1,27
 294 609 294 609 294 556 c 2,28,-1
 294 388 l 2,29,30
 294 348 294 348 325 348 c 0,0,1
142 349 m 0,31,32
 187 349 187 349 226.5 373 c 128,-1,33
 266 397 266 397 266 438 c 2,34,-1
 266 505 l 1,35,-1
 167 487 l 2,36,37
 109 477 109 477 83.5 458 c 128,-1,38
 58 439 58 439 58 409 c 0,39,40
 58 349 58 349 142 349 c 0,31,32
35 218 m 1,41,-1
 35 241 l 1,42,-1
 337 241 l 1,43,-1
 337 218 l 1,44,-1
 35 218 l 1,41,-1
EndSplineSet
EndChar

StartChar: guillemotleft
Encoding: 171 171 109
Width: 404
GlyphClass: 2
Flags: W
LayerCount: 2
Fore
SplineSet
223 461 m 1,0,-1
 81 265 l 1,1,-1
 223 69 l 1,2,-1
 187 69 l 1,3,-1
 47 265 l 1,4,-1
 187 461 l 1,5,-1
 223 461 l 1,0,-1
354 461 m 1,6,-1
 212 265 l 1,7,-1
 354 69 l 1,8,-1
 318 69 l 1,9,-1
 178 265 l 1,10,-1
 318 461 l 1,11,-1
 354 461 l 1,6,-1
EndSplineSet
Substitution2: "'case' Case-Sensitive Forms lookup 29 subtable" guillemotleft.case
Substitution2: "'aalt' Access All Alternates lookup 0 subtable" guillemotleft.case
EndChar

StartChar: logicalnot
Encoding: 172 172 110
Width: 604
GlyphClass: 2
Flags: W
LayerCount: 2
Fore
SplineSet
73 330 m 1,0,-1
 531 330 l 1,1,-1
 531 166 l 1,2,-1
 501 166 l 1,3,-1
 501 302 l 1,4,-1
 73 302 l 1,5,-1
 73 330 l 1,0,-1
EndSplineSet
EndChar

StartChar: uni00AD
Encoding: 173 173 111
Width: 437
GlyphClass: 2
Flags: W
LayerCount: 2
Fore
SplineSet
365 283 m 1,0,-1
 365 253 l 1,1,-1
 73 253 l 1,2,-1
 73 283 l 1,3,-1
 365 283 l 1,0,-1
EndSplineSet
EndChar

StartChar: registered
Encoding: 174 174 112
Width: 801
GlyphClass: 2
Flags: W
LayerCount: 2
Fore
SplineSet
401 670 m 128,-1,1
 555 670 555 670 649 576.5 c 128,-1,2
 743 483 743 483 743 330 c 128,-1,3
 743 177 743 177 649 83.5 c 128,-1,4
 555 -10 555 -10 401 -10 c 128,-1,5
 247 -10 247 -10 153 83.5 c 128,-1,6
 59 177 59 177 59 330 c 128,-1,7
 59 483 59 483 153 576.5 c 128,-1,0
 247 670 247 670 401 670 c 128,-1,1
401 15 m 0,8,9
 542 15 542 15 628.5 101.5 c 128,-1,10
 715 188 715 188 715 330 c 128,-1,11
 715 472 715 472 628.5 558.5 c 128,-1,12
 542 645 542 645 401 645 c 0,13,14
 259 645 259 645 173 558.5 c 128,-1,15
 87 472 87 472 87 330 c 128,-1,16
 87 188 87 188 173 101.5 c 128,-1,17
 259 15 259 15 401 15 c 0,8,9
555 408 m 0,18,19
 555 316 555 316 455 305 c 1,20,-1
 561 143 l 1,21,-1
 531 143 l 1,22,-1
 427 304 l 1,23,-1
 304 304 l 1,24,-1
 304 143 l 1,25,-1
 277 143 l 1,26,-1
 277 513 l 1,27,-1
 431 513 l 2,28,29
 555 513 555 513 555 408 c 0,18,19
304 491 m 1,30,-1
 304 325 l 1,31,-1
 431 325 l 2,32,33
 529 327 529 327 529 408 c 0,34,35
 529 491 529 491 431 491 c 2,36,-1
 304 491 l 1,30,-1
EndSplineSet
Substitution2: "'ordn' Ordinals lookup 22 subtable" registeredsuperior
Substitution2: "'sups' Superscript lookup 15 subtable" registeredsuperior
Substitution2: "'aalt' Access All Alternates lookup 0 subtable" registeredsuperior
EndChar

StartChar: macron
Encoding: 175 175 113
Width: 539
GlyphClass: 2
Flags: W
LayerCount: 2
Fore
SplineSet
420 629 m 1,0,-1
 420 603 l 1,1,-1
 119 603 l 1,2,-1
 119 629 l 1,3,-1
 420 629 l 1,0,-1
EndSplineSet
EndChar

StartChar: degree
Encoding: 176 176 114
Width: 390
GlyphClass: 2
Flags: W
LayerCount: 2
Fore
SplineSet
195 387 m 128,-1,1
 132 387 132 387 92.5 426.5 c 128,-1,2
 53 466 53 466 53 528 c 0,3,4
 53 591 53 591 92 630.5 c 128,-1,5
 131 670 131 670 195 670 c 128,-1,6
 259 670 259 670 298 630.5 c 128,-1,7
 337 591 337 591 337 528 c 0,8,9
 337 466 337 466 297.5 426.5 c 128,-1,0
 258 387 258 387 195 387 c 128,-1,1
195 412 m 128,-1,11
 246 412 246 412 277.5 444.5 c 128,-1,12
 309 477 309 477 309 528 c 0,13,14
 309 580 309 580 277.5 612.5 c 128,-1,15
 246 645 246 645 195 645 c 128,-1,16
 144 645 144 645 112.5 612.5 c 128,-1,17
 81 580 81 580 81 528 c 0,18,19
 81 477 81 477 112.5 444.5 c 128,-1,10
 144 412 144 412 195 412 c 128,-1,11
EndSplineSet
EndChar

StartChar: plusminus
Encoding: 177 177 115
Width: 604
GlyphClass: 2
Flags: W
LayerCount: 2
Fore
SplineSet
317 387 m 1,0,-1
 531 387 l 1,1,-1
 531 360 l 1,2,-1
 317 360 l 1,3,-1
 317 117 l 1,4,-1
 288 117 l 1,5,-1
 288 360 l 1,6,-1
 73 360 l 1,7,-1
 73 387 l 1,8,-1
 288 387 l 1,9,-1
 288 626 l 1,10,-1
 317 626 l 1,11,-1
 317 387 l 1,0,-1
73 0 m 1,12,-1
 73 27 l 1,13,-1
 531 27 l 1,14,-1
 531 0 l 1,15,-1
 73 0 l 1,12,-1
EndSplineSet
EndChar

StartChar: uni00B2
Encoding: 178 178 116
Width: 337
GlyphClass: 2
Flags: W
LayerCount: 2
Fore
SplineSet
37 333 m 1,0,-1
 37 355 l 1,1,2
 80 390 80 390 147 446 c 0,3,4
 263 542 263 542 263 614 c 0,5,6
 263 658 263 658 236 684.5 c 128,-1,7
 209 711 209 711 163 711 c 0,8,9
 115 711 115 711 86.5 682.5 c 128,-1,10
 58 654 58 654 55 604 c 1,11,-1
 30 611 l 1,12,13
 34 667 34 667 69.5 701 c 128,-1,14
 105 735 105 735 164 735 c 0,15,16
 224 735 224 735 258 702 c 128,-1,17
 292 669 292 669 292 614 c 0,18,19
 292 532 292 532 165 431 c 0,20,21
 105 381 105 381 75 357 c 1,22,-1
 75 356 l 1,23,-1
 109 356 l 1,24,-1
 306 356 l 1,25,-1
 306 333 l 1,26,-1
 37 333 l 1,0,-1
EndSplineSet
EndChar

StartChar: uni00B3
Encoding: 179 179 117
Width: 318
GlyphClass: 2
Flags: W
LayerCount: 2
Fore
SplineSet
151 735 m 0,0,1
 207 735 207 735 239 705.5 c 128,-1,2
 271 676 271 676 271 629 c 0,3,4
 271 592 271 592 250.5 567 c 128,-1,5
 230 542 230 542 196 534 c 1,6,-1
 196 532 l 1,7,8
 233 528 233 528 256.5 502 c 128,-1,9
 280 476 280 476 280 438 c 0,10,11
 280 388 280 388 243.5 357.5 c 128,-1,12
 207 327 207 327 150 327 c 0,13,14
 43 327 43 327 16 419 c 1,15,-1
 41 432 l 1,16,17
 59 351 59 351 151 351 c 0,18,19
 196 351 196 351 224 374.5 c 128,-1,20
 252 398 252 398 252 440 c 0,21,22
 252 479 252 479 227 500.5 c 128,-1,23
 202 522 202 522 155 522 c 2,24,-1
 130 522 l 1,25,-1
 130 544 l 1,26,-1
 154 544 l 2,27,28
 196 544 196 544 219 567.5 c 128,-1,29
 242 591 242 591 242 627 c 0,30,31
 242 666 242 666 217.5 688.5 c 128,-1,32
 193 711 193 711 150 711 c 0,33,34
 111 711 111 711 86 692.5 c 128,-1,35
 61 674 61 674 53 641 c 1,36,-1
 28 652 l 1,37,38
 39 690 39 690 72 712.5 c 128,-1,39
 105 735 105 735 151 735 c 0,0,1
EndSplineSet
EndChar

StartChar: acute
Encoding: 180 180 118
Width: 539
GlyphClass: 2
Flags: W
LayerCount: 2
Fore
SplineSet
359 734 m 1,0,-1
 392 734 l 1,1,-1
 302 583 l 1,2,-1
 276 583 l 1,3,-1
 359 734 l 1,0,-1
EndSplineSet
EndChar

StartChar: uni00B5
Encoding: 181 181 119
Width: 562
GlyphClass: 2
Flags: W
LayerCount: 2
Fore
SplineSet
455 500 m 1,0,-1
 485 500 l 1,1,-1
 485 0 l 1,2,-1
 458 0 l 1,3,-1
 457 118 l 1,4,5
 436 60 436 60 382 25 c 128,-1,6
 328 -10 328 -10 254 -10 c 0,7,8
 148 -10 148 -10 107 78 c 1,9,-1
 107 -210 l 1,10,-1
 77 -210 l 1,11,-1
 77 500 l 1,12,-1
 107 500 l 1,13,-1
 107 174 l 2,14,15
 107 97 107 97 148 56.5 c 128,-1,16
 189 16 189 16 259 16 c 0,17,18
 342 16 342 16 397.5 68.5 c 128,-1,19
 453 121 453 121 455 196 c 2,20,-1
 455 500 l 1,0,-1
EndSplineSet
EndChar

StartChar: paragraph
Encoding: 182 182 120
Width: 547
GlyphClass: 2
Flags: W
LayerCount: 2
Fore
SplineSet
464 660 m 1,0,-1
 464 -100 l 1,1,-1
 436 -100 l 1,2,-1
 436 634 l 1,3,-1
 299 634 l 1,4,-1
 299 -100 l 1,5,-1
 271 -100 l 1,6,-1
 271 240 l 1,7,8
 163 240 163 240 97.5 297.5 c 128,-1,9
 32 355 32 355 32 450 c 128,-1,10
 32 545 32 545 97.5 602.5 c 128,-1,11
 163 660 163 660 271 660 c 2,12,-1
 464 660 l 1,0,-1
271 634 m 1,13,14
 175 634 175 634 118.5 584 c 128,-1,15
 62 534 62 534 62 450 c 128,-1,16
 62 366 62 366 118.5 316 c 128,-1,17
 175 266 175 266 271 266 c 1,18,-1
 271 634 l 1,13,14
EndSplineSet
Substitution2: "'ornm' Ornaments lookup 40 subtable" uni2761
Substitution2: "'aalt' Access All Alternates lookup 0 subtable" uni2761
EndChar

StartChar: periodcentered
Encoding: 183 183 121
Width: 199
GlyphClass: 2
Flags: W
LayerCount: 2
Fore
SplineSet
100 390 m 128,-1,1
 114 390 114 390 122.5 381.5 c 128,-1,2
 131 373 131 373 131 359 c 128,-1,3
 131 345 131 345 122.5 336.5 c 128,-1,4
 114 328 114 328 100 328 c 128,-1,5
 86 328 86 328 77 336.5 c 128,-1,6
 68 345 68 345 68 359 c 128,-1,7
 68 373 68 373 77 381.5 c 128,-1,0
 86 390 86 390 100 390 c 128,-1,1
EndSplineSet
Substitution2: "Single Substitution lookup 55 subtable" periodcentered.loclCAT.sc
Substitution2: "Single Substitution lookup 54 subtable" periodcentered.loclCAT.case
Substitution2: "Single Substitution lookup 53 subtable" periodcentered.loclCAT
Substitution2: "'case' Case-Sensitive Forms lookup 29 subtable" periodcentered.case
Substitution2: "'smcp' Lowercase to Small Capitals lookup 12 subtable" periodcentered.sc
Substitution2: "'c2sc' Capitals to Small Capitals lookup 11 subtable" periodcentered.sc
AlternateSubs2: "'aalt' Access All Alternates lookup 1 subtable" periodcentered.sc periodcentered.case
Position2: "Single Positioning lookup 6 subtable" dx=0 dy=0 dh=-30 dv=0
EndChar

StartChar: cedilla
Encoding: 184 184 122
Width: 539
GlyphClass: 2
Flags: W
LayerCount: 2
Fore
SplineSet
242 3 m 1,0,-1
 268 9 l 1,1,2
 378 -39 378 -39 378 -116 c 0,3,4
 378 -155 378 -155 352 -180 c 128,-1,5
 326 -205 326 -205 284 -205 c 0,6,7
 220 -205 220 -205 187 -164 c 1,8,-1
 199 -143 l 1,9,10
 230 -182 230 -182 282 -182 c 0,11,12
 312 -182 312 -182 331.5 -163 c 128,-1,13
 351 -144 351 -144 351 -114 c 0,14,15
 351 -81 351 -81 328 -55.5 c 128,-1,16
 305 -30 305 -30 242 3 c 1,0,-1
EndSplineSet
EndChar

StartChar: uni00B9
Encoding: 185 185 123
Width: 205
GlyphClass: 2
Flags: W
LayerCount: 2
Fore
SplineSet
124 730 m 1,0,-1
 148 730 l 1,1,-1
 148 333 l 1,2,-1
 120 333 l 1,3,-1
 120 630 l 2,4,5
 120 674 120 674 122 696 c 1,6,7
 79 647 79 647 11 625 c 1,8,-1
 11 649 l 1,9,10
 41 658 41 658 75 681 c 128,-1,11
 109 704 109 704 124 730 c 1,0,-1
EndSplineSet
EndChar

StartChar: ordmasculine
Encoding: 186 186 124
Width: 355
GlyphClass: 2
Flags: W
LayerCount: 2
Fore
SplineSet
178 327 m 128,-1,1
 105 327 105 327 70 368.5 c 128,-1,2
 35 410 35 410 35 496 c 128,-1,3
 35 582 35 582 70 623.5 c 128,-1,4
 105 665 105 665 178 665 c 128,-1,5
 251 665 251 665 286 623.5 c 128,-1,6
 321 582 321 582 321 496 c 128,-1,7
 321 410 321 410 286 368.5 c 128,-1,0
 251 327 251 327 178 327 c 128,-1,1
178 350 m 0,8,9
 237 350 237 350 265 386 c 128,-1,10
 293 422 293 422 293 496 c 128,-1,11
 293 570 293 570 265 606 c 128,-1,12
 237 642 237 642 178 642 c 0,13,14
 118 642 118 642 90.5 606.5 c 128,-1,15
 63 571 63 571 63 496 c 128,-1,16
 63 421 63 421 90.5 385.5 c 128,-1,17
 118 350 118 350 178 350 c 0,8,9
42 218 m 1,18,-1
 42 241 l 1,19,-1
 313 241 l 1,20,-1
 313 218 l 1,21,-1
 42 218 l 1,18,-1
EndSplineSet
EndChar

StartChar: guillemotright
Encoding: 187 187 125
Width: 401
GlyphClass: 2
Flags: W
LayerCount: 2
Fore
SplineSet
47 461 m 1,0,-1
 83 461 l 1,1,-1
 223 265 l 1,2,-1
 83 69 l 1,3,-1
 47 69 l 1,4,-1
 189 265 l 1,5,-1
 47 461 l 1,0,-1
178 461 m 1,6,-1
 213 461 l 1,7,-1
 354 265 l 1,8,-1
 213 69 l 1,9,-1
 178 69 l 1,10,-1
 319 265 l 1,11,-1
 178 461 l 1,6,-1
EndSplineSet
Substitution2: "'case' Case-Sensitive Forms lookup 29 subtable" guillemotright.case
Substitution2: "'aalt' Access All Alternates lookup 0 subtable" guillemotright.case
EndChar

StartChar: onequarter
Encoding: 188 188 126
Width: 668
GlyphClass: 2
Flags: W
LayerCount: 2
Fore
SplineSet
122 632 m 1,0,1
 83 585 83 585 11 560 c 1,2,-1
 11 584 l 1,3,4
 41 593 41 593 75 616 c 128,-1,5
 109 639 109 639 124 665 c 1,6,-1
 148 665 l 1,7,-1
 148 268 l 1,8,-1
 120 268 l 1,9,-1
 120 565 l 2,10,11
 120 609 120 609 122 632 c 1,0,1
529 660 m 1,12,-1
 561 660 l 1,13,-1
 93 0 l 1,14,-1
 61 0 l 1,15,-1
 529 660 l 1,12,-1
570 133 m 1,16,-1
 649 133 l 1,17,-1
 649 111 l 1,18,-1
 570 111 l 1,19,-1
 570 -4 l 1,20,-1
 545 -4 l 1,21,-1
 545 111 l 1,22,-1
 347 111 l 1,23,-1
 347 130 l 1,24,-1
 537 393 l 1,25,-1
 570 393 l 1,26,-1
 570 133 l 1,16,-1
545 318 m 2,27,28
 545 351 545 351 546 368 c 1,29,-1
 544 368 l 1,30,31
 519 331 519 331 512 321 c 2,32,-1
 375 133 l 1,33,-1
 545 133 l 1,34,-1
 545 318 l 2,27,28
EndSplineSet
EndChar

StartChar: onehalf
Encoding: 189 189 127
Width: 753
GlyphClass: 2
Flags: W
LayerCount: 2
Fore
SplineSet
122 632 m 1,0,1
 83 585 83 585 11 560 c 1,2,-1
 11 584 l 1,3,4
 41 593 41 593 75 616 c 128,-1,5
 109 639 109 639 124 665 c 1,6,-1
 148 665 l 1,7,-1
 148 268 l 1,8,-1
 120 268 l 1,9,-1
 120 565 l 2,10,11
 120 609 120 609 122 632 c 1,0,1
529 660 m 1,12,-1
 561 660 l 1,13,-1
 93 0 l 1,14,-1
 61 0 l 1,15,-1
 529 660 l 1,12,-1
526 19 m 1,16,-1
 723 19 l 1,17,-1
 723 -4 l 1,18,-1
 454 -4 l 1,19,-1
 454 18 l 1,20,21
 497 53 497 53 564 109 c 0,22,23
 680 205 680 205 680 277 c 0,24,25
 680 321 680 321 653 347.5 c 128,-1,26
 626 374 626 374 580 374 c 0,27,28
 532 374 532 374 503.5 345.5 c 128,-1,29
 475 317 475 317 472 267 c 1,30,-1
 447 274 l 1,31,32
 451 330 451 330 486.5 364 c 128,-1,33
 522 398 522 398 581 398 c 0,34,35
 641 398 641 398 675 365 c 128,-1,36
 709 332 709 332 709 277 c 0,37,38
 709 195 709 195 582 94 c 0,39,40
 522 44 522 44 492 20 c 1,41,-1
 492 19 l 1,42,-1
 526 19 l 1,16,-1
EndSplineSet
EndChar

StartChar: threequarters
Encoding: 190 190 128
Width: 782
GlyphClass: 2
Flags: W
LayerCount: 2
Fore
SplineSet
151 670 m 0,0,1
 207 670 207 670 239 640.5 c 128,-1,2
 271 611 271 611 271 564 c 0,3,4
 271 527 271 527 250.5 502 c 128,-1,5
 230 477 230 477 196 469 c 1,6,-1
 196 467 l 1,7,8
 233 463 233 463 256.5 437 c 128,-1,9
 280 411 280 411 280 373 c 0,10,11
 280 323 280 323 243.5 292.5 c 128,-1,12
 207 262 207 262 150 262 c 0,13,14
 43 262 43 262 16 354 c 1,15,-1
 41 367 l 1,16,17
 59 286 59 286 151 286 c 0,18,19
 196 286 196 286 224 309.5 c 128,-1,20
 252 333 252 333 252 375 c 0,21,22
 252 414 252 414 227 435.5 c 128,-1,23
 202 457 202 457 155 457 c 2,24,-1
 130 457 l 1,25,-1
 130 479 l 1,26,-1
 154 479 l 2,27,28
 196 479 196 479 219 502.5 c 128,-1,29
 242 526 242 526 242 562 c 0,30,31
 242 601 242 601 217.5 623.5 c 128,-1,32
 193 646 193 646 150 646 c 0,33,34
 111 646 111 646 86 627.5 c 128,-1,35
 61 609 61 609 53 576 c 1,36,-1
 28 587 l 1,37,38
 39 625 39 625 72 647.5 c 128,-1,39
 105 670 105 670 151 670 c 0,0,1
174 0 m 1,40,-1
 642 660 l 1,41,-1
 674 660 l 1,42,-1
 206 0 l 1,43,-1
 174 0 l 1,40,-1
763 133 m 1,44,-1
 763 111 l 1,45,-1
 684 111 l 1,46,-1
 684 -4 l 1,47,-1
 659 -4 l 1,48,-1
 659 111 l 1,49,-1
 461 111 l 1,50,-1
 461 130 l 1,51,-1
 651 393 l 1,52,-1
 684 393 l 1,53,-1
 684 133 l 1,54,-1
 763 133 l 1,44,-1
489 133 m 1,55,-1
 659 133 l 1,56,-1
 659 318 l 2,57,58
 659 351 659 351 660 368 c 1,59,-1
 658 368 l 1,60,61
 633 331 633 331 626 321 c 2,62,-1
 489 133 l 1,55,-1
EndSplineSet
EndChar

StartChar: questiondown
Encoding: 191 191 129
Width: 484
GlyphClass: 2
Flags: W
LayerCount: 2
Fore
SplineSet
252 439 m 128,-1,1
 238 439 238 439 229.5 448 c 128,-1,2
 221 457 221 457 221 471 c 0,3,4
 221 484 221 484 229.5 493 c 128,-1,5
 238 502 238 502 252 502 c 128,-1,6
 266 502 266 502 275 493.5 c 128,-1,7
 284 485 284 485 284 471 c 128,-1,8
 284 457 284 457 275 448 c 128,-1,0
 266 439 266 439 252 439 c 128,-1,1
237 -174 m 0,9,10
 150 -174 150 -174 95.5 -128.5 c 128,-1,11
 41 -83 41 -83 41 -5 c 0,12,13
 41 79 41 79 89 130.5 c 128,-1,14
 137 182 137 182 237 208 c 1,15,-1
 237 333 l 1,16,-1
 267 333 l 1,17,-1
 267 191 l 1,18,19
 158 161 158 161 115 117.5 c 128,-1,20
 72 74 72 74 72 -3 c 0,21,22
 72 -69 72 -69 117.5 -108 c 128,-1,23
 163 -147 163 -147 238 -147 c 0,24,25
 406 -147 406 -147 427 9 c 1,26,-1
 454 -5 l 1,27,28
 425 -174 425 -174 237 -174 c 0,9,10
EndSplineSet
Substitution2: "'case' Case-Sensitive Forms lookup 29 subtable" questiondown.case
Substitution2: "'smcp' Lowercase to Small Capitals lookup 12 subtable" questiondown.sc
Substitution2: "'c2sc' Capitals to Small Capitals lookup 11 subtable" questiondown.sc
AlternateSubs2: "'aalt' Access All Alternates lookup 1 subtable" questiondown.sc questiondown.case
EndChar

StartChar: Agrave
Encoding: 192 192 130
Width: 602
GlyphClass: 2
Flags: W
LayerCount: 2
Fore
SplineSet
307 743 m 1,0,-1
 281 743 l 1,1,-1
 201 891 l 1,2,-1
 236 891 l 1,3,-1
 307 743 l 1,0,-1
555 0 m 1,4,-1
 464 223 l 1,5,-1
 138 223 l 1,6,-1
 47 0 l 1,7,-1
 15 0 l 1,8,-1
 284 660 l 1,9,-1
 319 660 l 1,10,-1
 587 0 l 1,11,-1
 555 0 l 1,4,-1
149 250 m 1,12,-1
 453 250 l 1,13,-1
 321 573 l 1,14,-1
 301 629 l 1,15,-1
 281 575 l 1,16,-1
 149 250 l 1,12,-1
EndSplineSet
Substitution2: "Single Substitution lookup 56 subtable" Agrave.swsh
Substitution2: "'swsh' Swash lookup 32 subtable" Agrave.swsh
Substitution2: "'c2sc' Capitals to Small Capitals lookup 11 subtable" agrave.sc
AlternateSubs2: "'aalt' Access All Alternates lookup 1 subtable" agrave.sc Agrave.swsh
EndChar

StartChar: Aacute
Encoding: 193 193 131
Width: 602
GlyphClass: 2
Flags: W
LayerCount: 2
Fore
SplineSet
397 891 m 1,0,-1
 317 743 l 1,1,-1
 291 743 l 1,2,-1
 362 891 l 1,3,-1
 397 891 l 1,0,-1
555 0 m 1,4,-1
 464 223 l 1,5,-1
 138 223 l 1,6,-1
 47 0 l 1,7,-1
 15 0 l 1,8,-1
 284 660 l 1,9,-1
 319 660 l 1,10,-1
 587 0 l 1,11,-1
 555 0 l 1,4,-1
149 250 m 1,12,-1
 453 250 l 1,13,-1
 321 573 l 1,14,-1
 301 629 l 1,15,-1
 281 575 l 1,16,-1
 149 250 l 1,12,-1
EndSplineSet
Substitution2: "Single Substitution lookup 56 subtable" Aacute.swsh
Substitution2: "'swsh' Swash lookup 32 subtable" Aacute.swsh
Substitution2: "'c2sc' Capitals to Small Capitals lookup 11 subtable" aacute.sc
AlternateSubs2: "'aalt' Access All Alternates lookup 1 subtable" aacute.sc Aacute.swsh
EndChar

StartChar: Acircumflex
Encoding: 194 194 132
Width: 602
GlyphClass: 2
Flags: W
LayerCount: 2
Fore
SplineSet
301 868 m 1,0,-1
 203 742 l 1,1,-1
 173 742 l 1,2,-1
 283 889 l 1,3,-1
 319 889 l 1,4,-1
 429 742 l 1,5,-1
 400 742 l 1,6,-1
 301 868 l 1,0,-1
555 0 m 1,7,-1
 464 223 l 1,8,-1
 138 223 l 1,9,-1
 47 0 l 1,10,-1
 15 0 l 1,11,-1
 284 660 l 1,12,-1
 319 660 l 1,13,-1
 587 0 l 1,14,-1
 555 0 l 1,7,-1
149 250 m 1,15,-1
 453 250 l 1,16,-1
 321 573 l 1,17,-1
 301 629 l 1,18,-1
 281 575 l 1,19,-1
 149 250 l 1,15,-1
EndSplineSet
Substitution2: "Single Substitution lookup 56 subtable" Acircumflex.swsh
Substitution2: "'swsh' Swash lookup 32 subtable" Acircumflex.swsh
Substitution2: "'c2sc' Capitals to Small Capitals lookup 11 subtable" acircumflex.sc
AlternateSubs2: "'aalt' Access All Alternates lookup 1 subtable" acircumflex.sc Acircumflex.swsh
EndChar

StartChar: Atilde
Encoding: 195 195 133
Width: 602
GlyphClass: 2
Flags: W
LayerCount: 2
Fore
SplineSet
229 824 m 128,-1,1
 199 824 199 824 185 807.5 c 128,-1,2
 171 791 171 791 164 755 c 1,3,-1
 139 755 l 1,4,5
 147 803 147 803 168.5 826 c 128,-1,6
 190 849 190 849 230 849 c 0,7,8
 271 849 271 849 307.5 815 c 128,-1,9
 344 781 344 781 373 781 c 0,10,11
 403 781 403 781 417.5 797.5 c 128,-1,12
 432 814 432 814 439 850 c 1,13,-1
 465 850 l 1,14,15
 457 802 457 802 435.5 779 c 128,-1,16
 414 756 414 756 374 756 c 0,17,18
 333 756 333 756 296 790 c 128,-1,0
 259 824 259 824 229 824 c 128,-1,1
555 0 m 1,19,-1
 464 223 l 1,20,-1
 138 223 l 1,21,-1
 47 0 l 1,22,-1
 15 0 l 1,23,-1
 284 660 l 1,24,-1
 319 660 l 1,25,-1
 587 0 l 1,26,-1
 555 0 l 1,19,-1
149 250 m 1,27,-1
 453 250 l 1,28,-1
 321 573 l 1,29,-1
 301 629 l 1,30,-1
 281 575 l 1,31,-1
 149 250 l 1,27,-1
EndSplineSet
Substitution2: "Single Substitution lookup 56 subtable" Atilde.swsh
Substitution2: "'swsh' Swash lookup 32 subtable" Atilde.swsh
Substitution2: "'c2sc' Capitals to Small Capitals lookup 11 subtable" atilde.sc
AlternateSubs2: "'aalt' Access All Alternates lookup 1 subtable" atilde.sc Atilde.swsh
EndChar

StartChar: Adieresis
Encoding: 196 196 134
Width: 602
GlyphClass: 2
Flags: W
LayerCount: 2
Fore
SplineSet
207 755 m 128,-1,1
 194 755 194 755 185.5 763 c 128,-1,2
 177 771 177 771 177 784 c 128,-1,3
 177 797 177 797 185.5 805.5 c 128,-1,4
 194 814 194 814 207 814 c 128,-1,5
 220 814 220 814 228.5 806 c 128,-1,6
 237 798 237 798 237 784 c 0,7,8
 237 771 237 771 228.5 763 c 128,-1,0
 220 755 220 755 207 755 c 128,-1,1
393 755 m 128,-1,10
 380 755 380 755 372 763 c 128,-1,11
 364 771 364 771 364 784 c 128,-1,12
 364 797 364 797 372 805.5 c 128,-1,13
 380 814 380 814 393 814 c 128,-1,14
 406 814 406 814 414.5 806 c 128,-1,15
 423 798 423 798 423 784 c 0,16,17
 423 771 423 771 414.5 763 c 128,-1,9
 406 755 406 755 393 755 c 128,-1,10
555 0 m 1,18,-1
 464 223 l 1,19,-1
 138 223 l 1,20,-1
 47 0 l 1,21,-1
 15 0 l 1,22,-1
 284 660 l 1,23,-1
 319 660 l 1,24,-1
 587 0 l 1,25,-1
 555 0 l 1,18,-1
149 250 m 1,26,-1
 453 250 l 1,27,-1
 321 573 l 1,28,-1
 301 629 l 1,29,-1
 281 575 l 1,30,-1
 149 250 l 1,26,-1
EndSplineSet
Substitution2: "Single Substitution lookup 56 subtable" Adieresis.swsh
Substitution2: "'titl' Titling lookup 41 subtable" Adieresis.titl
Substitution2: "'swsh' Swash lookup 32 subtable" Adieresis.swsh
Substitution2: "'c2sc' Capitals to Small Capitals lookup 11 subtable" adieresis.sc
AlternateSubs2: "'aalt' Access All Alternates lookup 1 subtable" adieresis.sc Adieresis.swsh Adieresis.titl
EndChar

StartChar: Aring
Encoding: 197 197 135
Width: 602
GlyphClass: 2
Flags: W
LayerCount: 2
Fore
SplineSet
555 0 m 1,0,-1
 464 223 l 1,1,-1
 138 223 l 1,2,-1
 47 0 l 1,3,-1
 15 0 l 1,4,-1
 277 642 l 1,5,6
 249 649 249 649 233.5 669.5 c 128,-1,7
 218 690 218 690 218 720 c 0,8,9
 218 756 218 756 241 778 c 128,-1,10
 264 800 264 800 301 800 c 0,11,12
 339 800 339 800 362 778 c 128,-1,13
 385 756 385 756 385 720 c 0,14,15
 385 690 385 690 369 669.5 c 128,-1,16
 353 649 353 649 326 642 c 1,17,-1
 587 0 l 1,18,-1
 555 0 l 1,0,-1
242 720 m 128,-1,20
 242 694 242 694 258.5 677.5 c 128,-1,21
 275 661 275 661 301 661 c 0,22,23
 328 661 328 661 344 677.5 c 128,-1,24
 360 694 360 694 360 720 c 128,-1,25
 360 746 360 746 344 762.5 c 128,-1,26
 328 779 328 779 301 779 c 0,27,28
 275 779 275 779 258.5 762.5 c 128,-1,19
 242 746 242 746 242 720 c 128,-1,20
149 250 m 1,29,-1
 453 250 l 1,30,-1
 321 573 l 1,31,-1
 301 629 l 1,32,-1
 281 575 l 1,33,-1
 149 250 l 1,29,-1
EndSplineSet
Substitution2: "'c2sc' Capitals to Small Capitals lookup 11 subtable" aring.sc
Substitution2: "'aalt' Access All Alternates lookup 0 subtable" aring.sc
EndChar

StartChar: AE
Encoding: 198 198 136
Width: 900
GlyphClass: 2
Flags: W
LayerCount: 2
Fore
SplineSet
471 27 m 1,0,-1
 865 27 l 1,1,-1
 865 0 l 1,2,-1
 441 0 l 1,3,-1
 441 245 l 1,4,-1
 183 245 l 1,5,-1
 32 0 l 1,6,-1
 -5 0 l 1,7,-1
 408 660 l 1,8,-1
 850 660 l 1,9,-1
 850 633 l 1,10,-1
 471 633 l 1,11,-1
 471 349 l 1,12,-1
 771 349 l 1,13,-1
 771 321 l 1,14,-1
 471 321 l 1,15,-1
 471 27 l 1,0,-1
200 272 m 1,16,-1
 441 272 l 1,17,-1
 441 633 l 1,18,-1
 422 633 l 1,19,-1
 200 272 l 1,16,-1
EndSplineSet
Substitution2: "'c2sc' Capitals to Small Capitals lookup 11 subtable" ae.sc
Substitution2: "'aalt' Access All Alternates lookup 0 subtable" ae.sc
EndChar

StartChar: Ccedilla
Encoding: 199 199 137
Width: 657
GlyphClass: 2
Flags: W
LayerCount: 2
Fore
SplineSet
617 166 m 1,0,1
 591 86 591 86 527.5 40 c 128,-1,2
 464 -6 464 -6 373 -10 c 1,3,4
 446 -52 446 -52 446 -116 c 0,5,6
 446 -155 446 -155 420 -180 c 128,-1,7
 394 -205 394 -205 352 -205 c 0,8,9
 288 -205 288 -205 255 -164 c 1,10,-1
 267 -143 l 1,11,12
 298 -182 298 -182 350 -182 c 0,13,14
 380 -182 380 -182 399.5 -163 c 128,-1,15
 419 -144 419 -144 419 -114 c 128,-1,16
 419 -84 419 -84 400.5 -60.5 c 128,-1,17
 382 -37 382 -37 333 -9 c 1,18,19
 208 -1 208 -1 133.5 90 c 128,-1,20
 59 181 59 181 59 330 c 0,21,22
 59 486 59 486 139.5 578 c 128,-1,23
 220 670 220 670 354 670 c 0,24,25
 557 670 557 670 610 500 c 1,26,-1
 581 487 l 1,27,28
 533 643 533 643 355 643 c 0,29,30
 235 643 235 643 162.5 558.5 c 128,-1,31
 90 474 90 474 90 330 c 128,-1,32
 90 186 90 186 162.5 101.5 c 128,-1,33
 235 17 235 17 354 17 c 0,34,35
 443 17 443 17 504 59 c 128,-1,36
 565 101 565 101 587 177 c 1,37,-1
 617 166 l 1,0,1
EndSplineSet
Substitution2: "'c2sc' Capitals to Small Capitals lookup 11 subtable" ccedilla.sc
Substitution2: "'aalt' Access All Alternates lookup 0 subtable" ccedilla.sc
EndChar

StartChar: Egrave
Encoding: 200 200 138
Width: 595
GlyphClass: 2
Flags: W
AnchorPoint: "Anchor-0" 322 0 basechar 0
LayerCount: 2
Fore
SplineSet
346 743 m 1,0,-1
 320 743 l 1,1,-1
 240 891 l 1,2,-1
 275 891 l 1,3,-1
 346 743 l 1,0,-1
131 27 m 1,4,-1
 560 27 l 1,5,-1
 560 0 l 1,6,-1
 101 0 l 1,7,-1
 101 660 l 1,8,-1
 544 660 l 1,9,-1
 544 633 l 1,10,-1
 131 633 l 1,11,-1
 131 350 l 1,12,-1
 460 350 l 1,13,-1
 460 323 l 1,14,-1
 131 323 l 1,15,-1
 131 27 l 1,4,-1
EndSplineSet
Substitution2: "Single Substitution lookup 57 subtable" Egrave.swsh.001
Substitution2: "Single Substitution lookup 56 subtable" Egrave.swsh
AlternateSubs2: "'swsh' Swash lookup 33 subtable" Egrave.swsh Egrave.swsh.001
Substitution2: "'c2sc' Capitals to Small Capitals lookup 11 subtable" egrave.sc
AlternateSubs2: "'aalt' Access All Alternates lookup 1 subtable" egrave.sc Egrave.swsh Egrave.swsh.001
EndChar

StartChar: Eacute
Encoding: 201 201 139
Width: 595
GlyphClass: 2
Flags: W
AnchorPoint: "Anchor-0" 322 0 basechar 0
LayerCount: 2
Fore
SplineSet
410 891 m 1,0,-1
 330 743 l 1,1,-1
 304 743 l 1,2,-1
 375 891 l 1,3,-1
 410 891 l 1,0,-1
131 27 m 1,4,-1
 560 27 l 1,5,-1
 560 0 l 1,6,-1
 101 0 l 1,7,-1
 101 660 l 1,8,-1
 544 660 l 1,9,-1
 544 633 l 1,10,-1
 131 633 l 1,11,-1
 131 350 l 1,12,-1
 460 350 l 1,13,-1
 460 323 l 1,14,-1
 131 323 l 1,15,-1
 131 27 l 1,4,-1
EndSplineSet
Substitution2: "Single Substitution lookup 57 subtable" Eacute.swsh.001
Substitution2: "Single Substitution lookup 56 subtable" Eacute.swsh
AlternateSubs2: "'swsh' Swash lookup 33 subtable" Eacute.swsh Eacute.swsh.001
Substitution2: "'c2sc' Capitals to Small Capitals lookup 11 subtable" eacute.sc
AlternateSubs2: "'aalt' Access All Alternates lookup 1 subtable" eacute.sc Eacute.swsh Eacute.swsh.001
EndChar

StartChar: Ecircumflex
Encoding: 202 202 140
Width: 595
GlyphClass: 2
Flags: W
AnchorPoint: "Anchor-0" 322 0 basechar 0
LayerCount: 2
Fore
SplineSet
322 868 m 1,0,-1
 224 742 l 1,1,-1
 194 742 l 1,2,-1
 304 889 l 1,3,-1
 340 889 l 1,4,-1
 450 742 l 1,5,-1
 421 742 l 1,6,-1
 322 868 l 1,0,-1
131 27 m 1,7,-1
 560 27 l 1,8,-1
 560 0 l 1,9,-1
 101 0 l 1,10,-1
 101 660 l 1,11,-1
 544 660 l 1,12,-1
 544 633 l 1,13,-1
 131 633 l 1,14,-1
 131 350 l 1,15,-1
 460 350 l 1,16,-1
 460 323 l 1,17,-1
 131 323 l 1,18,-1
 131 27 l 1,7,-1
EndSplineSet
Substitution2: "Single Substitution lookup 57 subtable" Ecircumflex.swsh.001
Substitution2: "Single Substitution lookup 56 subtable" Ecircumflex.swsh
AlternateSubs2: "'swsh' Swash lookup 33 subtable" Ecircumflex.swsh Ecircumflex.swsh.001
Substitution2: "'c2sc' Capitals to Small Capitals lookup 11 subtable" ecircumflex.sc
AlternateSubs2: "'aalt' Access All Alternates lookup 1 subtable" ecircumflex.sc Ecircumflex.swsh Ecircumflex.swsh.001
EndChar

StartChar: Edieresis
Encoding: 203 203 141
Width: 595
GlyphClass: 2
Flags: W
AnchorPoint: "Anchor-0" 322 0 basechar 0
LayerCount: 2
Fore
SplineSet
228 755 m 128,-1,1
 215 755 215 755 206.5 763 c 128,-1,2
 198 771 198 771 198 784 c 128,-1,3
 198 797 198 797 206.5 805.5 c 128,-1,4
 215 814 215 814 228 814 c 0,5,6
 242 814 242 814 250 806 c 128,-1,7
 258 798 258 798 258 784 c 0,8,9
 258 771 258 771 249.5 763 c 128,-1,0
 241 755 241 755 228 755 c 128,-1,1
414 755 m 128,-1,11
 401 755 401 755 393 763 c 128,-1,12
 385 771 385 771 385 784 c 128,-1,13
 385 797 385 797 393 805.5 c 128,-1,14
 401 814 401 814 414 814 c 0,15,16
 428 814 428 814 436 806 c 128,-1,17
 444 798 444 798 444 784 c 0,18,19
 444 771 444 771 435.5 763 c 128,-1,10
 427 755 427 755 414 755 c 128,-1,11
131 27 m 1,20,-1
 560 27 l 1,21,-1
 560 0 l 1,22,-1
 101 0 l 1,23,-1
 101 660 l 1,24,-1
 544 660 l 1,25,-1
 544 633 l 1,26,-1
 131 633 l 1,27,-1
 131 350 l 1,28,-1
 460 350 l 1,29,-1
 460 323 l 1,30,-1
 131 323 l 1,31,-1
 131 27 l 1,20,-1
EndSplineSet
Substitution2: "Single Substitution lookup 57 subtable" Edieresis.swsh.001
Substitution2: "Single Substitution lookup 56 subtable" Edieresis.swsh
AlternateSubs2: "'swsh' Swash lookup 33 subtable" Edieresis.swsh Edieresis.swsh.001
Substitution2: "'c2sc' Capitals to Small Capitals lookup 11 subtable" edieresis.sc
AlternateSubs2: "'aalt' Access All Alternates lookup 1 subtable" edieresis.sc Edieresis.swsh Edieresis.swsh.001
EndChar

StartChar: Igrave
Encoding: 204 204 142
Width: 232
GlyphClass: 2
Flags: W
LayerCount: 2
Fore
SplineSet
51 891 m 1,0,-1
 122 743 l 1,1,-1
 96 743 l 1,2,-1
 16 891 l 1,3,-1
 51 891 l 1,0,-1
131 660 m 1,4,-1
 131 0 l 1,5,-1
 101 0 l 1,6,-1
 101 660 l 1,7,-1
 131 660 l 1,4,-1
EndSplineSet
Substitution2: "'c2sc' Capitals to Small Capitals lookup 11 subtable" igrave.sc
Substitution2: "'aalt' Access All Alternates lookup 0 subtable" igrave.sc
EndChar

StartChar: Iacute
Encoding: 205 205 143
Width: 232
GlyphClass: 2
Flags: W
LayerCount: 2
Fore
SplineSet
177 891 m 1,0,-1
 212 891 l 1,1,-1
 132 743 l 1,2,-1
 106 743 l 1,3,-1
 177 891 l 1,0,-1
131 660 m 1,4,-1
 131 0 l 1,5,-1
 101 0 l 1,6,-1
 101 660 l 1,7,-1
 131 660 l 1,4,-1
EndSplineSet
Substitution2: "'c2sc' Capitals to Small Capitals lookup 11 subtable" iacute.sc
Substitution2: "'aalt' Access All Alternates lookup 0 subtable" iacute.sc
EndChar

StartChar: Icircumflex
Encoding: 206 206 144
Width: 232
GlyphClass: 2
Flags: W
LayerCount: 2
Fore
SplineSet
244 742 m 1,0,-1
 215 742 l 1,1,-1
 116 868 l 1,2,-1
 18 742 l 1,3,-1
 -12 742 l 1,4,-1
 98 889 l 1,5,-1
 134 889 l 1,6,-1
 244 742 l 1,0,-1
131 660 m 1,7,-1
 131 0 l 1,8,-1
 101 0 l 1,9,-1
 101 660 l 1,10,-1
 131 660 l 1,7,-1
EndSplineSet
Substitution2: "'c2sc' Capitals to Small Capitals lookup 11 subtable" icircumflex.sc
Substitution2: "'aalt' Access All Alternates lookup 0 subtable" icircumflex.sc
EndChar

StartChar: Idieresis
Encoding: 207 207 145
Width: 232
GlyphClass: 2
Flags: W
LayerCount: 2
Fore
SplineSet
51 814 m 128,-1,1
 64 814 64 814 72.5 806 c 128,-1,2
 81 798 81 798 81 784 c 0,3,4
 81 771 81 771 72.5 763 c 128,-1,5
 64 755 64 755 51 755 c 128,-1,6
 38 755 38 755 29.5 763 c 128,-1,7
 21 771 21 771 21 784 c 0,8,9
 21 798 21 798 29.5 806 c 128,-1,0
 38 814 38 814 51 814 c 128,-1,1
181 814 m 128,-1,11
 194 814 194 814 202.5 805.5 c 128,-1,12
 211 797 211 797 211 784 c 128,-1,13
 211 771 211 771 202.5 763 c 128,-1,14
 194 755 194 755 181 755 c 128,-1,15
 168 755 168 755 159.5 763 c 128,-1,16
 151 771 151 771 151 784 c 0,17,18
 151 798 151 798 159.5 806 c 128,-1,10
 168 814 168 814 181 814 c 128,-1,11
131 660 m 1,19,-1
 131 0 l 1,20,-1
 101 0 l 1,21,-1
 101 660 l 1,22,-1
 131 660 l 1,19,-1
EndSplineSet
Substitution2: "'c2sc' Capitals to Small Capitals lookup 11 subtable" idieresis.sc
Substitution2: "'aalt' Access All Alternates lookup 0 subtable" idieresis.sc
EndChar

StartChar: Eth
Encoding: 208 208 146
Width: 701
GlyphClass: 2
Flags: W
LayerCount: 2
Fore
SplineSet
316 660 m 2,0,1
 476 660 476 660 559.5 577.5 c 128,-1,2
 643 495 643 495 643 338 c 0,3,4
 643 172 643 172 559.5 86 c 128,-1,5
 476 0 476 0 316 0 c 2,6,-1
 111 0 l 1,7,-1
 111 322 l 1,8,-1
 10 322 l 1,9,-1
 10 346 l 1,10,-1
 111 346 l 1,11,-1
 111 660 l 1,12,-1
 316 660 l 2,0,1
318 27 m 2,13,14
 462 27 462 27 537 106.5 c 128,-1,15
 612 186 612 186 612 338 c 0,16,17
 612 482 612 482 537 557.5 c 128,-1,18
 462 633 462 633 318 633 c 2,19,-1
 141 633 l 1,20,-1
 141 346 l 1,21,-1
 346 346 l 1,22,-1
 346 322 l 1,23,-1
 141 322 l 1,24,-1
 141 27 l 1,25,-1
 318 27 l 2,13,14
EndSplineSet
Substitution2: "'c2sc' Capitals to Small Capitals lookup 11 subtable" eth.sc
Substitution2: "'aalt' Access All Alternates lookup 0 subtable" eth.sc
EndChar

StartChar: Ntilde
Encoding: 209 209 147
Width: 703
GlyphClass: 2
Flags: W
AnchorPoint: "Anchor-0" 358 0 basechar 0
LayerCount: 2
Fore
SplineSet
521 850 m 1,0,1
 513 802 513 802 491.5 779 c 128,-1,2
 470 756 470 756 430 756 c 0,3,4
 389 756 389 756 352 790 c 128,-1,5
 315 824 315 824 285 824 c 128,-1,6
 255 824 255 824 241 807.5 c 128,-1,7
 227 791 227 791 220 755 c 1,8,-1
 195 755 l 1,9,10
 203 803 203 803 224.5 826 c 128,-1,11
 246 849 246 849 286 849 c 128,-1,12
 326 849 326 849 363 815 c 128,-1,13
 400 781 400 781 429 781 c 0,14,15
 459 781 459 781 473.5 797.5 c 128,-1,16
 488 814 488 814 495 850 c 1,17,-1
 521 850 l 1,0,1
602 660 m 1,18,-1
 602 0 l 1,19,-1
 563 0 l 1,20,-1
 164 569 l 1,21,-1
 129 628 l 1,22,-1
 128 628 l 1,23,-1
 130 561 l 1,24,-1
 130 0 l 1,25,-1
 101 0 l 1,26,-1
 101 660 l 1,27,-1
 140 660 l 1,28,-1
 538 91 l 1,29,-1
 574 32 l 1,30,-1
 573 99 l 1,31,-1
 573 660 l 1,32,-1
 602 660 l 1,18,-1
EndSplineSet
Substitution2: "Single Substitution lookup 57 subtable" Ntilde.swsh
Substitution2: "'swsh' Swash lookup 36 subtable" Ntilde.swsh
Substitution2: "'c2sc' Capitals to Small Capitals lookup 11 subtable" ntilde.sc
AlternateSubs2: "'aalt' Access All Alternates lookup 1 subtable" ntilde.sc Ntilde.swsh
EndChar

StartChar: Ograve
Encoding: 210 210 148
Width: 721
GlyphClass: 2
Flags: W
LayerCount: 2
Fore
SplineSet
296 891 m 1,0,-1
 367 743 l 1,1,-1
 341 743 l 1,2,-1
 261 891 l 1,3,-1
 296 891 l 1,0,-1
361 670 m 128,-1,5
 500 670 500 670 581.5 578.5 c 128,-1,6
 663 487 663 487 663 330 c 128,-1,7
 663 173 663 173 581.5 81.5 c 128,-1,8
 500 -10 500 -10 361 -10 c 128,-1,9
 222 -10 222 -10 140.5 81.5 c 128,-1,10
 59 173 59 173 59 330 c 128,-1,11
 59 487 59 487 140.5 578.5 c 128,-1,4
 222 670 222 670 361 670 c 128,-1,5
361 643 m 128,-1,13
 236 643 236 643 163 559 c 128,-1,14
 90 475 90 475 90 330 c 128,-1,15
 90 185 90 185 163 101 c 128,-1,16
 236 17 236 17 361 17 c 128,-1,17
 486 17 486 17 559 101 c 128,-1,18
 632 185 632 185 632 330 c 128,-1,19
 632 475 632 475 559 559 c 128,-1,12
 486 643 486 643 361 643 c 128,-1,13
EndSplineSet
Substitution2: "'c2sc' Capitals to Small Capitals lookup 11 subtable" ograve.sc
Substitution2: "'aalt' Access All Alternates lookup 0 subtable" ograve.sc
EndChar

StartChar: Oacute
Encoding: 211 211 149
Width: 721
GlyphClass: 2
Flags: W
LayerCount: 2
Fore
SplineSet
422 891 m 1,0,-1
 457 891 l 1,1,-1
 377 743 l 1,2,-1
 351 743 l 1,3,-1
 422 891 l 1,0,-1
361 670 m 128,-1,5
 500 670 500 670 581.5 578.5 c 128,-1,6
 663 487 663 487 663 330 c 128,-1,7
 663 173 663 173 581.5 81.5 c 128,-1,8
 500 -10 500 -10 361 -10 c 128,-1,9
 222 -10 222 -10 140.5 81.5 c 128,-1,10
 59 173 59 173 59 330 c 128,-1,11
 59 487 59 487 140.5 578.5 c 128,-1,4
 222 670 222 670 361 670 c 128,-1,5
361 643 m 128,-1,13
 236 643 236 643 163 559 c 128,-1,14
 90 475 90 475 90 330 c 128,-1,15
 90 185 90 185 163 101 c 128,-1,16
 236 17 236 17 361 17 c 128,-1,17
 486 17 486 17 559 101 c 128,-1,18
 632 185 632 185 632 330 c 128,-1,19
 632 475 632 475 559 559 c 128,-1,12
 486 643 486 643 361 643 c 128,-1,13
EndSplineSet
Substitution2: "'c2sc' Capitals to Small Capitals lookup 11 subtable" oacute.sc
Substitution2: "'aalt' Access All Alternates lookup 0 subtable" oacute.sc
EndChar

StartChar: Ocircumflex
Encoding: 212 212 150
Width: 721
GlyphClass: 2
Flags: W
LayerCount: 2
Fore
SplineSet
489 742 m 1,0,-1
 460 742 l 1,1,-1
 361 868 l 1,2,-1
 263 742 l 1,3,-1
 233 742 l 1,4,-1
 343 889 l 1,5,-1
 379 889 l 1,6,-1
 489 742 l 1,0,-1
361 670 m 128,-1,8
 500 670 500 670 581.5 578.5 c 128,-1,9
 663 487 663 487 663 330 c 128,-1,10
 663 173 663 173 581.5 81.5 c 128,-1,11
 500 -10 500 -10 361 -10 c 128,-1,12
 222 -10 222 -10 140.5 81.5 c 128,-1,13
 59 173 59 173 59 330 c 128,-1,14
 59 487 59 487 140.5 578.5 c 128,-1,7
 222 670 222 670 361 670 c 128,-1,8
361 643 m 128,-1,16
 236 643 236 643 163 559 c 128,-1,17
 90 475 90 475 90 330 c 128,-1,18
 90 185 90 185 163 101 c 128,-1,19
 236 17 236 17 361 17 c 128,-1,20
 486 17 486 17 559 101 c 128,-1,21
 632 185 632 185 632 330 c 128,-1,22
 632 475 632 475 559 559 c 128,-1,15
 486 643 486 643 361 643 c 128,-1,16
EndSplineSet
Substitution2: "'c2sc' Capitals to Small Capitals lookup 11 subtable" ocircumflex.sc
Substitution2: "'aalt' Access All Alternates lookup 0 subtable" ocircumflex.sc
EndChar

StartChar: Otilde
Encoding: 213 213 151
Width: 721
GlyphClass: 2
Flags: W
LayerCount: 2
Fore
SplineSet
525 850 m 1,0,1
 517 802 517 802 495.5 779 c 128,-1,2
 474 756 474 756 434 756 c 0,3,4
 393 756 393 756 356 790 c 128,-1,5
 319 824 319 824 289 824 c 128,-1,6
 259 824 259 824 245 807.5 c 128,-1,7
 231 791 231 791 224 755 c 1,8,-1
 199 755 l 1,9,10
 207 803 207 803 228.5 826 c 128,-1,11
 250 849 250 849 290 849 c 128,-1,12
 330 849 330 849 367 815 c 128,-1,13
 404 781 404 781 433 781 c 0,14,15
 463 781 463 781 477.5 797.5 c 128,-1,16
 492 814 492 814 499 850 c 1,17,-1
 525 850 l 1,0,1
361 670 m 128,-1,19
 500 670 500 670 581.5 578.5 c 128,-1,20
 663 487 663 487 663 330 c 128,-1,21
 663 173 663 173 581.5 81.5 c 128,-1,22
 500 -10 500 -10 361 -10 c 128,-1,23
 222 -10 222 -10 140.5 81.5 c 128,-1,24
 59 173 59 173 59 330 c 128,-1,25
 59 487 59 487 140.5 578.5 c 128,-1,18
 222 670 222 670 361 670 c 128,-1,19
361 643 m 128,-1,27
 236 643 236 643 163 559 c 128,-1,28
 90 475 90 475 90 330 c 128,-1,29
 90 185 90 185 163 101 c 128,-1,30
 236 17 236 17 361 17 c 128,-1,31
 486 17 486 17 559 101 c 128,-1,32
 632 185 632 185 632 330 c 128,-1,33
 632 475 632 475 559 559 c 128,-1,26
 486 643 486 643 361 643 c 128,-1,27
EndSplineSet
Substitution2: "'c2sc' Capitals to Small Capitals lookup 11 subtable" otilde.sc
Substitution2: "'aalt' Access All Alternates lookup 0 subtable" otilde.sc
EndChar

StartChar: Odieresis
Encoding: 214 214 152
Width: 721
GlyphClass: 2
Flags: W
LayerCount: 2
Fore
SplineSet
267 814 m 128,-1,1
 280 814 280 814 288.5 806 c 128,-1,2
 297 798 297 798 297 784 c 0,3,4
 297 771 297 771 288.5 763 c 128,-1,5
 280 755 280 755 267 755 c 128,-1,6
 254 755 254 755 245.5 763 c 128,-1,7
 237 771 237 771 237 784 c 128,-1,8
 237 797 237 797 245.5 805.5 c 128,-1,0
 254 814 254 814 267 814 c 128,-1,1
453 814 m 128,-1,10
 466 814 466 814 474.5 806 c 128,-1,11
 483 798 483 798 483 784 c 0,12,13
 483 771 483 771 474.5 763 c 128,-1,14
 466 755 466 755 453 755 c 128,-1,15
 440 755 440 755 432 763 c 128,-1,16
 424 771 424 771 424 784 c 128,-1,17
 424 797 424 797 432 805.5 c 128,-1,9
 440 814 440 814 453 814 c 128,-1,10
361 670 m 128,-1,19
 500 670 500 670 581.5 578.5 c 128,-1,20
 663 487 663 487 663 330 c 128,-1,21
 663 173 663 173 581.5 81.5 c 128,-1,22
 500 -10 500 -10 361 -10 c 128,-1,23
 222 -10 222 -10 140.5 81.5 c 128,-1,24
 59 173 59 173 59 330 c 128,-1,25
 59 487 59 487 140.5 578.5 c 128,-1,18
 222 670 222 670 361 670 c 128,-1,19
361 643 m 128,-1,27
 236 643 236 643 163 559 c 128,-1,28
 90 475 90 475 90 330 c 128,-1,29
 90 185 90 185 163 101 c 128,-1,30
 236 17 236 17 361 17 c 128,-1,31
 486 17 486 17 559 101 c 128,-1,32
 632 185 632 185 632 330 c 128,-1,33
 632 475 632 475 559 559 c 128,-1,26
 486 643 486 643 361 643 c 128,-1,27
EndSplineSet
Substitution2: "'titl' Titling lookup 41 subtable" Odieresis.titl
Substitution2: "'c2sc' Capitals to Small Capitals lookup 11 subtable" odieresis.sc
AlternateSubs2: "'aalt' Access All Alternates lookup 1 subtable" odieresis.sc Odieresis.titl
EndChar

StartChar: multiply
Encoding: 215 215 153
Width: 604
GlyphClass: 2
Flags: W
LayerCount: 2
Fore
SplineSet
489 479 m 1,0,-1
 324 313 l 1,1,-1
 489 148 l 1,2,-1
 467 126 l 1,3,-1
 302 291 l 1,4,-1
 136 126 l 1,5,-1
 115 148 l 1,6,-1
 280 313 l 1,7,-1
 115 479 l 1,8,-1
 136 501 l 1,9,-1
 302 335 l 1,10,-1
 467 501 l 1,11,-1
 489 479 l 1,0,-1
EndSplineSet
EndChar

StartChar: Oslash
Encoding: 216 216 154
Width: 721
GlyphClass: 2
Flags: W
LayerCount: 2
Fore
SplineSet
567 594 m 1,0,1
 663 501 663 501 663 330 c 0,2,3
 663 173 663 173 581.5 81.5 c 128,-1,4
 500 -10 500 -10 361 -10 c 0,5,6
 251 -10 251 -10 175 49 c 1,7,-1
 118 -32 l 1,8,-1
 86 -32 l 1,9,-1
 156 65 l 1,10,11
 59 157 59 157 59 330 c 0,12,13
 59 487 59 487 140.5 578.5 c 128,-1,14
 222 670 222 670 361 670 c 0,15,16
 473 670 473 670 548 610 c 1,17,-1
 604 688 l 1,18,-1
 635 688 l 1,19,-1
 567 594 l 1,0,1
90 330 m 0,20,21
 90 175 90 175 174 89 c 1,22,-1
 531 586 l 1,23,24
 462 643 462 643 361 643 c 0,25,26
 236 643 236 643 163 559 c 128,-1,27
 90 475 90 475 90 330 c 0,20,21
361 17 m 0,28,29
 486 17 486 17 559 101 c 128,-1,30
 632 185 632 185 632 330 c 0,31,32
 632 484 632 484 549 569 c 1,33,-1
 192 73 l 1,34,35
 260 17 260 17 361 17 c 0,28,29
EndSplineSet
Substitution2: "'c2sc' Capitals to Small Capitals lookup 11 subtable" oslash.sc
Substitution2: "'aalt' Access All Alternates lookup 0 subtable" oslash.sc
EndChar

StartChar: Ugrave
Encoding: 217 217 155
Width: 689
GlyphClass: 2
Flags: W
LayerCount: 2
Fore
SplineSet
295 891 m 1,0,-1
 366 743 l 1,1,-1
 340 743 l 1,2,-1
 260 891 l 1,3,-1
 295 891 l 1,0,-1
596 660 m 1,4,-1
 596 237 l 2,5,6
 596 118 596 118 530 54 c 128,-1,7
 464 -10 464 -10 344 -10 c 0,8,9
 225 -10 225 -10 159 54 c 128,-1,10
 93 118 93 118 93 237 c 2,11,-1
 93 660 l 1,12,-1
 123 660 l 1,13,-1
 123 242 l 2,14,15
 123 134 123 134 180.5 75.5 c 128,-1,16
 238 17 238 17 344 17 c 128,-1,17
 450 17 450 17 508 75.5 c 128,-1,18
 566 134 566 134 566 242 c 2,19,-1
 566 660 l 1,20,-1
 596 660 l 1,4,-1
EndSplineSet
Substitution2: "'c2sc' Capitals to Small Capitals lookup 11 subtable" ugrave.sc
Substitution2: "'aalt' Access All Alternates lookup 0 subtable" ugrave.sc
EndChar

StartChar: Uacute
Encoding: 218 218 156
Width: 689
GlyphClass: 2
Flags: W
LayerCount: 2
Fore
SplineSet
405 891 m 1,0,-1
 440 891 l 1,1,-1
 360 743 l 1,2,-1
 334 743 l 1,3,-1
 405 891 l 1,0,-1
596 660 m 1,4,-1
 596 237 l 2,5,6
 596 118 596 118 530 54 c 128,-1,7
 464 -10 464 -10 344 -10 c 0,8,9
 225 -10 225 -10 159 54 c 128,-1,10
 93 118 93 118 93 237 c 2,11,-1
 93 660 l 1,12,-1
 123 660 l 1,13,-1
 123 242 l 2,14,15
 123 134 123 134 180.5 75.5 c 128,-1,16
 238 17 238 17 344 17 c 128,-1,17
 450 17 450 17 508 75.5 c 128,-1,18
 566 134 566 134 566 242 c 2,19,-1
 566 660 l 1,20,-1
 596 660 l 1,4,-1
EndSplineSet
Substitution2: "'c2sc' Capitals to Small Capitals lookup 11 subtable" uacute.sc
Substitution2: "'aalt' Access All Alternates lookup 0 subtable" uacute.sc
EndChar

StartChar: Ucircumflex
Encoding: 219 219 157
Width: 689
GlyphClass: 2
Flags: W
LayerCount: 2
Fore
SplineSet
472 742 m 1,0,-1
 443 742 l 1,1,-1
 344 868 l 1,2,-1
 246 742 l 1,3,-1
 216 742 l 1,4,-1
 326 889 l 1,5,-1
 362 889 l 1,6,-1
 472 742 l 1,0,-1
596 660 m 1,7,-1
 596 237 l 2,8,9
 596 118 596 118 530 54 c 128,-1,10
 464 -10 464 -10 344 -10 c 0,11,12
 225 -10 225 -10 159 54 c 128,-1,13
 93 118 93 118 93 237 c 2,14,-1
 93 660 l 1,15,-1
 123 660 l 1,16,-1
 123 242 l 2,17,18
 123 134 123 134 180.5 75.5 c 128,-1,19
 238 17 238 17 344 17 c 128,-1,20
 450 17 450 17 508 75.5 c 128,-1,21
 566 134 566 134 566 242 c 2,22,-1
 566 660 l 1,23,-1
 596 660 l 1,7,-1
EndSplineSet
Substitution2: "'c2sc' Capitals to Small Capitals lookup 11 subtable" ucircumflex.sc
Substitution2: "'aalt' Access All Alternates lookup 0 subtable" ucircumflex.sc
EndChar

StartChar: Udieresis
Encoding: 220 220 158
Width: 689
GlyphClass: 2
Flags: W
LayerCount: 2
Fore
SplineSet
250 814 m 0,0,1
 264 814 264 814 272 806 c 128,-1,2
 280 798 280 798 280 784 c 0,3,4
 280 771 280 771 271.5 763 c 128,-1,5
 263 755 263 755 250 755 c 128,-1,6
 237 755 237 755 228.5 763 c 128,-1,7
 220 771 220 771 220 784 c 128,-1,8
 220 797 220 797 228.5 805.5 c 128,-1,9
 237 814 237 814 250 814 c 0,0,1
436 814 m 0,10,11
 450 814 450 814 458 806 c 128,-1,12
 466 798 466 798 466 784 c 0,13,14
 466 771 466 771 457.5 763 c 128,-1,15
 449 755 449 755 436 755 c 128,-1,16
 423 755 423 755 415 763 c 128,-1,17
 407 771 407 771 407 784 c 128,-1,18
 407 797 407 797 415 805.5 c 128,-1,19
 423 814 423 814 436 814 c 0,10,11
596 660 m 1,20,-1
 596 237 l 2,21,22
 596 118 596 118 530 54 c 128,-1,23
 464 -10 464 -10 344 -10 c 0,24,25
 225 -10 225 -10 159 54 c 128,-1,26
 93 118 93 118 93 237 c 2,27,-1
 93 660 l 1,28,-1
 123 660 l 1,29,-1
 123 242 l 2,30,31
 123 134 123 134 180.5 75.5 c 128,-1,32
 238 17 238 17 344 17 c 128,-1,33
 450 17 450 17 508 75.5 c 128,-1,34
 566 134 566 134 566 242 c 2,35,-1
 566 660 l 1,36,-1
 596 660 l 1,20,-1
EndSplineSet
Substitution2: "'titl' Titling lookup 41 subtable" Udieresis.titl
Substitution2: "'c2sc' Capitals to Small Capitals lookup 11 subtable" udieresis.sc
AlternateSubs2: "'aalt' Access All Alternates lookup 1 subtable" udieresis.sc Udieresis.titl
EndChar

StartChar: Yacute
Encoding: 221 221 159
Width: 525
GlyphClass: 2
Flags: W
LayerCount: 2
Fore
SplineSet
324 891 m 1,0,-1
 359 891 l 1,1,-1
 279 743 l 1,2,-1
 253 743 l 1,3,-1
 324 891 l 1,0,-1
510 660 m 1,4,-1
 278 256 l 1,5,-1
 278 0 l 1,6,-1
 248 0 l 1,7,-1
 248 256 l 1,8,-1
 15 660 l 1,9,-1
 50 660 l 1,10,-1
 179 434 l 1,11,-1
 263 288 l 1,12,-1
 475 660 l 1,13,-1
 510 660 l 1,4,-1
EndSplineSet
Substitution2: "'c2sc' Capitals to Small Capitals lookup 11 subtable" yacute.sc
Substitution2: "'aalt' Access All Alternates lookup 0 subtable" yacute.sc
EndChar

StartChar: Thorn
Encoding: 222 222 160
Width: 580
GlyphClass: 2
Flags: W
LayerCount: 2
Fore
SplineSet
301 529 m 2,0,1
 537 529 537 529 537 339 c 0,2,3
 537 150 537 150 301 150 c 2,4,-1
 131 150 l 1,5,-1
 131 0 l 1,6,-1
 101 0 l 1,7,-1
 101 660 l 1,8,-1
 131 660 l 1,9,-1
 131 529 l 1,10,-1
 301 529 l 2,0,1
310 177 m 2,11,12
 506 177 506 177 506 339 c 128,-1,13
 506 501 506 501 310 501 c 2,14,-1
 131 501 l 1,15,-1
 131 177 l 1,16,-1
 310 177 l 2,11,12
EndSplineSet
Substitution2: "'c2sc' Capitals to Small Capitals lookup 11 subtable" thorn.sc
Substitution2: "'aalt' Access All Alternates lookup 0 subtable" thorn.sc
EndChar

StartChar: germandbls
Encoding: 223 223 161
Width: 569
GlyphClass: 2
Flags: W
LayerCount: 2
Fore
SplineSet
334 380 m 1,0,1
 423 376 423 376 470.5 323.5 c 128,-1,2
 518 271 518 271 518 185 c 0,3,4
 518 98 518 98 465 44 c 128,-1,5
 412 -10 412 -10 324 -10 c 0,6,7
 253 -10 253 -10 219 32 c 1,8,-1
 231 54 l 1,9,10
 265 16 265 16 325 16 c 0,11,12
 400 16 400 16 444 62.5 c 128,-1,13
 488 109 488 109 488 187 c 0,14,15
 488 275 488 275 436.5 320 c 128,-1,16
 385 365 385 365 296 365 c 2,17,-1
 253 365 l 1,18,-1
 253 392 l 1,19,-1
 296 392 l 2,20,21
 369 392 369 392 414 436.5 c 128,-1,22
 459 481 459 481 459 559 c 0,23,24
 459 629 459 629 416.5 668.5 c 128,-1,25
 374 708 374 708 298 708 c 0,26,27
 116 708 116 708 116 498 c 2,28,-1
 116 0 l 1,29,-1
 87 0 l 1,30,-1
 87 512 l 2,31,32
 87 735 87 735 300 735 c 0,33,34
 390 735 390 735 439.5 686.5 c 128,-1,35
 489 638 489 638 489 558 c 0,36,37
 489 484 489 484 446 433.5 c 128,-1,38
 403 383 403 383 334 381 c 1,39,-1
 334 380 l 1,0,1
EndSplineSet
Substitution2: "Single Substitution lookup 57 subtable" germandbls.calt
Substitution2: "'smcp' Lowercase to Small Capitals lookup 12 subtable" germandbls.sc
AlternateSubs2: "'aalt' Access All Alternates lookup 1 subtable" germandbls.sc germandbls.calt
EndChar

StartChar: agrave
Encoding: 224 224 162
Width: 528
GlyphClass: 2
Flags: W
LayerCount: 2
Fore
SplineSet
267 583 m 1,0,-1
 241 583 l 1,1,-1
 151 734 l 1,2,-1
 184 734 l 1,3,-1
 267 583 l 1,0,-1
483 16 m 0,4,5
 509 16 509 16 522 24 c 1,6,-1
 520 -1 l 1,7,8
 505 -10 505 -10 479 -10 c 0,9,10
 402 -10 402 -10 402 86 c 1,11,12
 381 40 381 40 325.5 15 c 128,-1,13
 270 -10 270 -10 207 -10 c 0,14,15
 133 -10 133 -10 90.5 22 c 128,-1,16
 48 54 48 54 48 112 c 0,17,18
 48 171 48 171 93 206 c 128,-1,19
 138 241 138 241 235 259 c 2,20,-1
 402 289 l 1,21,-1
 402 344 l 2,22,23
 402 410 402 410 363 447 c 128,-1,24
 324 484 324 484 252 484 c 0,25,26
 124 484 124 484 81 371 c 1,27,-1
 58 388 l 1,28,29
 103 510 103 510 252 510 c 0,30,31
 338 510 338 510 385 468 c 128,-1,32
 432 426 432 426 432 346 c 2,33,-1
 432 80 l 2,34,35
 432 16 432 16 483 16 c 0,4,5
212 16 m 0,36,37
 281 16 281 16 341.5 52.5 c 128,-1,38
 402 89 402 89 402 155 c 2,39,-1
 402 264 l 1,40,-1
 248 236 l 2,41,42
 158 219 158 219 118.5 189 c 128,-1,43
 79 159 79 159 79 112 c 0,44,45
 79 67 79 67 114.5 41.5 c 128,-1,46
 150 16 150 16 212 16 c 0,36,37
EndSplineSet
Substitution2: "'smcp' Lowercase to Small Capitals lookup 12 subtable" agrave.sc
Substitution2: "'aalt' Access All Alternates lookup 0 subtable" agrave.sc
EndChar

StartChar: aacute
Encoding: 225 225 163
Width: 528
GlyphClass: 2
Flags: W
LayerCount: 2
Fore
SplineSet
349 734 m 1,0,-1
 259 583 l 1,1,-1
 233 583 l 1,2,-1
 316 734 l 1,3,-1
 349 734 l 1,0,-1
483 16 m 0,4,5
 509 16 509 16 522 24 c 1,6,-1
 520 -1 l 1,7,8
 505 -10 505 -10 479 -10 c 0,9,10
 402 -10 402 -10 402 86 c 1,11,12
 381 40 381 40 325.5 15 c 128,-1,13
 270 -10 270 -10 207 -10 c 0,14,15
 133 -10 133 -10 90.5 22 c 128,-1,16
 48 54 48 54 48 112 c 0,17,18
 48 171 48 171 93 206 c 128,-1,19
 138 241 138 241 235 259 c 2,20,-1
 402 289 l 1,21,-1
 402 344 l 2,22,23
 402 410 402 410 363 447 c 128,-1,24
 324 484 324 484 252 484 c 0,25,26
 124 484 124 484 81 371 c 1,27,-1
 58 388 l 1,28,29
 103 510 103 510 252 510 c 0,30,31
 338 510 338 510 385 468 c 128,-1,32
 432 426 432 426 432 346 c 2,33,-1
 432 80 l 2,34,35
 432 16 432 16 483 16 c 0,4,5
212 16 m 0,36,37
 281 16 281 16 341.5 52.5 c 128,-1,38
 402 89 402 89 402 155 c 2,39,-1
 402 264 l 1,40,-1
 248 236 l 2,41,42
 158 219 158 219 118.5 189 c 128,-1,43
 79 159 79 159 79 112 c 0,44,45
 79 67 79 67 114.5 41.5 c 128,-1,46
 150 16 150 16 212 16 c 0,36,37
EndSplineSet
Substitution2: "'smcp' Lowercase to Small Capitals lookup 12 subtable" aacute.sc
Substitution2: "'aalt' Access All Alternates lookup 0 subtable" aacute.sc
EndChar

StartChar: acircumflex
Encoding: 226 226 164
Width: 528
GlyphClass: 2
Flags: W
LayerCount: 2
Fore
SplineSet
250 707 m 1,0,-1
 153 582 l 1,1,-1
 124 582 l 1,2,-1
 233 729 l 1,3,-1
 267 729 l 1,4,-1
 376 582 l 1,5,-1
 347 582 l 1,6,-1
 250 707 l 1,0,-1
483 16 m 0,7,8
 509 16 509 16 522 24 c 1,9,-1
 520 -1 l 1,10,11
 505 -10 505 -10 479 -10 c 0,12,13
 402 -10 402 -10 402 86 c 1,14,15
 381 40 381 40 325.5 15 c 128,-1,16
 270 -10 270 -10 207 -10 c 0,17,18
 133 -10 133 -10 90.5 22 c 128,-1,19
 48 54 48 54 48 112 c 0,20,21
 48 171 48 171 93 206 c 128,-1,22
 138 241 138 241 235 259 c 2,23,-1
 402 289 l 1,24,-1
 402 344 l 2,25,26
 402 410 402 410 363 447 c 128,-1,27
 324 484 324 484 252 484 c 0,28,29
 124 484 124 484 81 371 c 1,30,-1
 58 388 l 1,31,32
 103 510 103 510 252 510 c 0,33,34
 338 510 338 510 385 468 c 128,-1,35
 432 426 432 426 432 346 c 2,36,-1
 432 80 l 2,37,38
 432 16 432 16 483 16 c 0,7,8
212 16 m 0,39,40
 281 16 281 16 341.5 52.5 c 128,-1,41
 402 89 402 89 402 155 c 2,42,-1
 402 264 l 1,43,-1
 248 236 l 2,44,45
 158 219 158 219 118.5 189 c 128,-1,46
 79 159 79 159 79 112 c 0,47,48
 79 67 79 67 114.5 41.5 c 128,-1,49
 150 16 150 16 212 16 c 0,39,40
EndSplineSet
Substitution2: "'smcp' Lowercase to Small Capitals lookup 12 subtable" acircumflex.sc
Substitution2: "'aalt' Access All Alternates lookup 0 subtable" acircumflex.sc
EndChar

StartChar: atilde
Encoding: 227 227 165
Width: 528
GlyphClass: 2
Flags: W
LayerCount: 2
Fore
SplineSet
177 664 m 128,-1,1
 147 664 147 664 133 647.5 c 128,-1,2
 119 631 119 631 112 595 c 1,3,-1
 87 595 l 1,4,5
 95 643 95 643 116.5 666 c 128,-1,6
 138 689 138 689 178 689 c 128,-1,7
 218 689 218 689 255 655 c 128,-1,8
 292 621 292 621 321 621 c 0,9,10
 351 621 351 621 365.5 637.5 c 128,-1,11
 380 654 380 654 387 690 c 1,12,-1
 413 690 l 1,13,14
 405 642 405 642 383.5 619 c 128,-1,15
 362 596 362 596 322 596 c 0,16,17
 281 596 281 596 244 630 c 128,-1,0
 207 664 207 664 177 664 c 128,-1,1
483 16 m 0,18,19
 509 16 509 16 522 24 c 1,20,-1
 520 -1 l 1,21,22
 505 -10 505 -10 479 -10 c 0,23,24
 402 -10 402 -10 402 86 c 1,25,26
 381 40 381 40 325.5 15 c 128,-1,27
 270 -10 270 -10 207 -10 c 0,28,29
 133 -10 133 -10 90.5 22 c 128,-1,30
 48 54 48 54 48 112 c 0,31,32
 48 171 48 171 93 206 c 128,-1,33
 138 241 138 241 235 259 c 2,34,-1
 402 289 l 1,35,-1
 402 344 l 2,36,37
 402 410 402 410 363 447 c 128,-1,38
 324 484 324 484 252 484 c 0,39,40
 124 484 124 484 81 371 c 1,41,-1
 58 388 l 1,42,43
 103 510 103 510 252 510 c 0,44,45
 338 510 338 510 385 468 c 128,-1,46
 432 426 432 426 432 346 c 2,47,-1
 432 80 l 2,48,49
 432 16 432 16 483 16 c 0,18,19
212 16 m 0,50,51
 281 16 281 16 341.5 52.5 c 128,-1,52
 402 89 402 89 402 155 c 2,53,-1
 402 264 l 1,54,-1
 248 236 l 2,55,56
 158 219 158 219 118.5 189 c 128,-1,57
 79 159 79 159 79 112 c 0,58,59
 79 67 79 67 114.5 41.5 c 128,-1,60
 150 16 150 16 212 16 c 0,50,51
EndSplineSet
Substitution2: "'smcp' Lowercase to Small Capitals lookup 12 subtable" atilde.sc
Substitution2: "'aalt' Access All Alternates lookup 0 subtable" atilde.sc
EndChar

StartChar: adieresis
Encoding: 228 228 166
Width: 528
GlyphClass: 2
Flags: W
LayerCount: 2
Fore
SplineSet
155 595 m 128,-1,1
 142 595 142 595 133.5 603 c 128,-1,2
 125 611 125 611 125 624 c 128,-1,3
 125 637 125 637 133.5 645.5 c 128,-1,4
 142 654 142 654 155 654 c 128,-1,5
 168 654 168 654 176.5 646 c 128,-1,6
 185 638 185 638 185 624 c 0,7,8
 185 611 185 611 176.5 603 c 128,-1,0
 168 595 168 595 155 595 c 128,-1,1
341 595 m 128,-1,10
 328 595 328 595 320 603 c 128,-1,11
 312 611 312 611 312 624 c 128,-1,12
 312 637 312 637 320 645.5 c 128,-1,13
 328 654 328 654 341 654 c 128,-1,14
 354 654 354 654 362.5 646 c 128,-1,15
 371 638 371 638 371 624 c 0,16,17
 371 611 371 611 362.5 603 c 128,-1,9
 354 595 354 595 341 595 c 128,-1,10
483 16 m 0,18,19
 509 16 509 16 522 24 c 1,20,-1
 520 -1 l 1,21,22
 505 -10 505 -10 479 -10 c 0,23,24
 402 -10 402 -10 402 86 c 1,25,26
 381 40 381 40 325.5 15 c 128,-1,27
 270 -10 270 -10 207 -10 c 0,28,29
 133 -10 133 -10 90.5 22 c 128,-1,30
 48 54 48 54 48 112 c 0,31,32
 48 171 48 171 93 206 c 128,-1,33
 138 241 138 241 235 259 c 2,34,-1
 402 289 l 1,35,-1
 402 344 l 2,36,37
 402 410 402 410 363 447 c 128,-1,38
 324 484 324 484 252 484 c 0,39,40
 124 484 124 484 81 371 c 1,41,-1
 58 388 l 1,42,43
 103 510 103 510 252 510 c 0,44,45
 338 510 338 510 385 468 c 128,-1,46
 432 426 432 426 432 346 c 2,47,-1
 432 80 l 2,48,49
 432 16 432 16 483 16 c 0,18,19
212 16 m 0,50,51
 281 16 281 16 341.5 52.5 c 128,-1,52
 402 89 402 89 402 155 c 2,53,-1
 402 264 l 1,54,-1
 248 236 l 2,55,56
 158 219 158 219 118.5 189 c 128,-1,57
 79 159 79 159 79 112 c 0,58,59
 79 67 79 67 114.5 41.5 c 128,-1,60
 150 16 150 16 212 16 c 0,50,51
EndSplineSet
Substitution2: "'smcp' Lowercase to Small Capitals lookup 12 subtable" adieresis.sc
Substitution2: "'aalt' Access All Alternates lookup 0 subtable" adieresis.sc
EndChar

StartChar: aring
Encoding: 229 229 167
Width: 528
GlyphClass: 2
Flags: W
LayerCount: 2
Fore
SplineSet
247 575 m 128,-1,1
 207 575 207 575 181 600.5 c 128,-1,2
 155 626 155 626 155 664 c 128,-1,3
 155 702 155 702 181 727 c 128,-1,4
 207 752 207 752 247 752 c 128,-1,5
 287 752 287 752 312.5 727 c 128,-1,6
 338 702 338 702 338 664 c 128,-1,7
 338 626 338 626 312.5 600.5 c 128,-1,0
 287 575 287 575 247 575 c 128,-1,1
247 730 m 128,-1,9
 219 730 219 730 199.5 711 c 128,-1,10
 180 692 180 692 180 664 c 128,-1,11
 180 636 180 636 199 616.5 c 128,-1,12
 218 597 218 597 247 597 c 128,-1,13
 276 597 276 597 295 616.5 c 128,-1,14
 314 636 314 636 314 664 c 128,-1,15
 314 692 314 692 294.5 711 c 128,-1,8
 275 730 275 730 247 730 c 128,-1,9
483 16 m 0,16,17
 509 16 509 16 522 24 c 1,18,-1
 520 -1 l 1,19,20
 505 -10 505 -10 479 -10 c 0,21,22
 402 -10 402 -10 402 86 c 1,23,24
 381 40 381 40 325.5 15 c 128,-1,25
 270 -10 270 -10 207 -10 c 0,26,27
 133 -10 133 -10 90.5 22 c 128,-1,28
 48 54 48 54 48 112 c 0,29,30
 48 171 48 171 93 206 c 128,-1,31
 138 241 138 241 235 259 c 2,32,-1
 402 289 l 1,33,-1
 402 344 l 2,34,35
 402 410 402 410 363 447 c 128,-1,36
 324 484 324 484 252 484 c 0,37,38
 124 484 124 484 81 371 c 1,39,-1
 58 388 l 1,40,41
 103 510 103 510 252 510 c 0,42,43
 338 510 338 510 385 468 c 128,-1,44
 432 426 432 426 432 346 c 2,45,-1
 432 80 l 2,46,47
 432 16 432 16 483 16 c 0,16,17
212 16 m 0,48,49
 281 16 281 16 341.5 52.5 c 128,-1,50
 402 89 402 89 402 155 c 2,51,-1
 402 264 l 1,52,-1
 248 236 l 2,53,54
 158 219 158 219 118.5 189 c 128,-1,55
 79 159 79 159 79 112 c 0,56,57
 79 67 79 67 114.5 41.5 c 128,-1,58
 150 16 150 16 212 16 c 0,48,49
EndSplineSet
Substitution2: "'smcp' Lowercase to Small Capitals lookup 12 subtable" aring.sc
Substitution2: "'aalt' Access All Alternates lookup 0 subtable" aring.sc
EndChar

StartChar: ae
Encoding: 230 230 168
Width: 870
GlyphClass: 2
Flags: W
LayerCount: 2
Fore
SplineSet
819 249 m 2,0,-1
 431 249 l 1,1,-1
 431 240 l 2,2,3
 433 136 433 136 483 76 c 128,-1,4
 533 16 533 16 616 16 c 0,5,6
 743 16 743 16 786 120 c 1,7,-1
 810 107 l 1,8,9
 759 -10 759 -10 616 -10 c 0,10,11
 542 -10 542 -10 491 30 c 128,-1,12
 440 70 440 70 419 145 c 1,13,14
 406 66 406 66 345 28 c 128,-1,15
 284 -10 284 -10 206 -10 c 0,16,17
 135 -10 135 -10 91.5 22 c 128,-1,18
 48 54 48 54 48 112 c 0,19,20
 48 238 48 238 233 257 c 2,21,-1
 404 275 l 1,22,-1
 404 342 l 2,23,24
 404 409 404 409 364.5 446.5 c 128,-1,25
 325 484 325 484 253 484 c 0,26,27
 125 484 125 484 81 371 c 1,28,-1
 58 388 l 1,29,30
 104 510 104 510 253 510 c 0,31,32
 327 510 327 510 372 476.5 c 128,-1,33
 417 443 417 443 428 380 c 1,34,35
 452 442 452 442 500 476 c 128,-1,36
 548 510 548 510 614 510 c 0,37,38
 715 510 715 510 767.5 447.5 c 128,-1,39
 820 385 820 385 820 267 c 0,40,41
 820 263 820 263 819.5 257 c 128,-1,42
 819 251 819 251 819 249 c 2,0,-1
614 484 m 0,43,44
 535 484 535 484 486.5 429 c 128,-1,45
 438 374 438 374 432 276 c 1,46,-1
 792 276 l 1,47,48
 786 484 786 484 614 484 c 0,43,44
213 16 m 0,49,50
 245 16 245 16 276.5 25 c 128,-1,51
 308 34 308 34 337.5 53.5 c 128,-1,52
 367 73 367 73 385.5 108 c 128,-1,53
 404 143 404 143 404 190 c 2,54,-1
 404 251 l 1,55,-1
 246 234 l 2,56,57
 79 218 79 218 79 112 c 0,58,59
 79 65 79 65 116 40.5 c 128,-1,60
 153 16 153 16 213 16 c 0,49,50
EndSplineSet
Substitution2: "'smcp' Lowercase to Small Capitals lookup 12 subtable" ae.sc
Substitution2: "'aalt' Access All Alternates lookup 0 subtable" ae.sc
EndChar

StartChar: ccedilla
Encoding: 231 231 169
Width: 533
GlyphClass: 2
Flags: W
LayerCount: 2
Fore
SplineSet
489 137 m 1,0,1
 475 72 475 72 422 32.5 c 128,-1,2
 369 -7 369 -7 295 -10 c 1,3,4
 368 -52 368 -52 368 -116 c 0,5,6
 368 -155 368 -155 342 -180 c 128,-1,7
 316 -205 316 -205 274 -205 c 0,8,9
 210 -205 210 -205 177 -164 c 1,10,-1
 189 -143 l 1,11,12
 220 -182 220 -182 272 -182 c 0,13,14
 302 -182 302 -182 321.5 -163 c 128,-1,15
 341 -144 341 -144 341 -114 c 128,-1,16
 341 -84 341 -84 322 -60 c 128,-1,17
 303 -36 303 -36 253 -9 c 1,18,19
 158 1 158 1 105.5 69 c 128,-1,20
 53 137 53 137 53 250 c 0,21,22
 53 372 53 372 115 441 c 128,-1,23
 177 510 177 510 286 510 c 0,24,25
 361 510 361 510 413 474.5 c 128,-1,26
 465 439 465 439 485 374 c 1,27,-1
 458 361 l 1,28,29
 441 420 441 420 396.5 452 c 128,-1,30
 352 484 352 484 286 484 c 0,31,32
 190 484 190 484 136.5 422 c 128,-1,33
 83 360 83 360 83 250 c 128,-1,34
 83 140 83 140 135.5 78 c 128,-1,35
 188 16 188 16 283 16 c 0,36,37
 352 16 352 16 402 51.5 c 128,-1,38
 452 87 452 87 462 147 c 1,39,-1
 489 137 l 1,0,1
EndSplineSet
Substitution2: "'smcp' Lowercase to Small Capitals lookup 12 subtable" ccedilla.sc
Substitution2: "'aalt' Access All Alternates lookup 0 subtable" ccedilla.sc
EndChar

StartChar: egrave
Encoding: 232 232 170
Width: 544
GlyphClass: 2
Flags: W
AnchorPoint: "Anchor-0" 288 0 basechar 0
LayerCount: 2
Fore
SplineSet
294 583 m 1,0,-1
 268 583 l 1,1,-1
 178 734 l 1,2,-1
 211 734 l 1,3,-1
 294 583 l 1,0,-1
494 253 m 0,4,5
 494 249 494 249 493.5 243 c 128,-1,6
 493 237 493 237 493 235 c 2,7,-1
 83 235 l 1,8,9
 87 132 87 132 140 74 c 128,-1,10
 193 16 193 16 285 16 c 0,11,12
 346 16 346 16 393.5 43.5 c 128,-1,13
 441 71 441 71 464 120 c 1,14,-1
 489 107 l 1,15,16
 462 52 462 52 409 21 c 128,-1,17
 356 -10 356 -10 285 -10 c 0,18,19
 176 -10 176 -10 114.5 59 c 128,-1,20
 53 128 53 128 53 250 c 128,-1,21
 53 372 53 372 113 441 c 128,-1,22
 173 510 173 510 280 510 c 0,23,24
 380 510 380 510 437 441 c 128,-1,25
 494 372 494 372 494 253 c 0,4,5
280 484 m 0,26,27
 190 484 190 484 138 425.5 c 128,-1,28
 86 367 86 367 83 262 c 1,29,-1
 466 262 l 1,30,31
 463 367 463 367 415 425.5 c 128,-1,32
 367 484 367 484 280 484 c 0,26,27
EndSplineSet
Substitution2: "'smcp' Lowercase to Small Capitals lookup 12 subtable" egrave.sc
Substitution2: "'aalt' Access All Alternates lookup 0 subtable" egrave.sc
EndChar

StartChar: eacute
Encoding: 233 233 171
Width: 544
GlyphClass: 2
Flags: W
AnchorPoint: "Anchor-0" 288 0 basechar 0
LayerCount: 2
Fore
SplineSet
376 734 m 1,0,-1
 286 583 l 1,1,-1
 260 583 l 1,2,-1
 343 734 l 1,3,-1
 376 734 l 1,0,-1
494 253 m 0,4,5
 494 249 494 249 493.5 243 c 128,-1,6
 493 237 493 237 493 235 c 2,7,-1
 83 235 l 1,8,9
 87 132 87 132 140 74 c 128,-1,10
 193 16 193 16 285 16 c 0,11,12
 346 16 346 16 393.5 43.5 c 128,-1,13
 441 71 441 71 464 120 c 1,14,-1
 489 107 l 1,15,16
 462 52 462 52 409 21 c 128,-1,17
 356 -10 356 -10 285 -10 c 0,18,19
 176 -10 176 -10 114.5 59 c 128,-1,20
 53 128 53 128 53 250 c 128,-1,21
 53 372 53 372 113 441 c 128,-1,22
 173 510 173 510 280 510 c 0,23,24
 380 510 380 510 437 441 c 128,-1,25
 494 372 494 372 494 253 c 0,4,5
280 484 m 0,26,27
 190 484 190 484 138 425.5 c 128,-1,28
 86 367 86 367 83 262 c 1,29,-1
 466 262 l 1,30,31
 463 367 463 367 415 425.5 c 128,-1,32
 367 484 367 484 280 484 c 0,26,27
EndSplineSet
Substitution2: "'smcp' Lowercase to Small Capitals lookup 12 subtable" eacute.sc
Substitution2: "'aalt' Access All Alternates lookup 0 subtable" eacute.sc
EndChar

StartChar: ecircumflex
Encoding: 234 234 172
Width: 544
GlyphClass: 2
Flags: W
AnchorPoint: "Anchor-0" 288 0 basechar 0
LayerCount: 2
Fore
SplineSet
277 707 m 1,0,-1
 180 582 l 1,1,-1
 151 582 l 1,2,-1
 260 729 l 1,3,-1
 294 729 l 1,4,-1
 403 582 l 1,5,-1
 374 582 l 1,6,-1
 277 707 l 1,0,-1
494 253 m 0,7,8
 494 249 494 249 493.5 243 c 128,-1,9
 493 237 493 237 493 235 c 2,10,-1
 83 235 l 1,11,12
 87 132 87 132 140 74 c 128,-1,13
 193 16 193 16 285 16 c 0,14,15
 346 16 346 16 393.5 43.5 c 128,-1,16
 441 71 441 71 464 120 c 1,17,-1
 489 107 l 1,18,19
 462 52 462 52 409 21 c 128,-1,20
 356 -10 356 -10 285 -10 c 0,21,22
 176 -10 176 -10 114.5 59 c 128,-1,23
 53 128 53 128 53 250 c 128,-1,24
 53 372 53 372 113 441 c 128,-1,25
 173 510 173 510 280 510 c 0,26,27
 380 510 380 510 437 441 c 128,-1,28
 494 372 494 372 494 253 c 0,7,8
280 484 m 0,29,30
 190 484 190 484 138 425.5 c 128,-1,31
 86 367 86 367 83 262 c 1,32,-1
 466 262 l 1,33,34
 463 367 463 367 415 425.5 c 128,-1,35
 367 484 367 484 280 484 c 0,29,30
EndSplineSet
Substitution2: "'smcp' Lowercase to Small Capitals lookup 12 subtable" ecircumflex.sc
Substitution2: "'aalt' Access All Alternates lookup 0 subtable" ecircumflex.sc
EndChar

StartChar: edieresis
Encoding: 235 235 173
Width: 544
GlyphClass: 2
Flags: W
AnchorPoint: "Anchor-0" 288 0 basechar 0
LayerCount: 2
Fore
SplineSet
182 595 m 128,-1,1
 169 595 169 595 160.5 603 c 128,-1,2
 152 611 152 611 152 624 c 128,-1,3
 152 637 152 637 160.5 645.5 c 128,-1,4
 169 654 169 654 182 654 c 0,5,6
 196 654 196 654 204 646 c 128,-1,7
 212 638 212 638 212 624 c 0,8,9
 212 611 212 611 203.5 603 c 128,-1,0
 195 595 195 595 182 595 c 128,-1,1
368 595 m 128,-1,11
 355 595 355 595 347 603 c 128,-1,12
 339 611 339 611 339 624 c 128,-1,13
 339 637 339 637 347 645.5 c 128,-1,14
 355 654 355 654 368 654 c 0,15,16
 382 654 382 654 390 646 c 128,-1,17
 398 638 398 638 398 624 c 0,18,19
 398 611 398 611 389.5 603 c 128,-1,10
 381 595 381 595 368 595 c 128,-1,11
494 253 m 0,20,21
 494 249 494 249 493.5 243 c 128,-1,22
 493 237 493 237 493 235 c 2,23,-1
 83 235 l 1,24,25
 87 132 87 132 140 74 c 128,-1,26
 193 16 193 16 285 16 c 0,27,28
 346 16 346 16 393.5 43.5 c 128,-1,29
 441 71 441 71 464 120 c 1,30,-1
 489 107 l 1,31,32
 462 52 462 52 409 21 c 128,-1,33
 356 -10 356 -10 285 -10 c 0,34,35
 176 -10 176 -10 114.5 59 c 128,-1,36
 53 128 53 128 53 250 c 128,-1,37
 53 372 53 372 113 441 c 128,-1,38
 173 510 173 510 280 510 c 0,39,40
 380 510 380 510 437 441 c 128,-1,41
 494 372 494 372 494 253 c 0,20,21
280 484 m 0,42,43
 190 484 190 484 138 425.5 c 128,-1,44
 86 367 86 367 83 262 c 1,45,-1
 466 262 l 1,46,47
 463 367 463 367 415 425.5 c 128,-1,48
 367 484 367 484 280 484 c 0,42,43
EndSplineSet
Substitution2: "'smcp' Lowercase to Small Capitals lookup 12 subtable" edieresis.sc
Substitution2: "'aalt' Access All Alternates lookup 0 subtable" edieresis.sc
EndChar

StartChar: igrave
Encoding: 236 236 174
Width: 204
GlyphClass: 2
Flags: W
LayerCount: 2
Fore
SplineSet
36 734 m 1,0,-1
 119 583 l 1,1,-1
 93 583 l 1,2,-1
 3 734 l 1,3,-1
 36 734 l 1,0,-1
117 500 m 1,4,-1
 117 0 l 1,5,-1
 87 0 l 1,6,-1
 87 500 l 1,7,-1
 117 500 l 1,4,-1
EndSplineSet
Substitution2: "'smcp' Lowercase to Small Capitals lookup 12 subtable" igrave.sc
Substitution2: "'aalt' Access All Alternates lookup 0 subtable" igrave.sc
EndChar

StartChar: iacute
Encoding: 237 237 175
Width: 204
GlyphClass: 2
Flags: W
LayerCount: 2
Fore
SplineSet
169 734 m 1,0,-1
 202 734 l 1,1,-1
 112 583 l 1,2,-1
 86 583 l 1,3,-1
 169 734 l 1,0,-1
117 500 m 1,4,-1
 117 0 l 1,5,-1
 87 0 l 1,6,-1
 87 500 l 1,7,-1
 117 500 l 1,4,-1
EndSplineSet
Substitution2: "'smcp' Lowercase to Small Capitals lookup 12 subtable" iacute.sc
Substitution2: "'aalt' Access All Alternates lookup 0 subtable" iacute.sc
EndChar

StartChar: icircumflex
Encoding: 238 238 176
Width: 204
GlyphClass: 2
Flags: W
LayerCount: 2
Fore
SplineSet
228 582 m 1,0,-1
 199 582 l 1,1,-1
 102 707 l 1,2,-1
 5 582 l 1,3,-1
 -24 582 l 1,4,-1
 85 729 l 1,5,-1
 119 729 l 1,6,-1
 228 582 l 1,0,-1
117 500 m 1,7,-1
 117 0 l 1,8,-1
 87 0 l 1,9,-1
 87 500 l 1,10,-1
 117 500 l 1,7,-1
EndSplineSet
Substitution2: "'smcp' Lowercase to Small Capitals lookup 12 subtable" icircumflex.sc
Substitution2: "'aalt' Access All Alternates lookup 0 subtable" icircumflex.sc
EndChar

StartChar: idieresis
Encoding: 239 239 177
Width: 204
GlyphClass: 2
Flags: W
LayerCount: 2
Fore
SplineSet
45 595 m 128,-1,1
 32 595 32 595 24 603 c 128,-1,2
 16 611 16 611 16 624 c 128,-1,3
 16 637 16 637 24 645.5 c 128,-1,4
 32 654 32 654 45 654 c 128,-1,5
 58 654 58 654 66.5 646 c 128,-1,6
 75 638 75 638 75 624 c 0,7,8
 75 611 75 611 66.5 603 c 128,-1,0
 58 595 58 595 45 595 c 128,-1,1
158 595 m 128,-1,10
 145 595 145 595 136.5 603 c 128,-1,11
 128 611 128 611 128 624 c 128,-1,12
 128 637 128 637 136.5 645.5 c 128,-1,13
 145 654 145 654 158 654 c 0,14,15
 172 654 172 654 180 646 c 128,-1,16
 188 638 188 638 188 624 c 0,17,18
 188 611 188 611 179.5 603 c 128,-1,9
 171 595 171 595 158 595 c 128,-1,10
117 500 m 1,19,-1
 117 0 l 1,20,-1
 87 0 l 1,21,-1
 87 500 l 1,22,-1
 117 500 l 1,19,-1
EndSplineSet
Substitution2: "'smcp' Lowercase to Small Capitals lookup 12 subtable" idieresis.sc
Substitution2: "'aalt' Access All Alternates lookup 0 subtable" idieresis.sc
EndChar

StartChar: eth
Encoding: 240 240 178
Width: 586
GlyphClass: 2
Flags: W
LayerCount: 2
Fore
SplineSet
533 636 m 1,0,-1
 426 613 l 1,1,2
 519 491 519 491 519 284 c 0,3,4
 519 141 519 141 459 65.5 c 128,-1,5
 399 -10 399 -10 289 -10 c 0,6,7
 181 -10 181 -10 117 57 c 128,-1,8
 53 124 53 124 53 237 c 128,-1,9
 53 350 53 350 116.5 417.5 c 128,-1,10
 180 485 180 485 283 485 c 0,11,12
 360 485 360 485 413 451.5 c 128,-1,13
 466 418 466 418 490 356 c 1,14,15
 474 510 474 510 397 607 c 1,16,-1
 221 568 l 1,17,-1
 216 589 l 1,18,-1
 383 624 l 1,19,20
 324 690 324 690 232 730 c 1,21,-1
 280 730 l 1,22,23
 359 691 359 691 412 630 c 1,24,-1
 527 657 l 1,25,-1
 533 636 l 1,0,-1
290 16 m 0,26,27
 382 16 382 16 435 79 c 128,-1,28
 488 142 488 142 491 253 c 0,29,30
 491 340 491 340 436.5 399.5 c 128,-1,31
 382 459 382 459 285 459 c 0,32,33
 193 459 193 459 138.5 398.5 c 128,-1,34
 84 338 84 338 84 237 c 0,35,36
 84 135 84 135 139 75.5 c 128,-1,37
 194 16 194 16 290 16 c 0,26,27
EndSplineSet
Substitution2: "'smcp' Lowercase to Small Capitals lookup 12 subtable" eth.sc
Substitution2: "'aalt' Access All Alternates lookup 0 subtable" eth.sc
EndChar

StartChar: ntilde
Encoding: 241 241 179
Width: 584
GlyphClass: 2
Flags: W
AnchorPoint: "Anchor-0" 327 0 basechar 0
LayerCount: 2
Fore
SplineSet
226 664 m 128,-1,1
 196 664 196 664 182 647.5 c 128,-1,2
 168 631 168 631 161 595 c 1,3,-1
 136 595 l 1,4,5
 144 643 144 643 165.5 666 c 128,-1,6
 187 689 187 689 227 689 c 0,7,8
 260 689 260 689 282.5 672 c 128,-1,9
 305 655 305 655 325 638 c 128,-1,10
 345 621 345 621 370 621 c 0,11,12
 400 621 400 621 414.5 637.5 c 128,-1,13
 429 654 429 654 436 690 c 1,14,-1
 462 690 l 1,15,16
 454 642 454 642 432.5 619 c 128,-1,17
 411 596 411 596 371 596 c 0,18,19
 330 596 330 596 293 630 c 128,-1,0
 256 664 256 664 226 664 c 128,-1,1
315 510 m 0,20,21
 401 510 401 510 452 462 c 128,-1,22
 503 414 503 414 503 327 c 2,23,-1
 503 0 l 1,24,-1
 473 0 l 1,25,-1
 473 319 l 2,26,27
 473 399 473 399 429.5 441.5 c 128,-1,28
 386 484 386 484 311 484 c 0,29,30
 229 484 229 484 173 429.5 c 128,-1,31
 117 375 117 375 117 293 c 2,32,-1
 117 0 l 1,33,-1
 87 0 l 1,34,-1
 87 500 l 1,35,-1
 115 500 l 1,36,-1
 116 382 l 1,37,38
 137 441 137 441 190.5 475.5 c 128,-1,39
 244 510 244 510 315 510 c 0,20,21
EndSplineSet
Substitution2: "Single Substitution lookup 57 subtable" ntilde.swsh
Substitution2: "'swsh' Swash lookup 38 subtable" ntilde.swsh
Substitution2: "'smcp' Lowercase to Small Capitals lookup 12 subtable" ntilde.sc
AlternateSubs2: "'aalt' Access All Alternates lookup 1 subtable" ntilde.sc ntilde.swsh
EndChar

StartChar: ograve
Encoding: 242 242 180
Width: 578
GlyphClass: 2
Flags: W
LayerCount: 2
Fore
SplineSet
224 734 m 1,0,-1
 307 583 l 1,1,-1
 281 583 l 1,2,-1
 191 734 l 1,3,-1
 224 734 l 1,0,-1
289 510 m 128,-1,5
 399 510 399 510 461.5 440.5 c 128,-1,6
 524 371 524 371 524 250 c 128,-1,7
 524 129 524 129 461.5 59.5 c 128,-1,8
 399 -10 399 -10 289 -10 c 128,-1,9
 179 -10 179 -10 116 59.5 c 128,-1,10
 53 129 53 129 53 250 c 128,-1,11
 53 371 53 371 116 440.5 c 128,-1,4
 179 510 179 510 289 510 c 128,-1,5
289 484 m 128,-1,13
 193 484 193 484 138 421.5 c 128,-1,14
 83 359 83 359 83 250 c 128,-1,15
 83 141 83 141 138 78.5 c 128,-1,16
 193 16 193 16 289 16 c 128,-1,17
 385 16 385 16 439.5 78 c 128,-1,18
 494 140 494 140 494 250 c 128,-1,19
 494 360 494 360 439.5 422 c 128,-1,12
 385 484 385 484 289 484 c 128,-1,13
EndSplineSet
Substitution2: "'smcp' Lowercase to Small Capitals lookup 12 subtable" ograve.sc
Substitution2: "'aalt' Access All Alternates lookup 0 subtable" ograve.sc
EndChar

StartChar: oacute
Encoding: 243 243 181
Width: 578
GlyphClass: 2
Flags: W
LayerCount: 2
Fore
SplineSet
356 734 m 1,0,-1
 389 734 l 1,1,-1
 299 583 l 1,2,-1
 273 583 l 1,3,-1
 356 734 l 1,0,-1
289 510 m 128,-1,5
 399 510 399 510 461.5 440.5 c 128,-1,6
 524 371 524 371 524 250 c 128,-1,7
 524 129 524 129 461.5 59.5 c 128,-1,8
 399 -10 399 -10 289 -10 c 128,-1,9
 179 -10 179 -10 116 59.5 c 128,-1,10
 53 129 53 129 53 250 c 128,-1,11
 53 371 53 371 116 440.5 c 128,-1,4
 179 510 179 510 289 510 c 128,-1,5
289 484 m 128,-1,13
 193 484 193 484 138 421.5 c 128,-1,14
 83 359 83 359 83 250 c 128,-1,15
 83 141 83 141 138 78.5 c 128,-1,16
 193 16 193 16 289 16 c 128,-1,17
 385 16 385 16 439.5 78 c 128,-1,18
 494 140 494 140 494 250 c 128,-1,19
 494 360 494 360 439.5 422 c 128,-1,12
 385 484 385 484 289 484 c 128,-1,13
EndSplineSet
Substitution2: "'smcp' Lowercase to Small Capitals lookup 12 subtable" oacute.sc
Substitution2: "'aalt' Access All Alternates lookup 0 subtable" oacute.sc
EndChar

StartChar: ocircumflex
Encoding: 244 244 182
Width: 578
GlyphClass: 2
Flags: W
LayerCount: 2
Fore
SplineSet
416 582 m 1,0,-1
 387 582 l 1,1,-1
 290 707 l 1,2,-1
 193 582 l 1,3,-1
 164 582 l 1,4,-1
 273 729 l 1,5,-1
 307 729 l 1,6,-1
 416 582 l 1,0,-1
289 510 m 128,-1,8
 399 510 399 510 461.5 440.5 c 128,-1,9
 524 371 524 371 524 250 c 128,-1,10
 524 129 524 129 461.5 59.5 c 128,-1,11
 399 -10 399 -10 289 -10 c 128,-1,12
 179 -10 179 -10 116 59.5 c 128,-1,13
 53 129 53 129 53 250 c 128,-1,14
 53 371 53 371 116 440.5 c 128,-1,7
 179 510 179 510 289 510 c 128,-1,8
289 484 m 128,-1,16
 193 484 193 484 138 421.5 c 128,-1,17
 83 359 83 359 83 250 c 128,-1,18
 83 141 83 141 138 78.5 c 128,-1,19
 193 16 193 16 289 16 c 128,-1,20
 385 16 385 16 439.5 78 c 128,-1,21
 494 140 494 140 494 250 c 128,-1,22
 494 360 494 360 439.5 422 c 128,-1,15
 385 484 385 484 289 484 c 128,-1,16
EndSplineSet
Substitution2: "'smcp' Lowercase to Small Capitals lookup 12 subtable" ocircumflex.sc
Substitution2: "'aalt' Access All Alternates lookup 0 subtable" ocircumflex.sc
EndChar

StartChar: otilde
Encoding: 245 245 183
Width: 578
GlyphClass: 2
Flags: W
LayerCount: 2
Fore
SplineSet
453 690 m 1,0,1
 445 642 445 642 423.5 619 c 128,-1,2
 402 596 402 596 362 596 c 0,3,4
 321 596 321 596 284 630 c 128,-1,5
 247 664 247 664 217 664 c 128,-1,6
 187 664 187 664 173 647.5 c 128,-1,7
 159 631 159 631 152 595 c 1,8,-1
 127 595 l 1,9,10
 135 643 135 643 156.5 666 c 128,-1,11
 178 689 178 689 218 689 c 128,-1,12
 258 689 258 689 295 655 c 128,-1,13
 332 621 332 621 361 621 c 0,14,15
 391 621 391 621 405.5 637.5 c 128,-1,16
 420 654 420 654 427 690 c 1,17,-1
 453 690 l 1,0,1
289 510 m 128,-1,19
 399 510 399 510 461.5 440.5 c 128,-1,20
 524 371 524 371 524 250 c 128,-1,21
 524 129 524 129 461.5 59.5 c 128,-1,22
 399 -10 399 -10 289 -10 c 128,-1,23
 179 -10 179 -10 116 59.5 c 128,-1,24
 53 129 53 129 53 250 c 128,-1,25
 53 371 53 371 116 440.5 c 128,-1,18
 179 510 179 510 289 510 c 128,-1,19
289 484 m 128,-1,27
 193 484 193 484 138 421.5 c 128,-1,28
 83 359 83 359 83 250 c 128,-1,29
 83 141 83 141 138 78.5 c 128,-1,30
 193 16 193 16 289 16 c 128,-1,31
 385 16 385 16 439.5 78 c 128,-1,32
 494 140 494 140 494 250 c 128,-1,33
 494 360 494 360 439.5 422 c 128,-1,26
 385 484 385 484 289 484 c 128,-1,27
EndSplineSet
Substitution2: "'smcp' Lowercase to Small Capitals lookup 12 subtable" otilde.sc
Substitution2: "'aalt' Access All Alternates lookup 0 subtable" otilde.sc
EndChar

StartChar: odieresis
Encoding: 246 246 184
Width: 578
GlyphClass: 2
Flags: W
LayerCount: 2
Fore
SplineSet
195 654 m 128,-1,1
 208 654 208 654 216.5 646 c 128,-1,2
 225 638 225 638 225 624 c 0,3,4
 225 611 225 611 216.5 603 c 128,-1,5
 208 595 208 595 195 595 c 128,-1,6
 182 595 182 595 173.5 603 c 128,-1,7
 165 611 165 611 165 624 c 128,-1,8
 165 637 165 637 173.5 645.5 c 128,-1,0
 182 654 182 654 195 654 c 128,-1,1
381 654 m 128,-1,10
 394 654 394 654 402.5 646 c 128,-1,11
 411 638 411 638 411 624 c 0,12,13
 411 611 411 611 402.5 603 c 128,-1,14
 394 595 394 595 381 595 c 128,-1,15
 368 595 368 595 360 603 c 128,-1,16
 352 611 352 611 352 624 c 128,-1,17
 352 637 352 637 360 645.5 c 128,-1,9
 368 654 368 654 381 654 c 128,-1,10
289 510 m 128,-1,19
 399 510 399 510 461.5 440.5 c 128,-1,20
 524 371 524 371 524 250 c 128,-1,21
 524 129 524 129 461.5 59.5 c 128,-1,22
 399 -10 399 -10 289 -10 c 128,-1,23
 179 -10 179 -10 116 59.5 c 128,-1,24
 53 129 53 129 53 250 c 128,-1,25
 53 371 53 371 116 440.5 c 128,-1,18
 179 510 179 510 289 510 c 128,-1,19
289 484 m 128,-1,27
 193 484 193 484 138 421.5 c 128,-1,28
 83 359 83 359 83 250 c 128,-1,29
 83 141 83 141 138 78.5 c 128,-1,30
 193 16 193 16 289 16 c 128,-1,31
 385 16 385 16 439.5 78 c 128,-1,32
 494 140 494 140 494 250 c 128,-1,33
 494 360 494 360 439.5 422 c 128,-1,26
 385 484 385 484 289 484 c 128,-1,27
EndSplineSet
Substitution2: "'smcp' Lowercase to Small Capitals lookup 12 subtable" odieresis.sc
Substitution2: "'aalt' Access All Alternates lookup 0 subtable" odieresis.sc
EndChar

StartChar: divide
Encoding: 247 247 185
Width: 604
GlyphClass: 2
Flags: W
LayerCount: 2
Fore
SplineSet
302 535 m 128,-1,1
 333 535 333 535 333 504 c 128,-1,2
 333 473 333 473 302 473 c 128,-1,3
 271 473 271 473 271 504 c 128,-1,0
 271 535 271 535 302 535 c 128,-1,1
531 330 m 1,4,-1
 531 302 l 1,5,-1
 73 302 l 1,6,-1
 73 330 l 1,7,-1
 531 330 l 1,4,-1
302 161 m 128,-1,9
 316 161 316 161 324.5 152 c 128,-1,10
 333 143 333 143 333 129 c 128,-1,11
 333 115 333 115 324.5 106.5 c 128,-1,12
 316 98 316 98 302 98 c 128,-1,13
 288 98 288 98 279.5 106.5 c 128,-1,14
 271 115 271 115 271 129 c 128,-1,15
 271 143 271 143 279.5 152 c 128,-1,8
 288 161 288 161 302 161 c 128,-1,9
EndSplineSet
EndChar

StartChar: oslash
Encoding: 248 248 186
Width: 579
GlyphClass: 2
Flags: W
LayerCount: 2
Fore
SplineSet
289 510 m 0,0,1
 380 510 380 510 441 460 c 1,2,-1
 495 528 l 1,3,-1
 526 528 l 1,4,-1
 459 443 l 1,5,6
 524 375 524 375 524 250 c 0,7,8
 524 129 524 129 461.5 59.5 c 128,-1,9
 399 -10 399 -10 289 -10 c 0,10,11
 199 -10 199 -10 141 37 c 1,12,-1
 87 -32 l 1,13,-1
 56 -32 l 1,14,-1
 122 53 l 1,15,16
 53 124 53 124 53 250 c 0,17,18
 53 371 53 371 116 440.5 c 128,-1,19
 179 510 179 510 289 510 c 0,0,1
141 77 m 1,20,-1
 142 77 l 1,21,-1
 169 113 l 1,22,-1
 424 437 l 1,23,24
 372 484 372 484 289 484 c 0,25,26
 193 484 193 484 138 421.5 c 128,-1,27
 83 359 83 359 83 250 c 0,28,29
 83 138 83 138 141 77 c 1,20,-1
289 16 m 0,30,31
 385 16 385 16 439.5 78 c 128,-1,32
 494 140 494 140 494 250 c 0,33,34
 494 358 494 358 441 420 c 1,35,-1
 440 420 l 1,36,-1
 419 391 l 1,37,-1
 159 59 l 1,38,39
 210 16 210 16 289 16 c 0,30,31
EndSplineSet
Substitution2: "'smcp' Lowercase to Small Capitals lookup 12 subtable" oslash.sc
Substitution2: "'aalt' Access All Alternates lookup 0 subtable" oslash.sc
EndChar

StartChar: ugrave
Encoding: 249 249 187
Width: 576
GlyphClass: 2
Flags: W
LayerCount: 2
Fore
SplineSet
304 583 m 1,0,-1
 278 583 l 1,1,-1
 188 734 l 1,2,-1
 221 734 l 1,3,-1
 304 583 l 1,0,-1
459 500 m 1,4,-1
 489 500 l 1,5,-1
 489 0 l 1,6,-1
 461 0 l 1,7,-1
 460 117 l 1,8,9
 439 59 439 59 385 24.5 c 128,-1,10
 331 -10 331 -10 258 -10 c 0,11,12
 175 -10 175 -10 128 36 c 128,-1,13
 81 82 81 82 81 168 c 2,14,-1
 81 500 l 1,15,-1
 111 500 l 1,16,-1
 111 174 l 2,17,18
 111 97 111 97 150.5 56.5 c 128,-1,19
 190 16 190 16 263 16 c 0,20,21
 354 16 354 16 406.5 74 c 128,-1,22
 459 132 459 132 459 203 c 2,23,-1
 459 500 l 1,4,-1
EndSplineSet
Substitution2: "'smcp' Lowercase to Small Capitals lookup 12 subtable" ugrave.sc
Substitution2: "'aalt' Access All Alternates lookup 0 subtable" ugrave.sc
EndChar

StartChar: uacute
Encoding: 250 250 188
Width: 576
GlyphClass: 2
Flags: W
LayerCount: 2
Fore
SplineSet
386 734 m 1,0,-1
 296 583 l 1,1,-1
 270 583 l 1,2,-1
 353 734 l 1,3,-1
 386 734 l 1,0,-1
459 500 m 1,4,-1
 489 500 l 1,5,-1
 489 0 l 1,6,-1
 461 0 l 1,7,-1
 460 117 l 1,8,9
 439 59 439 59 385 24.5 c 128,-1,10
 331 -10 331 -10 258 -10 c 0,11,12
 175 -10 175 -10 128 36 c 128,-1,13
 81 82 81 82 81 168 c 2,14,-1
 81 500 l 1,15,-1
 111 500 l 1,16,-1
 111 174 l 2,17,18
 111 97 111 97 150.5 56.5 c 128,-1,19
 190 16 190 16 263 16 c 0,20,21
 354 16 354 16 406.5 74 c 128,-1,22
 459 132 459 132 459 203 c 2,23,-1
 459 500 l 1,4,-1
EndSplineSet
Substitution2: "'smcp' Lowercase to Small Capitals lookup 12 subtable" uacute.sc
Substitution2: "'aalt' Access All Alternates lookup 0 subtable" uacute.sc
EndChar

StartChar: ucircumflex
Encoding: 251 251 189
Width: 576
GlyphClass: 2
Flags: W
LayerCount: 2
Fore
SplineSet
287 707 m 1,0,-1
 190 582 l 1,1,-1
 161 582 l 1,2,-1
 270 729 l 1,3,-1
 304 729 l 1,4,-1
 413 582 l 1,5,-1
 384 582 l 1,6,-1
 287 707 l 1,0,-1
459 500 m 1,7,-1
 489 500 l 1,8,-1
 489 0 l 1,9,-1
 461 0 l 1,10,-1
 460 117 l 1,11,12
 439 59 439 59 385 24.5 c 128,-1,13
 331 -10 331 -10 258 -10 c 0,14,15
 175 -10 175 -10 128 36 c 128,-1,16
 81 82 81 82 81 168 c 2,17,-1
 81 500 l 1,18,-1
 111 500 l 1,19,-1
 111 174 l 2,20,21
 111 97 111 97 150.5 56.5 c 128,-1,22
 190 16 190 16 263 16 c 0,23,24
 354 16 354 16 406.5 74 c 128,-1,25
 459 132 459 132 459 203 c 2,26,-1
 459 500 l 1,7,-1
EndSplineSet
Substitution2: "'smcp' Lowercase to Small Capitals lookup 12 subtable" ucircumflex.sc
Substitution2: "'aalt' Access All Alternates lookup 0 subtable" ucircumflex.sc
EndChar

StartChar: udieresis
Encoding: 252 252 190
Width: 576
GlyphClass: 2
Flags: W
LayerCount: 2
Fore
SplineSet
192 595 m 128,-1,1
 179 595 179 595 170.5 603 c 128,-1,2
 162 611 162 611 162 624 c 128,-1,3
 162 637 162 637 170.5 645.5 c 128,-1,4
 179 654 179 654 192 654 c 0,5,6
 206 654 206 654 214 646 c 128,-1,7
 222 638 222 638 222 624 c 0,8,9
 222 611 222 611 213.5 603 c 128,-1,0
 205 595 205 595 192 595 c 128,-1,1
378 595 m 128,-1,11
 365 595 365 595 357 603 c 128,-1,12
 349 611 349 611 349 624 c 128,-1,13
 349 637 349 637 357 645.5 c 128,-1,14
 365 654 365 654 378 654 c 0,15,16
 392 654 392 654 400 646 c 128,-1,17
 408 638 408 638 408 624 c 0,18,19
 408 611 408 611 399.5 603 c 128,-1,10
 391 595 391 595 378 595 c 128,-1,11
459 500 m 1,20,-1
 489 500 l 1,21,-1
 489 0 l 1,22,-1
 461 0 l 1,23,-1
 460 117 l 1,24,25
 439 59 439 59 385 24.5 c 128,-1,26
 331 -10 331 -10 258 -10 c 0,27,28
 175 -10 175 -10 128 36 c 128,-1,29
 81 82 81 82 81 168 c 2,30,-1
 81 500 l 1,31,-1
 111 500 l 1,32,-1
 111 174 l 2,33,34
 111 97 111 97 150.5 56.5 c 128,-1,35
 190 16 190 16 263 16 c 0,36,37
 354 16 354 16 406.5 74 c 128,-1,38
 459 132 459 132 459 203 c 2,39,-1
 459 500 l 1,20,-1
EndSplineSet
Substitution2: "'smcp' Lowercase to Small Capitals lookup 12 subtable" udieresis.sc
Substitution2: "'aalt' Access All Alternates lookup 0 subtable" udieresis.sc
EndChar

StartChar: yacute
Encoding: 253 253 191
Width: 493
GlyphClass: 2
Flags: W
LayerCount: 2
Fore
SplineSet
317 734 m 1,0,-1
 350 734 l 1,1,-1
 260 583 l 1,2,-1
 234 583 l 1,3,-1
 317 734 l 1,0,-1
472 500 m 1,4,-1
 226 -97 l 2,5,6
 199 -163 199 -163 167 -189 c 128,-1,7
 135 -215 135 -215 85 -215 c 0,8,9
 25 -215 25 -215 0 -181 c 1,10,-1
 13 -156 l 1,11,12
 35 -189 35 -189 86 -189 c 0,13,14
 124 -189 124 -189 150.5 -167.5 c 128,-1,15
 177 -146 177 -146 199 -91 c 2,16,-1
 236 -1 l 1,17,-1
 182 126 l 1,18,-1
 24 500 l 1,19,-1
 58 500 l 1,20,-1
 230 85 l 1,21,-1
 251 33 l 1,22,-1
 272 88 l 1,23,-1
 439 500 l 1,24,-1
 472 500 l 1,4,-1
EndSplineSet
Substitution2: "Single Substitution lookup 57 subtable" yacute.swsh
Substitution2: "'swsh' Swash lookup 38 subtable" yacute.swsh
Substitution2: "'smcp' Lowercase to Small Capitals lookup 12 subtable" yacute.sc
AlternateSubs2: "'aalt' Access All Alternates lookup 1 subtable" yacute.sc yacute.swsh
EndChar

StartChar: thorn
Encoding: 254 254 192
Width: 595
GlyphClass: 2
Flags: W
LayerCount: 2
Fore
SplineSet
312 510 m 0,0,1
 419 510 419 510 480 441 c 128,-1,2
 541 372 541 372 541 250 c 128,-1,3
 541 128 541 128 480 59 c 128,-1,4
 419 -10 419 -10 312 -10 c 0,5,6
 240 -10 240 -10 189 25.5 c 128,-1,7
 138 61 138 61 117 126 c 1,8,-1
 117 -210 l 1,9,-1
 87 -210 l 1,10,-1
 87 730 l 1,11,-1
 117 730 l 1,12,-1
 117 375 l 1,13,14
 139 439 139 439 190 474.5 c 128,-1,15
 241 510 241 510 312 510 c 0,0,1
308 16 m 0,16,17
 404 16 404 16 457.5 78 c 128,-1,18
 511 140 511 140 511 250 c 128,-1,19
 511 360 511 360 457.5 422 c 128,-1,20
 404 484 404 484 308 484 c 0,21,22
 221 484 221 484 169 422 c 128,-1,23
 117 360 117 360 117 254 c 2,24,-1
 117 246 l 2,25,26
 117 140 117 140 169 78 c 128,-1,27
 221 16 221 16 308 16 c 0,16,17
EndSplineSet
Substitution2: "'smcp' Lowercase to Small Capitals lookup 12 subtable" thorn.sc
Substitution2: "'aalt' Access All Alternates lookup 0 subtable" thorn.sc
EndChar

StartChar: ydieresis
Encoding: 255 255 193
Width: 493
GlyphClass: 2
Flags: W
LayerCount: 2
Fore
SplineSet
156 654 m 0,0,1
 170 654 170 654 178 646 c 128,-1,2
 186 638 186 638 186 624 c 0,3,4
 186 611 186 611 177.5 603 c 128,-1,5
 169 595 169 595 156 595 c 128,-1,6
 143 595 143 595 134.5 603 c 128,-1,7
 126 611 126 611 126 624 c 128,-1,8
 126 637 126 637 134.5 645.5 c 128,-1,9
 143 654 143 654 156 654 c 0,0,1
342 654 m 0,10,11
 356 654 356 654 364 646 c 128,-1,12
 372 638 372 638 372 624 c 0,13,14
 372 611 372 611 363.5 603 c 128,-1,15
 355 595 355 595 342 595 c 128,-1,16
 329 595 329 595 321 603 c 128,-1,17
 313 611 313 611 313 624 c 128,-1,18
 313 637 313 637 321 645.5 c 128,-1,19
 329 654 329 654 342 654 c 0,10,11
472 500 m 1,20,-1
 226 -97 l 2,21,22
 199 -163 199 -163 167 -189 c 128,-1,23
 135 -215 135 -215 85 -215 c 0,24,25
 25 -215 25 -215 0 -181 c 1,26,-1
 13 -156 l 1,27,28
 35 -189 35 -189 86 -189 c 0,29,30
 124 -189 124 -189 150.5 -167.5 c 128,-1,31
 177 -146 177 -146 199 -91 c 2,32,-1
 236 -1 l 1,33,-1
 182 126 l 1,34,-1
 24 500 l 1,35,-1
 58 500 l 1,36,-1
 230 85 l 1,37,-1
 251 33 l 1,38,-1
 272 88 l 1,39,-1
 439 500 l 1,40,-1
 472 500 l 1,20,-1
EndSplineSet
Substitution2: "Single Substitution lookup 57 subtable" ydieresis.swsh
Substitution2: "'swsh' Swash lookup 38 subtable" ydieresis.swsh
Substitution2: "'smcp' Lowercase to Small Capitals lookup 12 subtable" ydieresis.sc
AlternateSubs2: "'aalt' Access All Alternates lookup 1 subtable" ydieresis.sc ydieresis.swsh
EndChar

StartChar: Amacron
Encoding: 256 256 194
Width: 602
GlyphClass: 2
Flags: W
LayerCount: 2
Fore
SplineSet
452 789 m 1,0,-1
 452 763 l 1,1,-1
 151 763 l 1,2,-1
 151 789 l 1,3,-1
 452 789 l 1,0,-1
555 0 m 1,4,-1
 464 223 l 1,5,-1
 138 223 l 1,6,-1
 47 0 l 1,7,-1
 15 0 l 1,8,-1
 284 660 l 1,9,-1
 319 660 l 1,10,-1
 587 0 l 1,11,-1
 555 0 l 1,4,-1
149 250 m 1,12,-1
 453 250 l 1,13,-1
 321 573 l 1,14,-1
 301 629 l 1,15,-1
 281 575 l 1,16,-1
 149 250 l 1,12,-1
EndSplineSet
Substitution2: "Single Substitution lookup 56 subtable" Amacron.swsh
Substitution2: "'swsh' Swash lookup 32 subtable" Amacron.swsh
Substitution2: "'c2sc' Capitals to Small Capitals lookup 11 subtable" amacron.sc
AlternateSubs2: "'aalt' Access All Alternates lookup 1 subtable" amacron.sc Amacron.swsh
EndChar

StartChar: amacron
Encoding: 257 257 195
Width: 528
GlyphClass: 2
Flags: W
LayerCount: 2
Fore
SplineSet
400 629 m 1,0,-1
 400 603 l 1,1,-1
 99 603 l 1,2,-1
 99 629 l 1,3,-1
 400 629 l 1,0,-1
483 16 m 0,4,5
 509 16 509 16 522 24 c 1,6,-1
 520 -1 l 1,7,8
 505 -10 505 -10 479 -10 c 0,9,10
 402 -10 402 -10 402 86 c 1,11,12
 381 40 381 40 325.5 15 c 128,-1,13
 270 -10 270 -10 207 -10 c 0,14,15
 133 -10 133 -10 90.5 22 c 128,-1,16
 48 54 48 54 48 112 c 0,17,18
 48 171 48 171 93 206 c 128,-1,19
 138 241 138 241 235 259 c 2,20,-1
 402 289 l 1,21,-1
 402 344 l 2,22,23
 402 410 402 410 363 447 c 128,-1,24
 324 484 324 484 252 484 c 0,25,26
 124 484 124 484 81 371 c 1,27,-1
 58 388 l 1,28,29
 103 510 103 510 252 510 c 0,30,31
 338 510 338 510 385 468 c 128,-1,32
 432 426 432 426 432 346 c 2,33,-1
 432 80 l 2,34,35
 432 16 432 16 483 16 c 0,4,5
212 16 m 0,36,37
 281 16 281 16 341.5 52.5 c 128,-1,38
 402 89 402 89 402 155 c 2,39,-1
 402 264 l 1,40,-1
 248 236 l 2,41,42
 158 219 158 219 118.5 189 c 128,-1,43
 79 159 79 159 79 112 c 0,44,45
 79 67 79 67 114.5 41.5 c 128,-1,46
 150 16 150 16 212 16 c 0,36,37
EndSplineSet
Substitution2: "'smcp' Lowercase to Small Capitals lookup 12 subtable" amacron.sc
Substitution2: "'aalt' Access All Alternates lookup 0 subtable" amacron.sc
EndChar

StartChar: Abreve
Encoding: 258 258 196
Width: 602
GlyphClass: 2
Flags: W
LayerCount: 2
Fore
SplineSet
301 740 m 128,-1,1
 242 740 242 740 208 774 c 128,-1,2
 174 808 174 808 174 867 c 1,3,-1
 199 867 l 1,4,5
 199 821 199 821 227 792.5 c 128,-1,6
 255 764 255 764 301 764 c 128,-1,7
 347 764 347 764 374.5 792.5 c 128,-1,8
 402 821 402 821 402 867 c 1,9,-1
 428 867 l 1,10,11
 428 808 428 808 394 774 c 128,-1,0
 360 740 360 740 301 740 c 128,-1,1
555 0 m 1,12,-1
 464 223 l 1,13,-1
 138 223 l 1,14,-1
 47 0 l 1,15,-1
 15 0 l 1,16,-1
 284 660 l 1,17,-1
 319 660 l 1,18,-1
 587 0 l 1,19,-1
 555 0 l 1,12,-1
149 250 m 1,20,-1
 453 250 l 1,21,-1
 321 573 l 1,22,-1
 301 629 l 1,23,-1
 281 575 l 1,24,-1
 149 250 l 1,20,-1
EndSplineSet
Substitution2: "Single Substitution lookup 56 subtable" Abreve.swsh
Substitution2: "'swsh' Swash lookup 32 subtable" Abreve.swsh
Substitution2: "'c2sc' Capitals to Small Capitals lookup 11 subtable" abreve.sc
AlternateSubs2: "'aalt' Access All Alternates lookup 1 subtable" abreve.sc Abreve.swsh
EndChar

StartChar: abreve
Encoding: 259 259 197
Width: 528
GlyphClass: 2
Flags: W
LayerCount: 2
Fore
SplineSet
250 580 m 128,-1,1
 191 580 191 580 157 614 c 128,-1,2
 123 648 123 648 123 707 c 1,3,-1
 148 707 l 1,4,5
 148 661 148 661 176 632.5 c 128,-1,6
 204 604 204 604 250 604 c 128,-1,7
 296 604 296 604 323.5 632.5 c 128,-1,8
 351 661 351 661 351 707 c 1,9,-1
 377 707 l 1,10,11
 377 648 377 648 343 614 c 128,-1,0
 309 580 309 580 250 580 c 128,-1,1
483 16 m 0,12,13
 509 16 509 16 522 24 c 1,14,-1
 520 -1 l 1,15,16
 505 -10 505 -10 479 -10 c 0,17,18
 402 -10 402 -10 402 86 c 1,19,20
 381 40 381 40 325.5 15 c 128,-1,21
 270 -10 270 -10 207 -10 c 0,22,23
 133 -10 133 -10 90.5 22 c 128,-1,24
 48 54 48 54 48 112 c 0,25,26
 48 171 48 171 93 206 c 128,-1,27
 138 241 138 241 235 259 c 2,28,-1
 402 289 l 1,29,-1
 402 344 l 2,30,31
 402 410 402 410 363 447 c 128,-1,32
 324 484 324 484 252 484 c 0,33,34
 124 484 124 484 81 371 c 1,35,-1
 58 388 l 1,36,37
 103 510 103 510 252 510 c 0,38,39
 338 510 338 510 385 468 c 128,-1,40
 432 426 432 426 432 346 c 2,41,-1
 432 80 l 2,42,43
 432 16 432 16 483 16 c 0,12,13
212 16 m 0,44,45
 281 16 281 16 341.5 52.5 c 128,-1,46
 402 89 402 89 402 155 c 2,47,-1
 402 264 l 1,48,-1
 248 236 l 2,49,50
 158 219 158 219 118.5 189 c 128,-1,51
 79 159 79 159 79 112 c 0,52,53
 79 67 79 67 114.5 41.5 c 128,-1,54
 150 16 150 16 212 16 c 0,44,45
EndSplineSet
Substitution2: "'smcp' Lowercase to Small Capitals lookup 12 subtable" abreve.sc
Substitution2: "'aalt' Access All Alternates lookup 0 subtable" abreve.sc
EndChar

StartChar: Aogonek
Encoding: 260 260 198
Width: 602
GlyphClass: 2
Flags: W
LayerCount: 2
Fore
SplineSet
592 -163 m 1,0,-1
 600 -184 l 1,1,2
 570 -205 570 -205 526 -205 c 0,3,4
 485 -205 485 -205 458 -183 c 128,-1,5
 431 -161 431 -161 431 -121 c 0,6,7
 431 -42 431 -42 552 7 c 1,8,-1
 464 223 l 1,9,-1
 138 223 l 1,10,-1
 47 0 l 1,11,-1
 15 0 l 1,12,-1
 284 660 l 1,13,-1
 319 660 l 1,14,-1
 587 0 l 1,15,16
 515 -27 515 -27 486 -55 c 128,-1,17
 457 -83 457 -83 457 -120 c 0,18,19
 457 -150 457 -150 477 -165.5 c 128,-1,20
 497 -181 497 -181 528 -181 c 0,21,22
 567 -181 567 -181 592 -163 c 1,0,-1
149 250 m 1,23,-1
 453 250 l 1,24,-1
 321 573 l 1,25,-1
 301 629 l 1,26,-1
 281 575 l 1,27,-1
 149 250 l 1,23,-1
EndSplineSet
Substitution2: "Single Substitution lookup 56 subtable" Aogonek.swsh
Substitution2: "'swsh' Swash lookup 32 subtable" Aogonek.swsh
Substitution2: "'c2sc' Capitals to Small Capitals lookup 11 subtable" aogonek.sc
AlternateSubs2: "'aalt' Access All Alternates lookup 1 subtable" aogonek.sc Aogonek.swsh
EndChar

StartChar: aogonek
Encoding: 261 261 199
Width: 528
GlyphClass: 2
Flags: W
LayerCount: 2
Fore
SplineSet
452 -181 m 0,0,1
 494 -181 494 -181 513 -166 c 1,2,-1
 521 -188 l 1,3,4
 495 -205 495 -205 450 -205 c 0,5,6
 409 -205 409 -205 382.5 -183 c 128,-1,7
 356 -161 356 -161 356 -124 c 0,8,9
 356 -53 356 -53 460 -8 c 1,10,11
 403 6 403 6 402 86 c 1,12,13
 381 40 381 40 325.5 15 c 128,-1,14
 270 -10 270 -10 207 -10 c 0,15,16
 133 -10 133 -10 90.5 22 c 128,-1,17
 48 54 48 54 48 112 c 0,18,19
 48 171 48 171 93 206 c 128,-1,20
 138 241 138 241 235 259 c 2,21,-1
 402 289 l 1,22,-1
 402 344 l 2,23,24
 402 410 402 410 363 447 c 128,-1,25
 324 484 324 484 252 484 c 0,26,27
 125 484 125 484 81 371 c 1,28,-1
 58 388 l 1,29,30
 103 510 103 510 252 510 c 0,31,32
 338 510 338 510 385 468 c 128,-1,33
 432 426 432 426 432 346 c 2,34,-1
 432 80 l 2,35,36
 432 16 432 16 483 16 c 0,37,38
 509 16 509 16 522 24 c 1,39,-1
 520 -1 l 1,40,41
 445 -31 445 -31 413.5 -57.5 c 128,-1,42
 382 -84 382 -84 382 -121 c 0,43,44
 382 -149 382 -149 401.5 -165 c 128,-1,45
 421 -181 421 -181 452 -181 c 0,0,1
212 16 m 0,46,47
 281 16 281 16 341.5 52.5 c 128,-1,48
 402 89 402 89 402 155 c 2,49,-1
 402 264 l 1,50,-1
 248 236 l 2,51,52
 158 219 158 219 118.5 189 c 128,-1,53
 79 159 79 159 79 112 c 0,54,55
 79 67 79 67 114.5 41.5 c 128,-1,56
 150 16 150 16 212 16 c 0,46,47
EndSplineSet
Substitution2: "'smcp' Lowercase to Small Capitals lookup 12 subtable" aogonek.sc
Substitution2: "'aalt' Access All Alternates lookup 0 subtable" aogonek.sc
EndChar

StartChar: Cacute
Encoding: 262 262 200
Width: 657
GlyphClass: 2
Flags: W
LayerCount: 2
Fore
SplineSet
407 891 m 1,0,-1
 442 891 l 1,1,-1
 362 743 l 1,2,-1
 336 743 l 1,3,-1
 407 891 l 1,0,-1
617 166 m 1,4,5
 591 82 591 82 522 36 c 128,-1,6
 453 -10 453 -10 354 -10 c 0,7,8
 220 -10 220 -10 139.5 82 c 128,-1,9
 59 174 59 174 59 330 c 128,-1,10
 59 486 59 486 139.5 578 c 128,-1,11
 220 670 220 670 354 670 c 0,12,13
 557 670 557 670 610 500 c 1,14,-1
 581 487 l 1,15,16
 533 643 533 643 355 643 c 0,17,18
 235 643 235 643 162.5 558.5 c 128,-1,19
 90 474 90 474 90 330 c 128,-1,20
 90 186 90 186 162.5 101.5 c 128,-1,21
 235 17 235 17 354 17 c 0,22,23
 443 17 443 17 504 59 c 128,-1,24
 565 101 565 101 587 177 c 1,25,-1
 617 166 l 1,4,5
EndSplineSet
Substitution2: "'c2sc' Capitals to Small Capitals lookup 11 subtable" cacute.sc
Substitution2: "'aalt' Access All Alternates lookup 0 subtable" cacute.sc
EndChar

StartChar: cacute
Encoding: 263 263 201
Width: 533
GlyphClass: 2
Flags: W
LayerCount: 2
Fore
SplineSet
346 734 m 1,0,-1
 379 734 l 1,1,-1
 289 583 l 1,2,-1
 263 583 l 1,3,-1
 346 734 l 1,0,-1
286 510 m 0,4,5
 361 510 361 510 413 474.5 c 128,-1,6
 465 439 465 439 485 374 c 1,7,-1
 458 361 l 1,8,9
 441 420 441 420 396.5 452 c 128,-1,10
 352 484 352 484 286 484 c 0,11,12
 190 484 190 484 136.5 422 c 128,-1,13
 83 360 83 360 83 250 c 128,-1,14
 83 140 83 140 135.5 78 c 128,-1,15
 188 16 188 16 283 16 c 0,16,17
 352 16 352 16 402 51.5 c 128,-1,18
 452 87 452 87 462 147 c 1,19,-1
 489 137 l 1,20,21
 474 70 474 70 417.5 30 c 128,-1,22
 361 -10 361 -10 284 -10 c 0,23,24
 174 -10 174 -10 113.5 59 c 128,-1,25
 53 128 53 128 53 250 c 128,-1,26
 53 372 53 372 115 441 c 128,-1,27
 177 510 177 510 286 510 c 0,4,5
EndSplineSet
Substitution2: "'smcp' Lowercase to Small Capitals lookup 12 subtable" cacute.sc
Substitution2: "'aalt' Access All Alternates lookup 0 subtable" cacute.sc
EndChar

StartChar: Ccaron
Encoding: 268 268 202
Width: 657
GlyphClass: 2
Flags: W
LayerCount: 2
Fore
SplineSet
474 889 m 1,0,-1
 364 742 l 1,1,-1
 328 742 l 1,2,-1
 218 889 l 1,3,-1
 248 889 l 1,4,-1
 346 763 l 1,5,-1
 445 889 l 1,6,-1
 474 889 l 1,0,-1
617 166 m 1,7,8
 591 82 591 82 522 36 c 128,-1,9
 453 -10 453 -10 354 -10 c 0,10,11
 220 -10 220 -10 139.5 82 c 128,-1,12
 59 174 59 174 59 330 c 128,-1,13
 59 486 59 486 139.5 578 c 128,-1,14
 220 670 220 670 354 670 c 0,15,16
 557 670 557 670 610 500 c 1,17,-1
 581 487 l 1,18,19
 533 643 533 643 355 643 c 0,20,21
 235 643 235 643 162.5 558.5 c 128,-1,22
 90 474 90 474 90 330 c 128,-1,23
 90 186 90 186 162.5 101.5 c 128,-1,24
 235 17 235 17 354 17 c 0,25,26
 443 17 443 17 504 59 c 128,-1,27
 565 101 565 101 587 177 c 1,28,-1
 617 166 l 1,7,8
EndSplineSet
Substitution2: "'c2sc' Capitals to Small Capitals lookup 11 subtable" ccaron.sc
Substitution2: "'aalt' Access All Alternates lookup 0 subtable" ccaron.sc
EndChar

StartChar: ccaron
Encoding: 269 269 203
Width: 533
GlyphClass: 2
Flags: W
LayerCount: 2
Fore
SplineSet
406 730 m 1,0,-1
 297 583 l 1,1,-1
 263 583 l 1,2,-1
 154 730 l 1,3,-1
 183 730 l 1,4,-1
 280 605 l 1,5,-1
 377 730 l 1,6,-1
 406 730 l 1,0,-1
286 510 m 0,7,8
 361 510 361 510 413 474.5 c 128,-1,9
 465 439 465 439 485 374 c 1,10,-1
 458 361 l 1,11,12
 441 420 441 420 396.5 452 c 128,-1,13
 352 484 352 484 286 484 c 0,14,15
 190 484 190 484 136.5 422 c 128,-1,16
 83 360 83 360 83 250 c 128,-1,17
 83 140 83 140 135.5 78 c 128,-1,18
 188 16 188 16 283 16 c 0,19,20
 352 16 352 16 402 51.5 c 128,-1,21
 452 87 452 87 462 147 c 1,22,-1
 489 137 l 1,23,24
 474 70 474 70 417.5 30 c 128,-1,25
 361 -10 361 -10 284 -10 c 0,26,27
 174 -10 174 -10 113.5 59 c 128,-1,28
 53 128 53 128 53 250 c 128,-1,29
 53 372 53 372 115 441 c 128,-1,30
 177 510 177 510 286 510 c 0,7,8
EndSplineSet
Substitution2: "'smcp' Lowercase to Small Capitals lookup 12 subtable" ccaron.sc
Substitution2: "'aalt' Access All Alternates lookup 0 subtable" ccaron.sc
EndChar

StartChar: Dcaron
Encoding: 270 270 204
Width: 692
GlyphClass: 2
Flags: W
LayerCount: 2
Fore
SplineSet
331 742 m 1,0,-1
 295 742 l 1,1,-1
 185 889 l 1,2,-1
 215 889 l 1,3,-1
 313 763 l 1,4,-1
 412 889 l 1,5,-1
 441 889 l 1,6,-1
 331 742 l 1,0,-1
306 660 m 2,7,8
 466 660 466 660 549.5 577.5 c 128,-1,9
 633 495 633 495 633 338 c 0,10,11
 633 172 633 172 549.5 86 c 128,-1,12
 466 0 466 0 306 0 c 2,13,-1
 101 0 l 1,14,-1
 101 660 l 1,15,-1
 306 660 l 2,7,8
308 27 m 2,16,17
 452 27 452 27 527 106.5 c 128,-1,18
 602 186 602 186 602 338 c 0,19,20
 602 482 602 482 527 557.5 c 128,-1,21
 452 633 452 633 308 633 c 2,22,-1
 131 633 l 1,23,-1
 131 27 l 1,24,-1
 308 27 l 2,16,17
EndSplineSet
Substitution2: "'c2sc' Capitals to Small Capitals lookup 11 subtable" dcaron.sc
Substitution2: "'aalt' Access All Alternates lookup 0 subtable" dcaron.sc
EndChar

StartChar: dcaron
Encoding: 271 271 205
Width: 607
GlyphClass: 2
Flags: W
LayerCount: 2
Fore
SplineSet
478 371 m 1,0,-1
 478 730 l 1,1,-1
 508 730 l 1,2,-1
 508 0 l 1,3,-1
 480 0 l 1,4,-1
 479 133 l 1,5,6
 459 66 459 66 407.5 28 c 128,-1,7
 356 -10 356 -10 282 -10 c 0,8,9
 175 -10 175 -10 114.5 59 c 128,-1,10
 54 128 54 128 54 250 c 128,-1,11
 54 372 54 372 114.5 441 c 128,-1,12
 175 510 175 510 282 510 c 0,13,14
 354 510 354 510 405.5 473.5 c 128,-1,15
 457 437 457 437 478 371 c 1,0,-1
612 730 m 1,16,-1
 642 730 l 1,17,-1
 610 533 l 1,18,-1
 587 533 l 1,19,-1
 612 730 l 1,16,-1
287 16 m 0,20,21
 374 16 374 16 426 78 c 128,-1,22
 478 140 478 140 478 246 c 2,23,-1
 478 254 l 2,24,25
 478 360 478 360 426 422 c 128,-1,26
 374 484 374 484 287 484 c 0,27,28
 191 484 191 484 137.5 422 c 128,-1,29
 84 360 84 360 84 250 c 128,-1,30
 84 140 84 140 137.5 78 c 128,-1,31
 191 16 191 16 287 16 c 0,20,21
EndSplineSet
Substitution2: "'smcp' Lowercase to Small Capitals lookup 12 subtable" dcaron.sc
Substitution2: "'aalt' Access All Alternates lookup 0 subtable" dcaron.sc
EndChar

StartChar: Dcroat
Encoding: 272 272 206
Width: 701
GlyphClass: 2
Flags: W
LayerCount: 2
Fore
SplineSet
316 660 m 2,0,1
 475 660 475 660 558.5 577.5 c 128,-1,2
 642 495 642 495 642 338 c 0,3,4
 642 172 642 172 558.5 86 c 128,-1,5
 475 0 475 0 316 0 c 2,6,-1
 111 0 l 1,7,-1
 111 322 l 1,8,-1
 10 322 l 1,9,-1
 10 346 l 1,10,-1
 111 346 l 1,11,-1
 111 660 l 1,12,-1
 316 660 l 2,0,1
318 27 m 2,13,14
 461 27 461 27 536.5 106.5 c 128,-1,15
 612 186 612 186 612 338 c 0,16,17
 612 482 612 482 536.5 557.5 c 128,-1,18
 461 633 461 633 318 633 c 2,19,-1
 141 633 l 1,20,-1
 141 346 l 1,21,-1
 346 346 l 1,22,-1
 346 322 l 1,23,-1
 141 322 l 1,24,-1
 141 27 l 1,25,-1
 318 27 l 2,13,14
EndSplineSet
Substitution2: "'c2sc' Capitals to Small Capitals lookup 11 subtable" dcroat.sc
Substitution2: "'aalt' Access All Alternates lookup 0 subtable" dcroat.sc
EndChar

StartChar: dcroat
Encoding: 273 273 207
Width: 595
GlyphClass: 2
Flags: W
LayerCount: 2
Fore
SplineSet
601 611 m 1,0,-1
 601 588 l 1,1,-1
 508 588 l 1,2,-1
 508 0 l 1,3,-1
 480 0 l 1,4,-1
 479 133 l 1,5,6
 459 66 459 66 407.5 28 c 128,-1,7
 356 -10 356 -10 282 -10 c 0,8,9
 175 -10 175 -10 114.5 59 c 128,-1,10
 54 128 54 128 54 250 c 128,-1,11
 54 372 54 372 114.5 441 c 128,-1,12
 175 510 175 510 282 510 c 0,13,14
 354 510 354 510 405.5 473.5 c 128,-1,15
 457 437 457 437 478 371 c 1,16,-1
 478 588 l 1,17,-1
 302 588 l 1,18,-1
 302 611 l 1,19,-1
 478 611 l 1,20,-1
 478 730 l 1,21,-1
 508 730 l 1,22,-1
 508 611 l 1,23,-1
 601 611 l 1,0,-1
287 16 m 0,24,25
 374 16 374 16 426 78 c 128,-1,26
 478 140 478 140 478 246 c 2,27,-1
 478 254 l 2,28,29
 478 360 478 360 426 422 c 128,-1,30
 374 484 374 484 287 484 c 0,31,32
 191 484 191 484 137.5 422 c 128,-1,33
 84 360 84 360 84 250 c 128,-1,34
 84 140 84 140 137.5 78 c 128,-1,35
 191 16 191 16 287 16 c 0,24,25
EndSplineSet
Substitution2: "'smcp' Lowercase to Small Capitals lookup 12 subtable" dcroat.sc
Substitution2: "'aalt' Access All Alternates lookup 0 subtable" dcroat.sc
EndChar

StartChar: Emacron
Encoding: 274 274 208
Width: 595
GlyphClass: 2
Flags: W
AnchorPoint: "Anchor-0" 322 0 basechar 0
LayerCount: 2
Fore
SplineSet
472 789 m 1,0,-1
 472 763 l 1,1,-1
 171 763 l 1,2,-1
 171 789 l 1,3,-1
 472 789 l 1,0,-1
131 27 m 1,4,-1
 560 27 l 1,5,-1
 560 0 l 1,6,-1
 101 0 l 1,7,-1
 101 660 l 1,8,-1
 544 660 l 1,9,-1
 544 633 l 1,10,-1
 131 633 l 1,11,-1
 131 350 l 1,12,-1
 460 350 l 1,13,-1
 460 323 l 1,14,-1
 131 323 l 1,15,-1
 131 27 l 1,4,-1
EndSplineSet
Substitution2: "Single Substitution lookup 57 subtable" Emacron.swsh.001
Substitution2: "Single Substitution lookup 56 subtable" Emacron.swsh
AlternateSubs2: "'swsh' Swash lookup 33 subtable" Emacron.swsh Emacron.swsh.001
Substitution2: "'c2sc' Capitals to Small Capitals lookup 11 subtable" emacron.sc
AlternateSubs2: "'aalt' Access All Alternates lookup 1 subtable" emacron.sc Emacron.swsh Emacron.swsh.001
EndChar

StartChar: emacron
Encoding: 275 275 209
Width: 544
GlyphClass: 2
Flags: W
AnchorPoint: "Anchor-0" 288 0 basechar 0
LayerCount: 2
Fore
SplineSet
427 629 m 1,0,-1
 427 603 l 1,1,-1
 126 603 l 1,2,-1
 126 629 l 1,3,-1
 427 629 l 1,0,-1
494 253 m 0,4,5
 494 249 494 249 493.5 243 c 128,-1,6
 493 237 493 237 493 235 c 2,7,-1
 83 235 l 1,8,9
 87 132 87 132 140 74 c 128,-1,10
 193 16 193 16 285 16 c 0,11,12
 346 16 346 16 393.5 43.5 c 128,-1,13
 441 71 441 71 464 120 c 1,14,-1
 489 107 l 1,15,16
 462 52 462 52 409 21 c 128,-1,17
 356 -10 356 -10 285 -10 c 0,18,19
 176 -10 176 -10 114.5 59 c 128,-1,20
 53 128 53 128 53 250 c 128,-1,21
 53 372 53 372 113 441 c 128,-1,22
 173 510 173 510 280 510 c 0,23,24
 380 510 380 510 437 441 c 128,-1,25
 494 372 494 372 494 253 c 0,4,5
280 484 m 0,26,27
 190 484 190 484 138 425.5 c 128,-1,28
 86 367 86 367 83 262 c 1,29,-1
 466 262 l 1,30,31
 463 367 463 367 415 425.5 c 128,-1,32
 367 484 367 484 280 484 c 0,26,27
EndSplineSet
Substitution2: "'smcp' Lowercase to Small Capitals lookup 12 subtable" emacron.sc
Substitution2: "'aalt' Access All Alternates lookup 0 subtable" emacron.sc
EndChar

StartChar: Edotaccent
Encoding: 278 278 210
Width: 595
GlyphClass: 2
Flags: W
AnchorPoint: "Anchor-0" 322 0 basechar 0
LayerCount: 2
Fore
SplineSet
322 758 m 128,-1,1
 308 758 308 758 299.5 766.5 c 128,-1,2
 291 775 291 775 291 788 c 128,-1,3
 291 801 291 801 299.5 809.5 c 128,-1,4
 308 818 308 818 322 818 c 128,-1,5
 336 818 336 818 344 810 c 128,-1,6
 352 802 352 802 352 788 c 128,-1,7
 352 774 352 774 344 766 c 128,-1,0
 336 758 336 758 322 758 c 128,-1,1
131 27 m 1,8,-1
 560 27 l 1,9,-1
 560 0 l 1,10,-1
 101 0 l 1,11,-1
 101 660 l 1,12,-1
 544 660 l 1,13,-1
 544 633 l 1,14,-1
 131 633 l 1,15,-1
 131 350 l 1,16,-1
 460 350 l 1,17,-1
 460 323 l 1,18,-1
 131 323 l 1,19,-1
 131 27 l 1,8,-1
EndSplineSet
Substitution2: "Single Substitution lookup 57 subtable" Edotaccent.swsh.001
Substitution2: "Single Substitution lookup 56 subtable" Edotaccent.swsh
AlternateSubs2: "'swsh' Swash lookup 33 subtable" Edotaccent.swsh Edotaccent.swsh.001
Substitution2: "'c2sc' Capitals to Small Capitals lookup 11 subtable" edotaccent.sc
AlternateSubs2: "'aalt' Access All Alternates lookup 1 subtable" edotaccent.sc Edotaccent.swsh Edotaccent.swsh.001
EndChar

StartChar: edotaccent
Encoding: 279 279 211
Width: 544
GlyphClass: 2
Flags: W
AnchorPoint: "Anchor-0" 288 0 basechar 0
LayerCount: 2
Fore
SplineSet
277 598 m 0,0,1
 263 598 263 598 254.5 606.5 c 128,-1,2
 246 615 246 615 246 628 c 128,-1,3
 246 641 246 641 254.5 649.5 c 128,-1,4
 263 658 263 658 277 658 c 0,5,6
 290 658 290 658 298.5 650 c 128,-1,7
 307 642 307 642 307 628 c 128,-1,8
 307 614 307 614 298.5 606 c 128,-1,9
 290 598 290 598 277 598 c 0,0,1
494 253 m 0,10,11
 494 249 494 249 493.5 243 c 128,-1,12
 493 237 493 237 493 235 c 2,13,-1
 83 235 l 1,14,15
 87 132 87 132 140 74 c 128,-1,16
 193 16 193 16 285 16 c 0,17,18
 346 16 346 16 393.5 43.5 c 128,-1,19
 441 71 441 71 464 120 c 1,20,-1
 489 107 l 1,21,22
 462 52 462 52 409 21 c 128,-1,23
 356 -10 356 -10 285 -10 c 0,24,25
 176 -10 176 -10 114.5 59 c 128,-1,26
 53 128 53 128 53 250 c 128,-1,27
 53 372 53 372 113 441 c 128,-1,28
 173 510 173 510 280 510 c 0,29,30
 380 510 380 510 437 441 c 128,-1,31
 494 372 494 372 494 253 c 0,10,11
280 484 m 0,32,33
 190 484 190 484 138 425.5 c 128,-1,34
 86 367 86 367 83 262 c 1,35,-1
 466 262 l 1,36,37
 463 367 463 367 415 425.5 c 128,-1,38
 367 484 367 484 280 484 c 0,32,33
EndSplineSet
Substitution2: "'smcp' Lowercase to Small Capitals lookup 12 subtable" edotaccent.sc
Substitution2: "'aalt' Access All Alternates lookup 0 subtable" edotaccent.sc
EndChar

StartChar: Eogonek
Encoding: 280 280 212
Width: 595
GlyphClass: 2
Flags: W
AnchorPoint: "Anchor-0" 322 0 basechar 0
LayerCount: 2
Fore
SplineSet
565 -163 m 1,0,-1
 573 -184 l 1,1,2
 545 -205 545 -205 499 -205 c 0,3,4
 458 -205 458 -205 431 -183 c 128,-1,5
 404 -161 404 -161 404 -122 c 128,-1,6
 404 -83 404 -83 429.5 -53.5 c 128,-1,7
 455 -24 455 -24 515 0 c 1,8,-1
 101 0 l 1,9,-1
 101 660 l 1,10,-1
 544 660 l 1,11,-1
 544 633 l 1,12,-1
 131 633 l 1,13,-1
 131 350 l 1,14,-1
 460 350 l 1,15,-1
 460 323 l 1,16,-1
 131 323 l 1,17,-1
 131 27 l 1,18,-1
 560 27 l 1,19,-1
 560 0 l 1,20,21
 488 -27 488 -27 459 -55 c 128,-1,22
 430 -83 430 -83 430 -120 c 0,23,24
 430 -150 430 -150 450 -165.5 c 128,-1,25
 470 -181 470 -181 501 -181 c 0,26,27
 542 -181 542 -181 565 -163 c 1,0,-1
EndSplineSet
Substitution2: "'c2sc' Capitals to Small Capitals lookup 11 subtable" eogonek.sc
Substitution2: "'aalt' Access All Alternates lookup 0 subtable" eogonek.sc
EndChar

